<svg xmlns="http://www.w3.org/2000/svg" version="1.1" xmlns:xlink="http://www.w3.org/1999/xlink" width="512" height="512" x="0" y="0" viewBox="0 0 68 68" style="enable-background:new 0 0 512 512" xml:space="preserve" class=""><g><path d="M64.5 44.2c-.8-1.1-2.3-1.4-2.4-1.5-1.1-.4-2.4-.1-3.3.6-.4.2-3.2 2.6-6.6 4.1-.5.2-.7.8-.5 1.3s.8.7 1.3.5c2.6-1.1 5.5-3.1 6.9-4.3.4-.3 1-.4 1.5-.3.9.5 1.4.8 1.3.7.4.4.6 1.1.2 1.8-.2.6-12.9 13.3-17.1 14.9-1 .4-5.9 1.2-7.9 1.1-4-.1-5-1.5-7.9-2.5-5.2-1.9-10.9-2.4-15.7.3-.5.3-.7.9-.4 1.4s.9.7 1.4.4c4.2-2.3 9.6-1.8 14.1-.2 3.1 1.3 5.3 2.8 9 2.7 2.7 0 7.1-.8 8.1-1.2 4.9-1.8 18.2-15.4 18.5-15.9.5-1.4.4-3-.5-3.9z" fill="#8d99cb" opacity="1" data-original="#000000" class=""></path><path d="M3.7 64.1c-.6 0-1 .4-1 1s.4 1 1 1h7.2c.6 0 1-.4 1-1V51.5c.8-.4 2.3-1.7 3.1-2.6 1.4-1.7 2.5-4.3 8.3-4.1 6.7.2 9.9 3.7 19.8 6.1 4.9 1.1 4.9.2 6.2 1.7.8 1 .7 2.3-1.1 2.6-.1 0-6.7 1.1-14.5-1-.5-.1-1.1.2-1.2.7s.2 1.1.7 1.2c5.5 1.5 11.5 1.6 15.2 1 3.2-.1 4.2-3.6 2.4-5.9-1.5-2.1-3.4-1.4-7.3-2.3-9.8-2.4-13-5.9-20.3-6.2-7.7-.4-9.1 3.8-10.1 4.9-.5.6-1 1-1.5 1.4v-1.9c0-.6-.4-1-1-1H3.7c-.6 0-1 .4-1 1v12c0 .6.4 1 1 1s1-.4 1-1v-11h5.2V64H3.7zM34 11.6c-5.6 0-10.1 4.5-10.1 10.1 0 5.5 4.5 10.1 10.1 10.1s10.1-4.5 10.1-10.1c0-1.9-.6-3.8-1.6-5.4-.3-.5-.9-.6-1.4-.3s-.6.9-.3 1.4c.8 1.3 1.3 2.8 1.3 4.4 0 1.7-.5 3.3-1.5 4.6-1.8-1.7-4.2-2.7-6.6-2.7-2.5 0-4.8 1-6.6 2.7-1-1.5-1.5-3.1-1.5-4.6 0-4.2 3.3-8.1 8.1-8.1 1.3 0 2.6.3 3.8.9.5.3 1.1.1 1.4-.4s.1-1.1-.4-1.4c-1.5-.8-3.2-1.2-4.8-1.2zm0 14c1.9 0 3.7.7 5.2 2.1-3 2.8-7.4 2.8-10.4 0 1.5-1.4 3.3-2.1 5.2-2.1z" fill="#8d99cb" opacity="1" data-original="#000000" class=""></path><path d="M30.6 18.7c0 1.8 1.5 3.4 3.4 3.4s3.4-1.5 3.4-3.4-1.5-3.4-3.4-3.4-3.4 1.6-3.4 3.4zm4.8 0c0 .7-.6 1.4-1.4 1.4-.7 0-1.4-.6-1.4-1.4s.6-1.4 1.4-1.4c.7 0 1.4.7 1.4 1.4z" fill="#8d99cb" opacity="1" data-original="#000000" class=""></path><path d="M36.5 1.9h-5c-1.5 0-2.6 1.2-2.6 2.7v3.1c0 .8-1.1.5-3.7 2.5-.2.2-.5.2-.8.1l-2.7-1.5c-1.3-.7-2.9-.2-3.6 1l-2.5 4.3c-.7 1.3-.3 2.9 1 3.6l2.7 1.5c.7.4-.1 1.1.3 4.5 0 .2-.1.5-.3.6l-2.7 1.5c-1.3.7-1.7 2.4-1 3.6l2.5 4.3c.7 1.3 2.4 1.7 3.6 1l2.7-1.5c.7-.4.9.6 4 1.9.3.1.5.4.5.6v3.1c0 1.5 1.2 2.7 2.6 2.7h5c1.5 0 2.7-1.2 2.7-2.7v-3.1c0-.3.2-.5.5-.6 3-1.3 3.2-2.3 4-1.9l2.7 1.5c1.3.7 2.9.3 3.6-1l2.5-4.3c.7-1.3.3-2.9-1-3.6-.8-.4-2.8-1.6-2.7-1.5-.2-.1-.4-.4-.3-.6.2-1.2.2-2.8 0-3.9 0-.2.1-.5.3-.6l2.7-1.5c1.3-.7 1.7-2.4 1-3.6L50 9.8c-.7-1.3-2.4-1.7-3.6-1l-2.7 1.5c-.7.4-1-.7-3.9-1.9-.2-.1-.5-.3-.5-.6V4.5C39.2 3 38 1.9 36.5 1.9zm5.1 9.8c.9.7 2 .7 3 .2l2.7-1.5c.3-.2.7-.1.9.2 2.4 4.3 2.7 4.3 2.6 4.8-.1.4-.4.4-3 1.9-.9.5-1.5 1.6-1.3 2.6.1.9.2 2.3 0 3.4-.1 1 .4 2.1 1.3 2.6l2.7 1.5c.3.2.4.6.2.9l-2.5 4.3c-.2.4-.6.5-.9.4l-2.7-1.5c-.9-.5-2.1-.5-3 .2-.8.6-1.7 1.2-2.7 1.6s-1.7 1.4-1.7 2.5v3.1c0 .4-.3.7-.7.7h-5c-.4 0-.6-.3-.6-.7v-3.1c0-1.1-.7-2.1-1.7-2.5s-1.9-1-2.7-1.6c-.9-.7-2-.8-3-.2-2.7 1.5-2.7 1.7-3.2 1.6-.4-.1-.2-.2-2.9-4.6-.2-.3-.1-.7.2-.9l2.7-1.5c.9-.5 1.4-1.6 1.3-2.6-.1-1.2-.2-2.2 0-3.4.2-1-.4-2.1-1.3-2.6L17.6 16c-.3-.2-.4-.6-.2-.9 2.7-4.5 2.5-4.5 2.9-4.6.5-.1.5.1 3.2 1.6.9.5 2.1.5 3-.2s1.8-1.2 2.7-1.6c1-.4 1.7-1.4 1.7-2.5V4.5c0-.4.3-.7.6-.7h5c.4 0 .7.3.7.7v3.1c0 1.1.7 2 1.7 2.5.9.4 1.9.9 2.7 1.6z" fill="#8d99cb" opacity="1" data-original="#000000" class=""></path></g></svg>