<svg xmlns="http://www.w3.org/2000/svg" version="1.1" xmlns:xlink="http://www.w3.org/1999/xlink" width="512" height="512" x="0" y="0" viewBox="0 0 32 32" style="enable-background:new 0 0 512 512" xml:space="preserve"><g><path d="M30 8v4c0 1.654-1.346 3-3 3h-1v-5a1 1 0 0 0-1-1H7a1 1 0 0 0-1 1v5H5c-1.654 0-3-1.346-3-3V8c0-1.654 1.346-3 3-3h22c1.654 0 3 1.346 3 3zm-12 4c0-.354-.093-.698-.268-1h-3.464A2.002 2.002 0 0 0 16 14c1.103 0 2-.897 2-2zm1.857-1H24v13c0 1.654-1.346 3-3 3H11c-1.654 0-3-1.346-3-3V11h4.143A3.992 3.992 0 0 0 12 12c0 2.206 1.794 4 4 4s4-1.794 4-4c0-.342-.059-.675-.143-1zM20 21a1 1 0 0 0-1 1v2a1 1 0 0 0 2 0v-2a1 1 0 0 0-1-1z" fill="#ffffff" opacity="1" data-original="#000000"></path></g></svg>