<svg xmlns="http://www.w3.org/2000/svg" version="1.1" xmlns:xlink="http://www.w3.org/1999/xlink" width="512" height="512" x="0" y="0" viewBox="0 0 512 512" style="enable-background:new 0 0 512 512" xml:space="preserve" class=""><g><g fill="#221f1f"><path d="M464 0H48C21.533 0 0 21.532 0 48v416c0 26.468 21.533 48 48 48h416c26.468 0 48-21.532 48-48V48c0-26.468-21.532-48-48-48zM32 128h64v50.865c-5.444 1.822-10.786 4.268-16.036 6.675-6.24 2.861-13.312 6.104-17.348 6.455-3.241.249-14.513-2.786-30.616-10.128zm448 336c0 8.822-7.178 16-16 16H48c-8.822 0-16-7.178-16-16V216.611c10.882 4.206 21.956 7.378 30.652 7.378.939 0 1.853-.037 2.734-.114 9.563-.831 18.893-5.109 27.917-9.247 6.502-2.981 14.595-6.692 18.698-6.692 3.594 0 11.092 3.573 17.117 6.444 9.859 4.697 20.054 9.556 30.883 9.556s21.023-4.858 30.883-9.556c6.024-2.871 13.523-6.444 17.117-6.444s11.092 3.573 17.117 6.444c9.859 4.697 20.054 9.556 30.883 9.556 10.828 0 21.023-4.858 30.883-9.556 6.025-2.871 13.523-6.444 17.117-6.444s11.092 3.573 17.117 6.444c9.859 4.697 20.055 9.556 30.883 9.556s21.023-4.858 30.883-9.556c6.025-2.871 13.523-6.444 17.117-6.444s11.092 3.573 17.117 6.444c9.859 4.697 20.055 9.556 30.883 9.556 8.523 0 20.344-3.429 32-7.822V464zM128 179.023V128h64v51.023c-5.066 1.793-10.016 4.148-14.883 6.468-6.025 2.871-13.523 6.444-17.117 6.444s-11.093-3.573-17.117-6.444c-4.867-2.319-9.817-4.675-14.883-6.468zm96 0V128h64v51.023c-5.066 1.793-10.016 4.148-14.883 6.468-6.025 2.871-13.523 6.444-17.117 6.444s-11.093-3.573-17.117-6.444c-4.867-2.319-9.817-4.675-14.883-6.468zm96 0V128h64v51.023c-5.066 1.793-10.016 4.148-14.883 6.468-6.025 2.871-13.523 6.444-17.117 6.444s-11.092-3.573-17.117-6.444c-4.867-2.319-9.817-4.675-14.883-6.468zm160 2.559c-15.848 6.811-27.803 10.354-32 10.354-3.594 0-11.092-3.573-17.117-6.444-4.867-2.319-9.816-4.675-14.883-6.468V128h64zM480 96H32V48c0-8.822 7.178-16 16-16h416c8.822 0 16 7.178 16 16z" fill="#8d99cb" opacity="1" data-original="#221f1f" class=""></path><path d="M345.355 259.021a16.005 16.005 0 0 0-14.415-2.199L237.403 288H208c-26.467 0-48 21.532-48 48s21.532 48 48 48h19.507l12.97 51.881c1.818 7.271 8.341 12.123 15.51 12.123 1.285 0 2.59-.156 3.893-.481 8.572-2.144 13.784-10.83 11.642-19.403l-8.931-35.724 68.35 22.783a15.988 15.988 0 0 0 14.415-2.2A16 16 0 0 0 352 400V272c0-5.143-2.473-9.973-6.645-12.979zM223.999 352h-16c-8.822 0-16-7.178-16-16s7.177-16 16-16h16zM320 377.801l-64.001-21.333v-40.936L320 294.199z" fill="#8d99cb" opacity="1" data-original="#221f1f" class=""></path><circle cx="432" cy="64" r="16" fill="#8d99cb" opacity="1" data-original="#221f1f" class=""></circle><circle cx="384" cy="64" r="16" fill="#8d99cb" opacity="1" data-original="#221f1f" class=""></circle><circle cx="336" cy="64" r="16" fill="#8d99cb" opacity="1" data-original="#221f1f" class=""></circle></g></g></svg>