<svg xmlns="http://www.w3.org/2000/svg" version="1.1" xmlns:xlink="http://www.w3.org/1999/xlink" width="512" height="512" x="0" y="0" viewBox="0 0 682.667 682.667" style="enable-background:new 0 0 512 512" xml:space="preserve" class=""><g><defs><clipPath id="b" clipPathUnits="userSpaceOnUse"><path d="M0 512h512V0H0Z" fill="#8d99cb" opacity="1" data-original="#000000"></path></clipPath></defs><mask id="a"><rect width="100%" height="100%" fill="#8d99cb" opacity="1" data-original="#ffffff" class=""></rect></mask><g mask="url(#a)"><g clip-path="url(#b)" transform="matrix(1.33333 0 0 -1.33333 0 682.667)"><path d="M0 0c0 .934-1.25 1.255-1.69.432C-7.369-10.19-18.562-17.42-31.447-17.42h-51.646v-34.255c0-24.964 19.561-47.764 49.148-47.764 26.338 0 47.765 21.427 47.765 47.764v34.634C5.951-15.371 0-8.348 0 0Z" style="stroke-width:15;stroke-linecap:round;stroke-linejoin:round;stroke-miterlimit:10;stroke-dasharray:none;stroke-opacity:1" transform="translate(290.135 230.482)" fill="none" stroke="#8d99cb" stroke-width="15" stroke-linecap="round" stroke-linejoin="round" stroke-miterlimit="10" stroke-dasharray="none" stroke-opacity="" data-original="#000000" opacity="1"></path><path d="M0 0c-5.945-2.831-10.064-8.877-10.064-15.9 0-9.733 7.888-17.622 17.621-17.622h9.485V-5.32h-5.969C6.593-5.32 2.603-3.241 0 0Z" style="stroke-width:15;stroke-linecap:round;stroke-linejoin:round;stroke-miterlimit:10;stroke-dasharray:none;stroke-opacity:1" transform="translate(190 218.383)" fill="none" stroke="#8d99cb" stroke-width="15" stroke-linecap="round" stroke-linejoin="round" stroke-miterlimit="10" stroke-dasharray="none" stroke-opacity="" data-original="#000000" opacity="1"></path><path d="M0 0c-1.046-3.89-4.603-6.778-8.811-6.778-1.233 0-2.434.139-3.596.387l-.002-.008V-34.98h9.485c9.732 0 17.621 7.889 17.621 17.622C14.697-8.625 8.337-1.396 0 0Z" style="stroke-width:15;stroke-linecap:round;stroke-linejoin:round;stroke-miterlimit:10;stroke-dasharray:none;stroke-opacity:1" transform="translate(316.364 219.84)" fill="none" stroke="#8d99cb" stroke-width="15" stroke-linecap="round" stroke-linejoin="round" stroke-miterlimit="10" stroke-dasharray="none" stroke-opacity="" data-original="#000000" opacity="1"></path><path d="M0 0c20.637 0 38.256 13.157 44.917 31.521l-15.731 6.004a4.84 4.84 0 0 0-3.095 4.504l-.014 15.919A47.472 47.472 0 0 0 0 50.171c-10.604 0-19.912 2.94-27.502 7.849l.001-15.961c0-1.996-.96-3.171-2.063-3.921l-16.756-6.543C-39.903 13.756-22.979 0 0 0Z" style="stroke-width:15;stroke-linecap:round;stroke-linejoin:round;stroke-miterlimit:10;stroke-dasharray:none;stroke-opacity:1" transform="translate(256.19 80.872)" fill="none" stroke="#8d99cb" stroke-width="15" stroke-linecap="round" stroke-linejoin="round" stroke-miterlimit="10" stroke-dasharray="none" stroke-opacity="" data-original="#000000" opacity="1"></path><path d="M0 0c-4.563-.352-8.751 2.519-9.63 7.011-1.479 7.565-5.224 15.073-19.856 15.073h-50.763c-18.63 0-33.733-15.104-33.733-33.733v-37.022c0-7.845 6.359-14.204 14.204-14.204h57.613c12.887 0 24.079 7.229 29.758 17.852.44.823 1.69.502 1.69-.433 0-9.58 7.838-17.419 17.419-17.419 5.023 0 9.131 4.109 9.131 9.131v38.634C15.833-6.009 7.893.606 0 0Z" style="stroke-width:15;stroke-linecap:round;stroke-linejoin:round;stroke-miterlimit:10;stroke-dasharray:none;stroke-opacity:1" transform="translate(300.851 275.938)" fill="none" stroke="#8d99cb" stroke-width="15" stroke-linecap="round" stroke-linejoin="round" stroke-miterlimit="10" stroke-dasharray="none" stroke-opacity="" data-original="#000000" opacity="1"></path><path d="M0 0v46.873" style="stroke-width:15;stroke-linecap:round;stroke-linejoin:round;stroke-miterlimit:10;stroke-dasharray:none;stroke-opacity:1" transform="translate(339.188 8.846)" fill="none" stroke="#8d99cb" stroke-width="15" stroke-linecap="round" stroke-linejoin="round" stroke-miterlimit="10" stroke-dasharray="none" stroke-opacity="" data-original="#000000" opacity="1"></path><path d="M0 0v-46.873" style="stroke-width:15;stroke-linecap:round;stroke-linejoin:round;stroke-miterlimit:10;stroke-dasharray:none;stroke-opacity:1" transform="translate(171.81 55.719)" fill="none" stroke="#8d99cb" stroke-width="15" stroke-linecap="round" stroke-linejoin="round" stroke-miterlimit="10" stroke-dasharray="none" stroke-opacity="" data-original="#000000" opacity="1"></path><path d="M0 0c-12.735 12.316-33.144 11.764-45.671-.764l-3.182-3.181a4.833 4.833 0 0 0-6.834 0l-3.181 3.181c-12.527 12.528-32.936 13.08-45.67.764-13.009-12.582-13.141-33.329-.395-46.076l43.01-43.009c5.332-5.333 13.975-5.333 19.308 0L.394-46.076C13.14-33.329 13.009-12.582 0 0Z" style="stroke-width:15;stroke-linecap:round;stroke-linejoin:round;stroke-miterlimit:10;stroke-dasharray:none;stroke-opacity:1" transform="translate(121.894 392.155)" fill="none" stroke="#8d99cb" stroke-width="15" stroke-linecap="round" stroke-linejoin="round" stroke-miterlimit="10" stroke-dasharray="none" stroke-opacity="" data-original="#000000" opacity="1"></path><path d="M0 0h55" style="stroke-width:15;stroke-linecap:round;stroke-linejoin:round;stroke-miterlimit:10;stroke-dasharray:none;stroke-opacity:1" transform="translate(228.186 470.085)" fill="none" stroke="#8d99cb" stroke-width="15" stroke-linecap="round" stroke-linejoin="round" stroke-miterlimit="10" stroke-dasharray="none" stroke-opacity="" data-original="#000000" opacity="1"></path><path d="M0 0h55" style="stroke-width:15;stroke-linecap:round;stroke-linejoin:round;stroke-miterlimit:10;stroke-dasharray:none;stroke-opacity:1" transform="translate(228.186 439.96)" fill="none" stroke="#8d99cb" stroke-width="15" stroke-linecap="round" stroke-linejoin="round" stroke-miterlimit="10" stroke-dasharray="none" stroke-opacity="" data-original="#000000" opacity="1"></path><path d="M0 0c0-15.908-12.896-28.805-28.806-28.805C-44.714-28.805-57.61-15.908-57.61 0c0 15.909 12.896 28.805 28.804 28.805C-12.896 28.805 0 15.909 0 0Z" style="stroke-width:15;stroke-linecap:round;stroke-linejoin:round;stroke-miterlimit:10;stroke-dasharray:none;stroke-opacity:1" transform="translate(442.173 383.317)" fill="none" stroke="#8d99cb" stroke-width="15" stroke-linecap="round" stroke-linejoin="round" stroke-miterlimit="10" stroke-dasharray="none" stroke-opacity="" data-original="#000000" opacity="1"></path><path d="M0 0h-37.162c-15.287 0-27.796-12.509-27.796-27.796v-18.399a9.248 9.248 0 0 1 9.247-9.247H18.55a9.247 9.247 0 0 1 9.247 9.247v18.398C27.797-12.509 15.288 0 0 0Z" style="stroke-width:15;stroke-linecap:round;stroke-linejoin:round;stroke-miterlimit:10;stroke-dasharray:none;stroke-opacity:1" transform="translate(431.948 354.513)" fill="none" stroke="#8d99cb" stroke-width="15" stroke-linecap="round" stroke-linejoin="round" stroke-miterlimit="10" stroke-dasharray="none" stroke-opacity="" data-original="#000000" opacity="1"></path><path d="M0 0v-41.5" style="stroke-width:15;stroke-linecap:round;stroke-linejoin:round;stroke-miterlimit:10;stroke-dasharray:none;stroke-opacity:1" transform="translate(483.75 436.57)" fill="none" stroke="#8d99cb" stroke-width="15" stroke-linecap="round" stroke-linejoin="round" stroke-miterlimit="10" stroke-dasharray="none" stroke-opacity="" data-original="#000000" opacity="1"></path><path d="M0 0h41.5" style="stroke-width:15;stroke-linecap:round;stroke-linejoin:round;stroke-miterlimit:10;stroke-dasharray:none;stroke-opacity:1" transform="translate(463 415.82)" fill="none" stroke="#8d99cb" stroke-width="15" stroke-linecap="round" stroke-linejoin="round" stroke-miterlimit="10" stroke-dasharray="none" stroke-opacity="" data-original="#000000" opacity="1"></path><path d="M0 0h97.995a8.756 8.756 0 0 1 8.756 8.755v35.304c0 21.518-14.996 36.02-26.195 40.629l-68.68 26.209a4.846 4.846 0 0 0-3.096 4.505l-.013 15.919a47.472 47.472 0 0 0-26.077-7.777c-10.605 0-19.912 2.941-27.502 7.85v-15.962c0-1.995-.959-3.171-2.064-3.921l-68.68-26.823c-11.199-4.609-26.195-19.111-26.195-40.629V8.755A8.756 8.756 0 0 1-132.995 0H-35" style="stroke-width:15;stroke-linecap:round;stroke-linejoin:round;stroke-miterlimit:10;stroke-dasharray:none;stroke-opacity:1" transform="translate(273.5 7.499)" fill="none" stroke="#8d99cb" stroke-width="15" stroke-linecap="round" stroke-linejoin="round" stroke-miterlimit="10" stroke-dasharray="none" stroke-opacity="" data-original="#000000" opacity="1"></path><path d="M0 0v12.293c0 9.834-7.972 17.806-17.806 17.806h-94.126c-9.833 0-17.805-7.972-17.805-17.806v-63.839c0-9.833 7.971-17.805 17.805-17.805h13.478a6.19 6.19 0 0 0 6.189-6.19v-13.122c0-2.382 2.899-3.554 4.553-1.841l18.613 19.265a6.193 6.193 0 0 0 4.453 1.888h46.841C-7.972-69.351 0-61.379 0-51.546V-35" style="stroke-width:15;stroke-linecap:round;stroke-linejoin:round;stroke-miterlimit:10;stroke-dasharray:none;stroke-opacity:1" transform="translate(318.588 474.402)" fill="none" stroke="#8d99cb" stroke-width="15" stroke-linecap="round" stroke-linejoin="round" stroke-miterlimit="10" stroke-dasharray="none" stroke-opacity="" data-original="#000000" opacity="1"></path></g></g></g></svg>