<svg xmlns="http://www.w3.org/2000/svg" version="1.1" xmlns:xlink="http://www.w3.org/1999/xlink" width="512" height="512" x="0" y="0" viewBox="0 0 512 512" style="enable-background:new 0 0 512 512" xml:space="preserve" class=""><g><path d="M304.698 291.193c0 21.37-16.527 39.275-38.502 43.575l.26 10.774c.134 5.521-4.234 10.105-9.756 10.238l-.246.003c-5.411 0-9.861-4.319-9.992-9.759l-.268-11.096c-13.084-2.315-21.448-9.223-29.436-16.757-4.018-3.79-4.201-10.119-.412-14.137a10.002 10.002 0 0 1 14.137-.412c9.065 8.552 14.614 12.127 25.517 12.127 15.824 0 28.698-11.017 28.698-24.558S271.824 266.636 256 266.636c-26.853 0-48.699-19.989-48.699-44.559.001-21.379 16.543-39.289 38.53-43.58l-.288-12.042c-.132-5.521 4.236-10.104 9.758-10.236 5.497-.125 10.104 4.236 10.236 9.758l.298 12.448c9.07 1.693 17.433 5.725 24.19 11.759 4.12 3.679 4.478 10 .799 14.119-3.677 4.12-9.999 4.479-14.119.799-5.476-4.889-12.829-7.581-20.706-7.582-15.823.001-28.697 11.018-28.698 24.559 0 13.541 12.874 24.558 28.699 24.558 26.853-.001 48.698 19.987 48.698 44.556zM512 231.401v49.197c0 14.424-11.735 26.159-26.159 26.159-21.86 0-35.523 14.181-41.021 27.451-5.498 13.272-5.864 32.962 9.594 48.42 4.94 4.941 7.662 11.511 7.662 18.498 0 6.988-2.722 13.558-7.663 18.498l-34.788 34.79c-10.201 10.197-26.797 10.199-36.996 0-15.46-15.458-35.148-15.092-48.419-9.595s-27.452 19.16-27.452 41.021c0 14.424-11.735 26.159-26.159 26.159h-49.197c-14.424 0-26.159-11.735-26.159-26.159 0-21.895-14.173-35.565-27.437-41.06-13.265-5.494-32.952-5.849-48.435 9.634-10.199 10.199-26.797 10.199-36.996 0l-34.79-34.79c-10.199-10.199-10.199-26.795 0-36.995 15.459-15.459 15.092-35.148 9.595-48.421-5.497-13.271-19.16-27.451-41.021-27.451C11.735 306.758 0 295.022 0 280.599v-49.197c0-14.424 11.735-26.159 26.159-26.159 21.861 0 35.523-14.181 41.021-27.452s5.863-32.96-9.595-48.418c-10.198-10.2-10.198-26.797 0-36.996l34.79-34.79c4.94-4.94 11.51-7.662 18.498-7.662s13.558 2.722 18.498 7.663c15.459 15.458 35.146 15.09 48.42 9.593 13.271-5.497 27.451-19.16 27.451-41.021 0-14.425 11.736-26.16 26.159-26.16h49.197c14.424 0 26.159 11.735 26.159 26.159 0 21.86 14.181 35.523 27.452 41.021 13.271 5.499 32.96 5.863 48.418-9.594 10.2-10.197 26.795-10.199 36.997 0l34.789 34.789c10.2 10.2 10.2 26.797 0 36.997-15.458 15.458-15.092 35.146-9.594 48.418 5.497 13.271 19.16 27.452 41.021 27.452 14.425 0 26.16 11.736 26.16 26.159zm-20 0a6.166 6.166 0 0 0-6.159-6.159c-26.531 0-49.33-15.25-59.498-39.798-10.169-24.55-4.832-51.454 13.929-70.215a6.167 6.167 0 0 0 0-8.712l-34.789-34.789a6.168 6.168 0 0 0-8.712 0c-12.467 12.466-28.533 19.005-45.11 19.007-8.37 0-16.867-1.666-25.104-5.078-24.548-10.168-39.798-32.967-39.798-59.498A6.166 6.166 0 0 0 280.6 20h-49.197a6.166 6.166 0 0 0-6.159 6.159c0 26.531-15.25 49.33-39.798 59.498-24.549 10.169-51.454 4.832-70.216-13.929-1.163-1.164-2.71-1.804-4.355-1.804s-3.192.64-4.355 1.803l-34.79 34.79a6.17 6.17 0 0 0 0 8.713c18.761 18.76 24.099 45.664 13.93 70.213-10.168 24.549-32.966 39.799-59.498 39.799a6.166 6.166 0 0 0-6.159 6.159v49.197a6.166 6.166 0 0 0 6.159 6.159c26.531 0 49.33 15.25 59.498 39.798 10.169 24.55 4.831 51.454-13.93 70.216a6.168 6.168 0 0 0 0 8.711l34.79 34.79a6.166 6.166 0 0 0 8.711 0c12.487-12.487 28.57-19.039 45.159-19.039 8.36 0 16.849 1.664 25.071 5.07 24.539 10.164 39.783 32.978 39.783 59.537a6.166 6.166 0 0 0 6.159 6.159H280.6a6.166 6.166 0 0 0 6.159-6.159c0-26.531 15.25-49.33 39.799-59.498 24.546-10.168 51.452-4.833 70.214 13.93a6.167 6.167 0 0 0 8.713 0l34.788-34.79c1.164-1.163 1.804-2.71 1.804-4.355s-.641-3.192-1.804-4.355c-18.761-18.762-24.098-45.666-13.929-70.216 10.168-24.548 32.967-39.798 59.498-39.798a6.166 6.166 0 0 0 6.159-6.159v-49.198zM403.216 256c0 81.175-66.041 147.216-147.216 147.216S108.784 337.175 108.784 256 174.825 108.785 256 108.785 403.216 174.825 403.216 256zm-20 0c0-70.146-57.068-127.215-127.216-127.215S128.784 185.854 128.784 256c0 70.147 57.068 127.216 127.216 127.216S383.216 326.147 383.216 256z" fill="#8d99cb" opacity="1" data-original="#000000"></path></g></svg>