<?xml version="1.0" encoding="utf-8"?>
<!-- Generator: Adobe Illustrator 26.3.1, SVG Export Plug-In . SVG Version: 6.00 Build 0)  -->
<svg version="1.1" id="Layer_1" xmlns="http://www.w3.org/2000/svg" xmlns:xlink="http://www.w3.org/1999/xlink" x="0px" y="0px"
	 viewBox="0 0 800 800" style="enable-background:new 0 0 800 800;" xml:space="preserve">
<style type="text/css">
	.st0{fill-rule:evenodd;clip-rule:evenodd;fill:#ffffff00;}
	.st1{fill-rule:evenodd;clip-rule:evenodd;fill:#FFFFFF;}
</style>
<rect class="st0" width="800" height="800"/>
<path class="st1" d="M295.5,81.5C377.4,81.5,444,148.1,444,230v42.4c0,44.9-20.5,84.8-52.2,112.1c23,2.8,45.9,6.2,68.6,11
	c64.2,13.5,110.8,74.8,110.8,145.6v81.5l-8.7,6.4c-46.5,34.2-141.4,89.5-267.5,89.5c-6.7,0-13.5-0.2-20.3-0.5
	c-111.1-5.2-195.5-51.3-246.6-89l-8.6-6.4v-81.5c0-70.9,46.7-132.1,110.9-145.6c22.6-4.7,45.4-8.4,68.3-11.2
	c-31.6-27.2-51.9-67-51.9-111.9V230C147,148.1,213.6,81.5,295.5,81.5L295.5,81.5z M260.3,208.8c-37.6,0-45,27.7-70.9,38.2v25.5
	c0,58.5,47.6,106.1,106.1,106.1s106.1-47.6,106.1-106.1V230c0-1-0.3-1.9-0.3-2.9c-0.3,0.2-0.5,0.5-0.8,0.7l-0.8,0.7l-0.4,0.3
	l-0.8,0.7l-0.7,0.7l-0.8,0.7l-0.4,0.3l-0.8,0.7c-10.8,9.9-22.2,19.3-43.7,19.3C306.1,251.2,306.1,208.8,260.3,208.8L260.3,208.8z
	 M748.6,81.5l31.7,31.7L701,192.5l79.3,79.3l-31.7,31.7l-79.3-79.3L590,303.6l-31.8-31.7l79.3-79.3l-79.3-79.3L590,81.5l79.3,79.3
	L748.6,81.5z"/>
</svg>
