<svg xmlns="http://www.w3.org/2000/svg" version="1.1" xmlns:xlink="http://www.w3.org/1999/xlink" width="512" height="512" x="0" y="0" viewBox="0 0 512 512" style="enable-background:new 0 0 512 512" xml:space="preserve" class=""><g><path d="m447.57 290.6-64.28-23.56c-5.69-2.07-9.23-7.12-9.23-13.18v-14.22c2.19-1.57 4.32-3.23 6.37-5 14.26-12.28 24.26-28.68 28.63-46.71h1.48c15.85 0 28.74-12.89 28.74-28.74v-75.6c0-46.08-37.5-83.57-83.59-83.57h-65.25c-15.73 0-29.36 7.48-37.65 20.55h-2.63c-24.67 0-44.73 20.08-44.73 44.76v93.85c0 15.85 12.89 28.74 28.74 28.74h1.48c4.37 18.04 14.37 34.43 28.63 46.71 2.05 1.76 4.16 3.42 6.34 4.98v14.24c0 5.68-3.09 10.46-8.15 12.75-4.37-5.69-11.22-9.27-18.67-9.27h-8.2l5.79-5.79c4.45-4.42 6.9-10.32 6.91-16.61.01-6.3-2.44-12.22-6.89-16.67l-17.57-17.57c-4.43-4.43-10.34-6.87-16.64-6.87s-12.21 2.44-16.64 6.87l-5.8 5.8v-8.2c0-12.97-10.55-23.53-23.53-23.53h-24.86c-12.97 0-23.53 10.55-23.53 23.53v8.17l-5.78-5.78c-9.17-9.13-24.1-9.13-33.29.01l-17.59 17.59c-9.15 9.19-9.14 24.11.01 33.26l5.8 5.8h-8.2c-12.97 0-23.53 10.55-23.53 23.53v24.86c0 12.97 10.55 23.53 23.53 23.53H62l-5.8 5.8c-9.15 9.15-9.16 24.07 0 33.27l17.59 17.59c9.17 9.13 24.1 9.13 33.29-.01l5.77-5.77v8.17c0 12.97 10.55 23.53 23.53 23.53h24.86c.65 0 1.29-.03 1.93-.08a7.99 7.99 0 0 0 7.82 6.35h16.44v51.87h-8.16c-5.44 0-9.87 4.43-9.87 9.87v22.28c0 5.44 4.43 9.87 9.87 9.87h286.19c5.44 0 9.87-4.43 9.87-9.87v-22.28c0-5.44-4.43-9.87-9.87-9.87h-8.16V418.1h16.44c4.42 0 7.99-3.58 7.99-7.99V339.5c-.01-22.09-13.41-41.28-34.16-48.9zM250.16 36.56h7.17c2.83 0 5.46-1.5 6.89-3.94l1.36-2.31c5.34-9.22 14.17-14.3 24.86-14.3h65.25c37.28 0 67.61 30.32 67.61 67.58v49.85a28.716 28.716 0 0 0-11.76-2.98v-24.99c0-4.13-1.95-7.81-5.35-10.1a12.05 12.05 0 0 0-11.49-1.17c-49.24 20.07-76.19 17.44-115.26-11.22l-.02-.02c-5.77-4.21-12.69-5.29-19.54-3.04-6.7 2.26-11.71 7.44-13.74 14.2l-10.9 36.31h-1.06c-4.58 0-8.91 1.08-12.75 3v-68.1c-.01-15.87 12.88-28.77 28.73-28.77zm-.07 142.1a7.984 7.984 0 0 0-7.89-6.72h-8.02c-7.03 0-12.75-5.72-12.75-12.76s5.72-12.76 12.75-12.76h7c3.53 0 6.64-2.31 7.66-5.69l12.61-42.01c.55-1.84 1.71-3.04 3.49-3.64 1.87-.62 3.48-.36 5.07.79 22.7 16.65 40.7 24.68 60.19 26.84 18.83 2.09 39.16-1.51 65.36-11.66v27.37c0 4.42 3.58 7.99 7.99 7.99h7c7.03 0 12.76 5.72 12.76 12.76s-5.72 12.76-12.76 12.76h-8.02c-3.92 0-7.27 2.85-7.89 6.72-5.65 35.13-36.72 61.62-72.27 61.62-35.56.01-66.63-26.48-72.28-61.61zm16.81 103.4c11.98-4.36 19.71-15.43 19.71-28.2v-5.15c11.2 4.93 23.36 7.56 35.75 7.56 12.37 0 24.52-2.62 35.72-7.54v5.13c0 12.77 7.75 23.84 19.73 28.2l1.41.52c-11.07 20.71-33 34.16-56.85 34.16s-45.78-13.45-56.85-34.16zM136.38 395.85c-4.16 0-7.54-3.38-7.54-7.54v-14.49c0-3.42-2.17-6.46-5.41-7.56-2.76-.94-5.54-2.1-8.28-3.43a8 8 0 0 0-9.15 1.54l-10.22 10.22c-2.95 2.94-7.76 2.94-10.71.01l-17.56-17.56c-2.94-2.95-2.95-7.74-.01-10.68l10.23-10.23a7.984 7.984 0 0 0 1.54-9.14 74.104 74.104 0 0 1-3.43-8.31 8 8 0 0 0-7.56-5.4H53.8c-4.16 0-7.54-3.38-7.54-7.54v-24.86c0-4.16 3.38-7.54 7.54-7.54h14.49a7.98 7.98 0 0 0 7.56-5.4c.97-2.82 2.12-5.62 3.43-8.31 1.49-3.06.87-6.74-1.54-9.14l-10.23-10.23c-2.93-2.93-2.93-7.72 0-10.66l17.56-17.56c2.96-2.94 7.77-2.94 10.71-.01l10.23 10.23a7.984 7.984 0 0 0 9.14 1.54c2.74-1.33 5.52-2.48 8.28-3.43a8.008 8.008 0 0 0 5.41-7.56V198.3c0-4.16 3.38-7.54 7.54-7.54h24.86c4.16 0 7.54 3.38 7.54 7.54v14.49c0 3.42 2.18 6.47 5.43 7.57 2.75.93 5.54 2.08 8.29 3.42 3.06 1.49 6.73.87 9.14-1.54L201.87 212c1.41-1.41 3.3-2.19 5.33-2.19s3.92.78 5.33 2.19l17.58 17.58a7.51 7.51 0 0 1 2.21 5.35c0 2.01-.78 3.89-2.21 5.31l-10.23 10.23a7.997 7.997 0 0 0-1.54 9.15c1.28 2.64 2.45 5.45 3.47 8.37a7.998 7.998 0 0 0 7.54 5.34h14.46c.12 0 .24.02.37.03l-40.99 15.03c-2.49-27.82-25.91-49.7-54.36-49.7-30.12 0-54.62 24.49-54.62 54.6 0 30.12 24.5 54.62 54.62 54.62 4.8 0 9.57-.65 14.17-1.89v49.61c-.54.13-1.12.21-1.76.21h-24.86zm27.71-67.09a38.54 38.54 0 0 1-15.26 3.16c-21.3 0-38.64-17.33-38.64-38.64 0-21.29 17.33-38.61 38.64-38.61 21.29 0 38.61 17.32 38.61 38.61 0 .71-.04 1.4-.07 2.09-12.08 7.51-20.43 19.49-23.28 33.39zm295.24 167.23H185.39v-10.03h273.94zm-255.91-26.02V356.81c0-1.31 1.1-2.41 2.41-2.41h233.06c1.31 0 2.41 1.1 2.41 2.41v113.16zm262.32-67.86h-8.45v-45.3c0-10.14-8.25-18.4-18.4-18.4H205.83c-10.14 0-18.4 8.25-18.4 18.4v45.3h-8.45v-62.62c0-15.54 9.07-28.52 23.67-33.88l47.73-17.5c13.46 26.96 41.46 44.6 71.97 44.6s58.51-17.64 71.97-44.6l47.73 17.5c14.6 5.36 23.67 18.34 23.67 33.88v62.62zm-143.38-9.3c-10.69 0-19.39 8.7-19.39 19.39 0 10.68 8.7 19.36 19.39 19.36s19.39-8.69 19.39-19.36c0-10.69-8.7-19.39-19.39-19.39zm0 22.77c-1.84 0-3.4-1.54-3.4-3.37 0-1.88 1.53-3.4 3.4-3.4s3.4 1.53 3.4 3.4c0 1.82-1.56 3.37-3.4 3.37z" fill="#8d99cb" opacity="1" data-original="#000000" class=""></path></g></svg>