<svg xmlns="http://www.w3.org/2000/svg" version="1.1" xmlns:xlink="http://www.w3.org/1999/xlink" width="512" height="512" x="0" y="0" viewBox="0 0 24 24" style="enable-background:new 0 0 512 512" xml:space="preserve"><g><circle cx="9" cy="6" r="5" fill="#ffffff" opacity="1" data-original="#000000"></circle><path d="M13.25 13h-8.5A4.756 4.756 0 0 0 0 17.75v3.5c0 .414.336.75.75.75h16.5a.75.75 0 0 0 .75-.75v-3.5A4.756 4.756 0 0 0 13.25 13zM23.761 9.45l-3.5-3.25a.75.75 0 0 0-.51-.199c-.496 0-.751.422-.751.749V9h-4a1 1 0 1 0 0 2h4v2.25a.75.75 0 0 0 1.261.55l3.5-3.25a.754.754 0 0 0 0-1.1z" fill="#ffffff" opacity="1" data-original="#000000"></path></g></svg>