<svg width="1323" height="140" viewBox="0 0 1323 140" fill="none" xmlns="http://www.w3.org/2000/svg">
<g clip-path="url(#clip0_1_2)">
<path d="M1225.92 36.5593L1216.16 47.627L1211.71 51.9886L1211.2 54.3531L1210 56.3401L1211.37 58.3272L1212.57 56.1414L1213.76 56.509H1215.48L1216.84 56.8766L1218.72 51.4223L1219.75 48.8689L1227.62 44.1497L1231.73 40.7023C1231.73 40.7023 1233.11 32.9032 1225.92 36.5593Z" fill="#FED09E"/>
<path d="M1251.1 92.1762C1251.1 92.1762 1252.47 87.9935 1256.24 89.4539C1256.24 89.4539 1258.64 91.2621 1258.64 95.9912L1259.32 97.4418C1259.32 97.4418 1264.63 103.403 1264.63 105.986C1264.63 105.986 1265.49 110.526 1261.88 110.526L1256.27 103.989L1252.33 100.899L1251.13 99.2897L1251.1 92.1762Z" fill="#262324"/>
<path d="M1262.23 15.477V16.9275H1253.5L1252.3 14.2053L1250.42 12.566H1248.55L1249.06 18.5271L1249.69 21.1996L1253.51 19.61L1259 19.4312L1261.73 20.524H1261.78L1261.9 19.4013L1263.44 17.8217L1263.78 15.0994L1263.37 14.1059L1262.23 15.477Z" fill="#FED09E"/>
<path d="M1252.3 14.2053L1253.5 16.9275H1262.23V15.477L1263.36 14.1556L1262.91 13.1621L1262.58 8.98933C1261.72 4.08138 1256.96 3.16735 1256.96 3.16735C1255.56 2.92682 1254.13 3.04881 1252.79 3.5229C1251.45 3.99699 1250.24 4.80904 1249.25 5.88957L1248.57 12.6157H1250.44L1252.3 14.2053Z" fill="#2D2A2B"/>
<path d="M1296.65 51.0944L1294.78 49.6439L1290.67 42.0037C1290.67 42.0037 1290.84 44.5571 1290.32 45.2823C1289.81 46.0076 1285.19 48.551 1285.19 48.551L1288.78 50.538L1288.61 51.8097L1290.84 54.1643L1292.55 54.7207L1293.24 52.3561L1293.92 52.8926L1294.27 55.9825L1296.14 55.7937L1297 54.1643L1296.65 51.0944Z" fill="#FED09E"/>
<path d="M1290.66 42.0038L1283.1 32.009L1276.24 28.2039L1261.69 20.5638L1258.95 19.4709L1253.47 19.6497L1248.67 21.6367C1247.09 22.0319 1245.49 22.3338 1243.88 22.5408L1238.74 25.9983L1231.61 30.9162L1229.55 33.2807L1228.15 34.8902C1228.16 35.1631 1228.14 35.4364 1228.1 35.7049C1232.78 34.612 1231.75 40.6724 1231.75 40.6724L1230.02 42.123C1230.86 43.3464 1231.91 44.3939 1233.11 45.2128L1235.17 45.7592L1239.62 42.6595L1242.02 40.8413V53.0218C1241.57 54.1807 1241 55.2809 1240.31 56.3004C1239.28 57.7509 1239.97 60.4732 1239.97 60.4732L1240.83 62.6589H1241.66L1242.2 61.4269C1242.2 61.4269 1248.02 59.6088 1248.75 59.4399C1249.48 59.271 1256.24 58.347 1256.24 58.347C1263.43 55.7937 1266.85 57.8006 1266.85 57.8006L1268.23 58.5259L1269.99 61.5362H1270.64C1270.64 61.5362 1272.01 58.2576 1272.51 58.0788C1273.01 57.9 1274.04 54.1047 1274.04 54.1047L1275.24 45.1631H1278.5L1280.71 46.6335L1282.26 50.2698L1284.82 50.8162L1285.16 48.6305C1285.16 48.6305 1289.78 46.0871 1290.3 45.3618C1290.81 44.6366 1290.66 42.0038 1290.66 42.0038Z" fill="#2E3192"/>
<path d="M1268.74 89.4539L1263.18 90.2885L1263.09 91.6297L1263.43 96.8953L1265.49 104.168C1265.49 104.168 1267.72 98.5346 1272.16 100.353L1272.33 95.9912L1273.01 90.8945L1274.39 88.3611L1274.04 87.2781L1268.74 89.4539Z" fill="#FED09E"/>
<path d="M1251.1 99.2897V92.1761L1247.35 92.355L1239.47 95.8124L1239.17 95.4249C1238.89 96.9748 1239.1 99.4685 1242.38 101.446L1247.35 101.624C1247.35 101.624 1251.1 101.624 1251.46 101.078C1251.6 100.791 1251.71 100.487 1251.79 100.174L1251.1 99.2897Z" fill="white"/>
<path d="M1272.2 99.4685V100.283C1268.64 98.8327 1266.51 102.131 1265.8 103.522L1265.35 108.102V113.725L1266.72 117.372L1266.21 124.813L1267.06 128.27C1267.06 128.27 1270.32 126.085 1271.17 128.628L1272.88 129.721L1274.08 128.082C1274.08 128.082 1274.6 118.455 1275.11 115.365L1275.8 110.089C1275.8 110.089 1274.24 101.972 1272.2 99.4685Z" fill="white"/>
<path d="M1276.1 132.88C1276.1 132.88 1275.94 129.979 1275.07 128.698C1274.83 128.34 1274.48 127.794 1274.14 127.188C1274.14 127.52 1274.12 127.852 1274.08 128.181L1272.88 129.82L1271.17 128.727C1270.32 126.184 1267.06 128.37 1267.06 128.37L1266.85 127.466L1266.72 129.642L1266.21 131.46L1266.72 135.275L1268.77 136H1276.49L1277.85 134.907L1276.1 132.88Z" fill="#262324"/>
<path d="M1276.96 73.0908L1272.51 66.9111L1271.13 63.4537L1268.23 58.5557L1266.85 57.8304C1266.85 57.8304 1263.43 55.8434 1256.24 58.3768C1256.24 58.3768 1249.39 59.2809 1248.75 59.4697L1242.2 61.4567L1241.34 63.4438C1241.34 63.4438 1239.28 66.166 1239.28 66.7124C1239.28 67.2588 1238.94 72.3456 1238.94 72.902C1238.94 73.4584 1238.77 81.6151 1238.77 81.6151L1238.09 88.8976L1238.6 94.6997L1239.45 95.8025L1247.34 92.3351L1251.08 92.1563C1251.43 91.1993 1252.03 90.3661 1252.8 89.752C1252.87 89.6537 1252.92 89.5469 1252.96 89.4341C1253.14 88.8876 1249.88 85.0626 1256.22 81.9827L1258.09 85.0626L1261.35 89.0366L1262.72 90.3481L1268.71 89.444L1274.02 87.2583L1274.36 88.3412L1275.61 82.6682L1277.15 80.8501L1276.96 73.0908Z" fill="#1B1464"/>
<path d="M1296.65 51.0944L1294.78 49.6439L1290.67 42.0038L1283.1 32.009L1276.24 28.2039L1261.73 20.5936L1261.86 19.4709L1263.44 17.8217L1263.78 15.0994L1262.92 13.1124L1262.59 8.93965C1261.72 4.03169 1256.97 3.11766 1256.97 3.11766C1255.56 2.87783 1254.12 3.00585 1252.77 3.49063C1251.42 3.9754 1250.21 4.80228 1249.23 5.8995L1248.54 12.6256L1249.05 18.5867L1249.69 21.2592L1248.75 21.6765C1247.17 22.0717 1245.57 22.3735 1243.96 22.5806L1238.82 26.038L1231.61 30.9162L1229.55 33.2807L1228.15 34.8902C1228.16 35.1631 1228.14 35.4364 1228.1 35.7049C1227.34 35.8856 1226.61 36.1625 1225.92 36.5295L1216.16 47.627L1211.71 51.9886L1211.2 54.3531L1210 56.3401L1211.37 58.3272L1212.57 56.1414L1213.76 56.509H1215.48L1216.84 56.8766L1218.72 51.4223L1219.75 48.8689L1227.62 44.1497L1230 42.1627C1230.84 43.3862 1231.89 44.4337 1233.1 45.2525L1235.16 45.799L1239.6 42.7091L1242 40.891V53.0814C1241.55 54.2403 1240.98 55.3405 1240.3 56.36C1239.27 57.8105 1239.95 60.5328 1239.95 60.5328L1240.81 62.7185H1241.64L1241.32 63.4835C1241.32 63.4835 1239.27 66.2057 1239.27 66.7522C1239.27 67.2986 1238.92 72.3854 1238.92 72.9418C1238.92 73.4981 1238.75 81.6549 1238.75 81.6549L1238.07 88.9373L1238.58 94.7394L1239.13 95.4548C1238.85 97.0046 1239.06 99.4983 1242.35 101.475L1247.32 101.654C1247.32 101.654 1251.06 101.654 1251.43 101.108C1251.57 100.82 1251.68 100.517 1251.75 100.204L1252.28 100.929L1256.22 104.019L1261.84 110.556C1265.44 110.556 1264.58 106.016 1264.58 106.016C1264.58 103.472 1259.27 97.4716 1259.27 97.4716L1258.59 96.0211C1258.59 91.2919 1256.19 89.4837 1256.19 89.4837C1255.64 89.2249 1255.04 89.1183 1254.44 89.174C1253.85 89.2296 1253.27 89.4456 1252.77 89.8017C1252.84 89.7034 1252.89 89.5965 1252.93 89.4837C1253.11 88.9373 1249.85 85.1123 1256.19 82.0324L1258.06 85.1123L1261.32 89.0863L1262.69 90.3481L1263.12 90.2786L1263.04 91.6198L1263.37 96.8854L1265.43 104.158C1265.51 103.958 1265.6 103.765 1265.7 103.582L1265.25 108.162V113.785L1266.63 117.431L1266.12 124.873L1266.75 127.426L1266.63 129.602L1266.12 131.42L1266.63 135.235L1268.68 135.96H1276.39L1277.76 134.867L1276.05 132.88C1276.05 132.88 1275.88 129.979 1275.02 128.698C1274.77 128.34 1274.43 127.794 1274.08 127.188C1274.23 124.674 1274.64 117.928 1275.02 115.434L1275.7 110.159C1275.7 110.159 1274.19 101.972 1272.14 99.4983L1272.28 95.9912L1272.96 90.8945L1274.33 88.3611L1275.53 82.7279L1277.08 80.9097L1276.9 73.1007L1272.45 66.9211L1271.08 63.4636L1269.92 61.4766H1270.56C1270.56 61.4766 1271.94 58.198 1272.43 58.0192C1272.93 57.8403 1273.97 54.0451 1273.97 54.0451L1275.17 45.1035H1278.42L1280.64 46.554L1282.16 50.1903L1284.73 50.7367L1285.06 48.551L1288.66 50.538L1288.49 51.8097L1290.72 54.1644L1292.43 54.7207L1293.11 52.3562L1293.8 52.8927L1294.14 55.9825L1296.02 55.7937L1296.88 54.1644L1296.65 51.0944Z" stroke="#231F20"/>
<path d="M1092.02 19.1653H1102.71L1108.92 20.9188L1113.89 23.6487L1108.92 30.6228L1107.92 32.1172L1101.96 32.8644L1099.47 38.8422L1102.45 52.2823L1103.2 61.2489C1103.2 61.2489 1101.96 65.4832 1101.71 66.2304C1101.46 66.9777 1099.72 70.4647 1099.72 71.461C1099.72 72.4573 1100.22 75.6853 1099.47 75.6853C1098.72 75.6853 1091.76 74.689 1090.02 74.689C1088.28 74.689 1076.1 71.9691 1075.36 71.9691C1074.63 71.9691 1067.16 70.4747 1067.16 70.4747L1066.91 65.7422C1066.28 63.8687 1065.78 61.9548 1065.42 60.0135C1065.42 59.0172 1063.18 50.0506 1063.18 50.0506L1062.43 47.5598L1054.48 49.3133L1052.99 48.058L1052 45.8263C1052 45.8263 1054.24 29.8855 1058.46 26.4084L1063.93 21.666L1069.16 19.1753C1069.16 19.1753 1074.88 16.1864 1077.61 18.438L1081.33 18.189L1085.81 17.9299L1092.02 19.1653Z" fill="#2E3192"/>
<path d="M1090.28 88.6571L1092.02 97.8728C1092.02 97.8728 1082.32 92.1441 1081.84 104.349L1077.36 96.3784L1076.62 94.1367C1076.62 94.1367 1077.36 88.408 1082.58 87.6608C1082.57 87.6608 1090.03 86.4154 1090.28 88.6571Z" fill="#FED09E"/>
<path d="M1054.49 49.3233L1062.44 47.5698L1063.19 50.0605C1063.19 50.0605 1063.33 50.6483 1063.55 51.535L1055.73 52.8003C1055.01 52.2805 1054.41 51.6055 1053.98 50.8246C1053.55 50.0437 1053.3 49.1767 1053.25 48.2871L1054.49 49.3233Z" fill="#FED09E"/>
<path d="M1108.67 50.8177L1111.9 48.8251C1112.4 45.5971 1108.67 32.8844 1108.67 32.8844L1108.11 31.8881L1108.92 30.6726L1113.44 24.3461L1115.14 26.1892C1118.12 29.6763 1116.63 45.8661 1116.63 45.8661L1116.88 51.5849C1116.88 51.5849 1116.88 56.0682 1116.13 56.3173C1114.74 57.1418 1113.42 58.0571 1112.15 59.0571L1108.42 59.5552L1106.68 56.8154L1105.45 55.8191L1106.68 55.0819L1108.67 50.8177Z" fill="#FED09E"/>
<path d="M1075.37 71.9691C1076.11 71.9691 1088.3 74.699 1090.03 74.699C1091.57 74.699 1097.18 75.4761 1098.98 75.6953V76.6916L1093.51 87.3918L1091.28 92.1242H1090.92L1090.25 88.5973C1090 86.3556 1082.54 87.601 1082.54 87.601C1077.33 88.3482 1076.58 94.077 1076.58 94.077L1074.09 89.6036L1069.37 74.6591L1068.37 70.6739C1070.63 71.1621 1074.82 71.9691 1075.37 71.9691Z" fill="#1B1464"/>
<path d="M1092.02 97.8728L1091.85 96.9463L1095.5 100.613L1098.49 109.828L1098.73 111.064L1096 116.294L1094.76 118.287L1091.03 115.298L1081.84 104.339C1082.32 92.1441 1092.02 97.8728 1092.02 97.8728Z" fill="white"/>
<path d="M1094.34 117.958L1094.76 118.287L1096 116.294L1098.73 111.064V110.884L1102.71 111.064C1103.54 111.336 1104.26 111.873 1104.75 112.593C1105.25 113.313 1105.49 114.176 1105.45 115.049V126.765C1105.45 126.765 1106.18 136.728 1100.97 136.22C1100.97 136.22 1096.75 133.231 1096.99 126.516L1095.25 119.791L1094.34 117.958Z" fill="#262324"/>
<path d="M1077.61 134.975L1080.4 128.439C1080.94 132.554 1084.31 128.499 1084.31 128.499L1087.12 128.967L1088.29 134.467L1086.55 137.217L1085.56 138.96H1075.61V137.217L1077.61 134.975Z" fill="#262324"/>
<path d="M1070.9 15.6982L1072.89 16.1964L1076.62 17.1927H1079.6L1082.32 16.1964L1083.82 13.9547L1084.06 10.2286L1084.83 9.84996C1084.92 11.4756 1084.83 13.1061 1084.56 14.7119L1083.96 18.0495L1081.35 18.1989L1077.63 18.448C1075.97 17.093 1073.22 17.651 1071.3 18.2986L1067.93 13.7156V13.4665H1068.93L1070.9 15.6982Z" fill="#FED09E"/>
<path d="M1076.37 1.01282C1082.98 0.713927 1084.59 5.78508 1084.83 9.84997L1084.06 10.2286L1083.82 13.9547L1082.32 16.1765L1079.6 17.1728H1076.62L1072.89 16.1765L1070.9 15.6783L1068.91 13.4466H1067.91L1067.67 8.7142C1067.91 1.51096 1076.37 1.01282 1076.37 1.01282Z" fill="#2D2A2B"/>
<path d="M1080.09 106.082L1081.08 103.093L1081.82 104.399L1090.35 114.561L1088.77 121.077L1087.28 129.047L1084.29 128.549C1084.29 128.549 1080.57 133.022 1080.32 127.802V117.799L1079.81 111.074L1080.09 106.082Z" fill="white"/>
<path d="M1052 45.8362C1052 45.8362 1054.24 29.8955 1058.46 26.4184L1063.93 21.676L1069.16 19.1853C1069.85 18.8447 1070.56 18.5485 1071.28 18.2986L1067.91 13.7156L1067.66 8.73411C1067.91 1.51096 1076.36 1.01281 1076.36 1.01281C1087.3 0.51466 1084.56 14.7119 1084.56 14.7119L1083.96 18.0495L1085.83 17.9399L1092.02 19.1653H1102.71L1108.92 20.9188L1113.89 23.6487L1113.44 24.2963L1115.14 26.1394C1118.12 29.6265 1116.63 45.8163 1116.63 45.8163L1116.88 51.5351C1116.88 51.5351 1116.88 56.0184 1116.13 56.2675C1114.74 57.092 1113.42 58.0073 1112.15 59.0073L1108.42 59.5054L1106.68 56.7656L1105.44 55.7693L1106.68 55.0321L1108.67 50.7978L1111.9 48.8052C1112.4 45.5772 1108.67 32.8644 1108.67 32.8644L1108.11 31.8681L1107.92 32.1471L1101.96 32.8943L1099.47 38.8721L1102.45 52.3122L1103.2 61.2788C1103.2 61.2788 1101.96 65.5131 1101.71 66.2603C1101.46 67.0076 1099.72 70.4946 1099.72 71.4909C1099.72 72.4872 1100.22 75.7152 1099.47 75.7152C1099.31 75.7252 1099.14 75.7252 1098.97 75.7152V76.7115L1093.5 87.4117L1091.27 92.1441H1090.92L1091.81 96.9064L1095.47 100.573L1098.46 109.789L1098.67 110.845L1102.64 111.024C1103.47 111.296 1104.19 111.833 1104.68 112.553C1105.18 113.274 1105.42 114.136 1105.38 115.009V126.765C1105.38 126.765 1106.11 136.728 1100.9 136.22C1100.9 136.22 1096.68 133.231 1096.92 126.516L1095.2 119.791L1094.29 117.968L1090.98 115.308L1090.32 114.521L1088.74 121.037L1087.25 129.007H1087.07L1088.24 134.507L1086.5 137.256L1085.51 139H1075.56V137.227L1077.55 134.985L1080.35 128.449C1080.35 128.218 1080.33 127.986 1080.28 127.762V117.799L1079.78 111.074L1080.03 106.092L1081.02 103.103L1077.28 96.4382L1076.54 94.1965L1074.01 89.6733L1069.29 74.7289L1068.29 70.7437L1067 70.4946L1066.75 65.7622C1066.12 63.8887 1065.62 61.9747 1065.26 60.0335C1065.26 59.2862 1064.01 54.1354 1063.38 51.545L1055.56 52.8103C1054.85 52.2864 1054.26 51.6096 1053.83 50.8289C1053.41 50.0483 1053.17 49.1834 1053.12 48.2971L1052.88 48.0779L1052 45.8362Z" stroke="#231F20"/>
<path d="M887.407 11.0782C887.407 11.0782 884.605 15.3702 884.605 26.9216L884.021 30.7754L885.496 36.2623L887.407 40.1161L888.396 45.0055L889.287 45.1549L889.723 39.3792L896.059 39.0705L896.504 38.1942L895.514 37.4473H889.476L895.811 35.376L895.663 34.4898L894.336 34.191L893.455 33.006L890.802 33.4541L888.446 31.0741C888.446 31.0741 888.297 28.8535 891.416 22.1815C891.416 22.1815 896.722 13.1495 893.92 10.3314C893.891 10.3314 889.179 7.36384 887.407 11.0782Z" fill="#FED09E"/>
<path d="M922.461 46.9275C920.847 35.0773 913.185 22.779 913.185 22.779L909.225 16.8539L907.017 15.3702L905.691 15.5196C904.513 13.747 897.148 11.377 897.148 11.377C895.524 3.41048 889.634 6.02947 889.634 6.02947C883.16 12.2633 884.486 18.039 884.486 18.039C884.714 18.3775 884.932 18.7261 885.13 19.0945C885.941 13.3686 887.426 11.128 887.426 11.128C889.198 7.41365 893.91 10.3812 893.91 10.3812C896.712 13.1993 891.406 22.2313 891.406 22.2313C888.307 28.9033 888.436 31.1239 888.436 31.1239L890.792 33.5039L893.445 33.0558L894.326 34.2408L895.653 34.5396L895.801 35.4258L889.466 37.4971H895.504L896.494 38.244L896.049 39.1203L889.713 39.429L889.278 45.2047L888.387 45.0554L888.248 44.3882C887.882 48.3714 887.357 51.1298 887.357 51.1298C887.031 51.8807 887.002 52.7286 887.276 53.5004C887.55 54.2721 888.107 54.9095 888.832 55.2823C891.04 54.6849 905.325 54.3961 905.325 54.3961L913.135 55.133H915.491L916.808 57.0051L918.58 57.3038L918.867 56.7163L919.164 54.0475L917.837 53.0517L917.115 51.5779C918.411 51.5712 919.662 51.0988 920.642 50.2461C921.622 49.3934 922.267 48.2164 922.461 46.9275Z" fill="#2E3192"/>
<path d="M925.411 80.7154L924.826 76.4135L921.579 70.6378L920.59 69.164L918.342 59.7237L917.016 57.732L916.57 56.557L915.58 55.0633H913.224L905.414 54.3263C905.414 54.3263 891.129 54.6151 888.921 55.2126L888.812 55.1529L888.624 57.732L886.417 58.6183C886.417 58.6183 883.179 59.9527 883.615 63.209L883.031 64.8421L878.081 71.6734C878.081 71.6734 876.161 79.6399 889.129 82.6273L890.743 84.1111C890.743 84.1111 898.435 82.4481 901.959 77.5885L906.819 83.2248L906.968 87.0786C906.968 87.0786 918.164 91.6693 926.559 86.4811L925.411 80.7154Z" fill="#1B1464"/>
<path d="M899.484 109.873L899.187 109.614L898.019 108.12L892.96 96.27C892.96 96.27 889 87.2379 887.664 86.3118L886.674 84.6588C883.489 85.5364 880.194 85.9423 876.893 85.8637L878.378 89.13L877.943 91.51L878.24 93.5713C878.24 93.5713 886.783 104.097 886.921 106.029C887.057 106.284 887.242 106.51 887.466 106.694C887.689 106.877 887.946 107.013 888.222 107.096C888.499 107.178 888.788 107.205 889.075 107.174C889.361 107.143 889.639 107.055 889.891 106.915L894.455 114.025L895.544 116.077C895.287 110.739 897.633 109.803 899.484 109.873Z" fill="white"/>
<path d="M886.714 84.6887L886.377 84.1211L888.822 82.5576C876.25 79.5702 878.111 71.6734 878.111 71.6734C878.111 71.6734 874.428 79.8191 875.141 82.0498L876.893 85.8936C880.207 85.9722 883.515 85.5664 886.714 84.6887Z" fill="#FED09E"/>
<path d="M903.315 113.318L899.484 109.883C897.633 109.813 895.287 110.749 895.524 116.107L897.979 120.727L900.474 125.168C900.474 125.168 904.899 129.321 906.414 124.88C906.911 122.846 906.887 120.719 906.345 118.697C905.803 116.676 904.761 114.825 903.315 113.318Z" fill="#262324"/>
<path d="M954.426 129.759L954.574 127.24C954.574 127.24 955.564 121.315 948.536 118.795L948.12 118.516C946.871 119.261 945.845 120.331 945.15 121.613L945.734 124.969L944.239 127.708L944.358 127.987L944.507 130.795L945.833 132.428L947.011 136.132C947.011 136.132 949.664 142.944 956 135.535L954.426 129.759Z" fill="#262324"/>
<path d="M931.202 93.4817C931.202 93.4817 927.569 90.0561 926.114 86.8297C922.507 88.6815 918.423 89.3766 914.412 88.8213C915.204 90.9025 917.065 94.1091 921.48 97.6044L924.45 100.671C924.401 98.2616 925.46 94.5771 931.202 93.4817Z" fill="#FED09E"/>
<path d="M945.2 121.613C945.895 120.331 946.921 119.261 948.169 118.516L947.259 117.909C947.259 117.909 940.042 99.3869 935.765 96.27L931.251 93.4817C925.51 94.597 924.45 98.2616 924.401 100.671L924.876 101.159C924.876 101.159 929.727 105.461 929.826 107.134C929.826 107.134 937.042 113.498 938.963 118.238L940.289 118.835L941.171 121.056L944.289 127.748L945.784 125.009L945.2 121.613Z" fill="white"/>
<path d="M903.315 8.99698L900.513 9.89321H896.742C896.899 10.3797 897.028 10.8752 897.128 11.377C899.432 12.1232 901.679 13.0385 903.85 14.1155C905.275 9.12643 903.315 8.99698 903.315 8.99698Z" fill="#FED09E"/>
<path d="M903.315 8.99706C902.434 -0.333696 895.653 0.11442 895.653 0.11442C888.882 -0.881392 888.436 6.32829 888.436 6.32829L888.298 7.42368C888.693 6.96561 889.129 6.49758 889.614 6.02954C889.614 6.02954 894.732 3.71926 896.742 9.8933H900.513L903.315 8.99706Z" fill="#2D2A2B"/>
<path d="M954.426 129.759L954.574 127.24C954.574 127.24 955.564 121.315 948.536 118.795L947.209 117.909C947.209 117.909 939.992 99.3769 935.716 96.27L931.152 93.4518C931.152 93.4518 927.519 90.0262 926.064 86.7998L926.589 86.4911L925.411 80.7154L924.826 76.4135L921.579 70.6378L920.59 69.164L918.342 59.7237L917.016 57.732L916.57 56.557L916.867 56.9852L918.639 57.2839L918.926 56.6964L919.223 54.0276L917.897 53.0318L917.164 51.5779C918.444 51.5613 919.678 51.0907 920.646 50.2491C921.615 49.4074 922.258 48.2487 922.461 46.9773C920.847 35.1271 913.185 22.8288 913.185 22.8288L909.225 16.8539L907.017 15.3702L905.691 15.5195C905.185 14.9183 904.557 14.4328 903.85 14.0955C905.295 9.11648 903.335 8.97706 903.335 8.97706C902.454 -0.353699 895.673 0.0944156 895.673 0.0944156C888.901 -0.901397 888.456 6.30828 888.456 6.30828L888.317 7.40368C883.368 13.0698 884.486 18.019 884.486 18.019C884.714 18.3576 884.932 18.7061 885.13 19.0746C884.783 21.6689 884.615 24.2841 884.625 26.9017L884.041 30.7555L885.516 36.2424L887.426 40.0962L888.317 44.3184C887.951 48.3017 887.426 51.0601 887.426 51.0601C887.107 51.7909 887.069 52.6155 887.322 53.3724C887.575 54.1294 888.099 54.7642 888.792 55.1529L888.604 57.732L886.397 58.6183C886.397 58.6183 883.16 59.9527 883.595 63.209L883.011 64.8421L878.061 71.6535C878.061 71.6535 874.379 79.7992 875.092 82.0299L878.329 89.1399L877.893 91.5199L878.19 93.5813C878.19 93.5813 886.733 104.107 886.872 106.039C887.008 106.294 887.193 106.52 887.416 106.703C887.639 106.887 887.897 107.023 888.173 107.106C888.449 107.188 888.739 107.215 889.025 107.184C889.312 107.153 889.589 107.065 889.842 106.925L894.405 114.035L897.949 120.707L900.444 125.149C900.444 125.149 904.869 129.301 906.384 124.86C906.884 122.833 906.866 120.713 906.333 118.695C905.8 116.677 904.769 114.828 903.335 113.318L899.207 109.624L898.039 108.13L892.96 96.2799C892.96 96.2799 889 87.2479 887.664 86.3218L886.337 84.1011L888.783 82.5377L889.139 82.6174L890.753 84.1011C890.753 84.1011 898.415 82.4481 901.959 77.5686L906.819 83.2049L906.968 87.0587C909.339 87.9515 911.814 88.5338 914.333 88.7914C915.125 90.8727 916.986 94.0792 921.401 97.5745L924.797 101.13C924.797 101.13 929.648 105.431 929.747 107.104C929.747 107.104 936.963 113.468 938.884 118.208L940.21 118.805L941.091 121.026L944.328 127.997L944.477 130.805L945.803 132.438L946.982 136.142C946.982 136.142 949.635 142.954 955.97 135.545L954.426 129.759Z" stroke="#231F20"/>
<path d="M721.751 35.583C718.001 38.184 714.812 41.5096 712.374 45.3627L705.127 51.733L701.298 53.647L697.03 57.2658L698.1 61.2535L700.869 62.4996L701.938 61.0042L707.256 56.7574L709.176 53.3579L719.172 47.1871L726.889 40.428C726.889 40.428 723.63 36.4005 721.751 35.583Z" fill="#FED09E"/>
<path d="M726.889 40.428C726.889 40.428 723.69 36.4403 721.771 35.5431L721.341 35.8322L720.921 35.1244L726.629 32.5923L733.877 26.4214L738.625 21.9453L744.163 21.3072H750.561L758.228 22.7926L763.346 23.012L775.702 24.4974L780.39 28.7442L782.739 30.0202L785.738 31.5056L788.087 31.715L792.346 36.4005C798.094 44.6848 787.018 43.6281 787.018 43.6281L783.379 42.5614L776.132 45.7415L775.492 48.9316L774.612 55.5212L774.832 68.0524L764.616 72.5285C753.53 79.7462 741.174 77.8321 741.174 77.8321L740.274 73.1267L740.924 64.8324L740.494 61.6423L738.785 49.9485L737.086 44.8543L732.877 43.6281H729.038L725.43 41.7439L726.889 40.428Z" fill="#2E3192"/>
<path d="M749.001 13.0329L749.671 13.4416L751.62 16.6417C753.54 19.6324 762.067 17.6984 762.067 17.6984L763.556 14.5183L765.295 13.9799C765.004 15.1035 764.637 16.2059 764.196 17.2797L763.346 21.1079L762.616 22.9721L758.208 22.7926L751.051 21.4069L751.181 18.5458L749.471 15.7844L749.001 13.0329Z" fill="#FED09E"/>
<path d="M762.027 17.6885C762.027 17.6885 753.5 19.6325 751.62 16.6417L749.711 13.4516L749.041 13.0429L748.432 9.20476C750.771 -4.18376 762.706 5.21712 762.706 5.21712C766.445 6.42338 766.085 10.8696 765.295 14.0298L763.556 14.5681L762.027 17.6885Z" fill="#2D2A2B"/>
<path d="M790.366 29.6015C792.566 34.0976 793.275 36.7793 793.425 38.3644C793.107 37.6668 792.725 36.9995 792.286 36.3706L788.027 31.6851L785.678 31.4757L782.479 26.3715V22.7528L784.828 22.3241L786.528 22.7528L787.807 22.5434L791.426 25.3049C793.345 27.0395 790.366 29.6015 790.366 29.6015Z" fill="#FED09E"/>
<path d="M764.616 72.5285L774.282 68.3016L776.331 70.8238L779.74 73.5853L781.899 82.2983L782.969 86.2859L781.69 87.7713L775.692 86.4953L773.323 90.4131L762.446 94.66L761.177 94.0319V89.3165C761.177 89.3165 757.978 87.1831 757.978 86.5451C757.932 86.027 757.786 85.5227 757.548 85.0597L754.779 87.6118L749.671 87.4224L744.763 85.5183L741.764 79.7761L741.984 77.9617C745.003 78.2109 755.249 78.6097 764.616 72.5285Z" fill="#1B1464"/>
<path d="M782.059 128.625C782.059 128.625 791.006 135.852 786.958 136.909C786.958 136.909 778.651 138.185 773.323 131.177L769.694 130.11C769.694 130.11 766.075 126.93 769.914 122.683V122.175C772.318 122.687 774.649 123.498 776.851 124.587C778.292 126.275 780.064 127.649 782.059 128.625Z" fill="#262324"/>
<path d="M770.763 108.019L770.284 107.022C771.035 105.485 772.15 104.154 773.532 103.144C776.831 101.608 779.081 103.144 780.53 105.048V105.696C780.53 105.696 782.879 111.857 780.11 116.951L776.701 124.398L776.871 124.607C774.669 123.517 772.338 122.707 769.934 122.195L770.514 116.323C770.514 116.323 769.874 109.295 770.763 108.019Z" fill="#F9F9F9"/>
<path d="M773.532 103.124C772.15 104.134 771.035 105.465 770.284 107.002L764.126 93.9721L773.323 90.3732L775.662 86.5451L779.38 87.3426L780.52 105.028C779.08 103.034 776.871 101.589 773.532 103.124Z" fill="#FED09E"/>
<path d="M756.699 117.15C757.519 116.901 758.266 116.454 758.873 115.849C759.479 115.244 759.927 114.5 760.177 113.681C760.467 115.306 761.547 121.985 759.677 123.102C759.677 123.102 753.93 127.349 753.68 120.34L751.54 117.778C750.84 116.641 750.45 115.34 750.409 114.006C750.369 112.671 750.68 111.349 751.31 110.172C752.161 111.449 752.749 112.883 753.04 114.389C753.08 119.064 756.699 117.15 756.699 117.15Z" fill="#262324"/>
<path d="M758.618 94.002L757.978 110.351L758.618 111.637L760.107 113.332C760.114 113.454 760.137 113.575 760.177 113.691C759.927 114.51 759.479 115.254 758.873 115.859C758.266 116.464 757.519 116.911 756.699 117.16C756.699 117.16 753.08 119.074 753.08 114.399C752.789 112.893 752.201 111.459 751.35 110.182C751.35 110.182 746.622 102.735 747.942 96.3946L748.042 93.0749C751.88 100.253 756.429 96.5342 758.618 94.002Z" fill="#F9F9F9"/>
<path d="M746.882 86.3158L749.671 87.4224L754.779 87.6417L757.548 85.0896C757.786 85.5526 757.932 86.0569 757.978 86.575C757.978 86.8841 758.698 87.5221 759.448 88.1003L758.618 93.7727V94.002C756.439 96.5342 751.89 100.253 748.072 93.0051L748.182 89.3165L746.882 86.3158Z" fill="#FED09E"/>
<path d="M701.298 53.6072L705.127 51.6931L712.374 45.3228C714.741 41.6335 717.775 38.4152 721.321 35.8322L720.901 35.1244L726.629 32.5923L733.877 26.4214L738.625 21.9453L744.163 21.3072H750.561L751.071 21.4069L751.201 18.5458L749.491 15.7844L748.432 9.19477C750.771 -4.19375 762.706 5.20712 762.706 5.20712C768.704 7.12119 764.196 17.3196 764.196 17.3196L763.346 21.1477L762.616 22.9721H763.326L775.682 24.4575L780.37 28.7043L782.719 29.9804L785.718 31.4658L782.529 26.3616V22.7528L784.868 22.3241L786.568 22.7528L787.857 22.5434L791.476 25.3049C793.395 26.9996 790.406 29.5517 790.406 29.5517C792.606 34.0478 793.315 36.7295 793.465 38.3145C796.234 44.4655 786.998 43.5882 786.998 43.5882L783.359 42.5614L776.112 45.7415L775.472 48.9316L774.612 55.5212L774.822 68.0524L774.262 68.3016L776.261 70.8238L779.67 73.5853L781.81 82.3381L782.879 86.3258L781.6 87.8112L779.35 87.3327L780.61 105.676C780.61 105.676 782.949 111.837 780.18 116.931L776.771 124.378C778.226 126.154 780.042 127.602 782.099 128.625C782.099 128.625 791.046 135.852 786.998 136.909C786.998 136.909 778.691 138.185 773.363 131.177L769.734 130.11C769.734 130.11 766.115 126.93 769.954 122.683L770.614 116.333C770.614 116.333 769.974 109.354 770.823 108.039L764.186 94.002L762.516 94.65L761.237 94.0219V89.3165C761.237 89.3165 760.357 88.7283 759.518 88.0704L758.618 93.7727L758.008 110.351L758.648 111.637L760.137 113.332C760.137 113.332 761.847 121.836 759.707 123.112C759.707 123.112 753.96 127.359 753.71 120.35L751.62 117.778C750.914 116.635 750.521 115.327 750.483 113.985C750.444 112.642 750.761 111.314 751.4 110.132C751.4 110.132 746.712 102.695 747.992 96.3248L748.202 89.3464L746.922 86.3557L744.793 85.5283L741.794 79.786L742.024 77.9717C741.464 77.9717 741.154 77.872 741.154 77.872L740.304 73.2064L740.944 64.9121L740.514 61.722L738.805 50.0283L737.106 44.934L732.927 43.6281H729.088L725.49 41.7439L719.232 47.207L709.236 53.3779L707.316 56.7773L701.938 61.0441L700.829 62.4996L698.06 61.2136L697 57.2259L701.298 53.6072Z" stroke="black"/>
<path d="M567.894 21.7063L562.921 23.7059C562.921 23.7059 555.343 26.0954 559.241 31.9742L564.393 47.8111V56.4894L563.101 65.1976L564.393 68.6669C564.393 68.6669 568.292 60.4086 584.514 58.0191L589.278 57.5791L596.638 61.4984L597.722 60.6285L593.823 50.6305L592.531 47.1512L590.79 34.7437C590.79 34.7437 587.329 24.0958 582.784 23.8758L581.093 22.1562H578.497C578.497 22.1562 572.877 19.7467 567.894 21.7063Z" fill="#2E3192"/>
<path d="M575.254 34.7537C575.254 34.7537 574.389 31.9342 570.709 34.1138C570.709 34.1138 568.332 35.4135 571.147 39.3328L572.877 41.9423L580.227 43.4919L586.722 41.0924L586.503 39.7927H584.126L584.992 37.1832L584.554 36.3134L582.177 39.3628L580.665 39.1428L582.654 34.5737L580.058 33.4939L577.423 37.2132L575.901 38.083L575.254 34.7537Z" fill="#FED09E"/>
<path d="M599.055 67.6071L596.847 61.3784L596.668 61.5184L589.308 57.5991L584.544 58.039C568.362 60.4286 564.384 68.6869 564.384 68.6869L564.214 68.247L563.946 70.2466L561.788 73.7259L560.922 76.3454L558.118 82.4842L558.764 84.6538C558.764 84.6538 573.484 89.6528 576.508 89.6528L578.029 85.4836L581.013 88.7429C581.013 88.7429 590.541 91.1425 591.834 90.2626L595.296 84.3938C595.296 84.3938 602.516 73.6959 599.055 67.6071Z" fill="#1B1464"/>
<path d="M564.433 56.5093V52.7601L562.056 51.0704H560.107L559.241 49.7707L558.376 51.2904L555.124 52.8101L554.05 54.3398L554.477 56.7293L557.73 54.1198L555.989 57.5991L556.864 58.259L559.023 56.5093L558.804 59.3388L560.972 57.8191L564.165 58.329L564.433 56.5093Z" fill="#FED09E"/>
<path d="M585.28 106.319L585.389 105.9L591.357 90.3826C589.04 90.7225 581.013 88.703 581.013 88.703L578.736 86.2534L578.208 94.5818L577.343 98.501L576.259 103.5C576.209 103.94 576.13 104.38 576.04 104.82L575.961 105.08C577.86 103.16 581.302 100.951 585.28 106.319Z" fill="#FED09E"/>
<path d="M576.04 105.07L574.966 108.869L574.817 109.449C574.608 113.198 573.822 115.638 572.828 117.217L572.221 119.597L568.113 129.155C568.113 129.155 572.798 123.716 574.817 127.915L575.752 129.475L575.901 127.195L577.89 125.016L579.193 122.186C579.193 122.186 586.981 113.488 584.812 108.489L585.36 106.299C581.302 100.951 577.86 103.16 576.04 105.07Z" fill="#F9F9F9"/>
<path d="M568.113 129.155L567.009 134.584C567.009 134.584 574.588 138.283 575.453 133.724L575.732 129.475L574.797 127.915C572.798 123.736 568.113 129.155 568.113 129.155Z" fill="#262324"/>
<path d="M569.257 94.8317L570.252 91.7523L572.788 88.8729C567.377 87.4932 558.784 84.5738 558.784 84.5738C558.784 84.5738 552.946 93.282 556.626 100.231C556.806 100.606 557.026 100.962 557.282 101.29C554.08 88.483 565.776 93.1621 569.257 94.8317Z" fill="#FED09E"/>
<path d="M572.549 97.9911C570.641 100.201 568.93 102.577 567.437 105.09L567.894 105.02C567.894 105.02 562.703 118.287 567.676 120.017C567.676 120.017 574.17 121.316 574.817 109.349L576.12 104.79C576.12 104.79 577.95 96.8713 572.549 97.9911Z" fill="#262324"/>
<path d="M572.221 98.0611L569.237 95.0617L569.297 94.8817C565.816 93.2321 554.109 88.513 557.362 101.34C558.575 102.97 561.619 105.87 567.497 105.14C568.989 102.627 570.7 100.251 572.609 98.0411L572.221 98.0611Z" fill="#F9F9F9"/>
<path d="M576.617 17.1772L575.543 17.2472L569.486 16.6673C568.909 10.5785 566.89 13.4779 566.89 13.4779L564.901 15.4775L561.141 10.8284H559.928C559.987 11.0284 560.057 11.2184 560.137 11.4183L560.355 15.3276L562.345 17.5071L560.176 20.5065L561.907 20.9364L563.628 23.296L568.004 21.6363C571.634 20.2066 575.613 21.0964 577.492 21.6363L576.368 18.4369C576.368 18.4369 576.468 17.977 576.617 17.1772Z" fill="#FED09E"/>
<path d="M564.871 15.5475L566.86 13.5479C566.86 13.5479 568.849 10.6485 569.456 16.7373L575.513 17.3172L576.587 17.2472C577.273 13.7879 578.268 4.09979 568.511 3.03C568.511 3.03 558.157 5.0296 559.868 10.9284H561.042L564.871 15.5475Z" fill="#2D2A2B"/>
<path d="M599.055 67.6071L596.847 61.3784L597.752 60.6485L593.853 50.6505L592.56 47.1712L590.88 34.7637C590.88 34.7637 587.418 24.1158 582.873 23.8958L581.142 22.1762H578.547C578.182 22.0237 577.811 21.8902 577.433 21.7763L576.378 18.4369C576.378 18.4369 580.436 4.29974 568.531 3C568.531 3 557.501 5.17957 560.097 11.4883L560.316 15.3975L562.305 17.5771L560.137 20.6265L561.867 21.0564L563.588 23.4159L562.951 23.6659C562.951 23.6659 555.373 26.0554 559.271 31.9342L564.393 47.8111V52.8101L562.036 51.0704H560.047L559.182 49.7707L558.317 51.2904L555.074 52.8101L554 54.3398L554.428 56.7293L557.76 54.1698L556.019 57.6491L556.894 58.309L559.053 56.5593L558.834 59.3888L561.002 57.8691L564.195 58.379L563.2 65.2676L564.324 68.267L564.055 70.2666L561.897 73.7459L561.042 76.3654L558.187 82.4842L558.834 84.6538C558.834 84.6538 552.995 93.362 556.675 100.311C556.675 100.311 559.49 106.399 567.924 105.1C567.924 105.1 562.733 118.367 567.705 120.097C567.705 120.097 570.739 120.697 572.857 117.277L572.251 119.657L568.113 129.185L567.009 134.584C567.009 134.584 574.588 138.283 575.453 133.724L575.881 127.195L577.87 125.016L579.173 122.186C579.173 122.186 586.961 113.488 584.793 108.489L585.449 105.88L591.417 90.3626C591.586 90.3492 591.75 90.2943 591.894 90.2027L595.355 84.3338C595.355 84.3338 602.516 73.6959 599.055 67.6071ZM577.423 98.481L576.339 103.48C576.607 101.22 576.577 96.9213 572.221 98.0511L569.237 95.0517L570.311 91.7923L572.848 88.9129C574.067 89.2751 575.32 89.5129 576.587 89.6228L578.109 85.4836L578.855 86.2934L578.328 94.6218L577.423 98.481Z" stroke="#231F20"/>
<path d="M432.075 25.9282L442.054 39.3196L445.697 41.1032L448.691 44.2716L448.92 50.8577L447.323 51.3161L446.874 53.3088L445.278 52.4121L444.37 50.3695L440.737 47.191L438.242 41.3124L431.446 35.2345L423.722 27.0641C423.722 27.0641 419.86 22.0822 429.171 22.979L432.075 25.9282Z" fill="#FED09E"/>
<path d="M380.301 78.0789C380.301 77.3914 382.127 70.5861 382.127 70.5861L383.504 68.5933L388.035 67.1486L397.126 69.0019L403.254 69.9086L412.345 68.7727L414.461 66.7799L412.575 73.7546L408.942 77.6206L408.303 79.165C408.303 79.165 408.533 82.7918 408.533 83.4693C408.533 84.1469 405.808 88.4512 405.808 88.4512L404.391 85.9404C403.818 85.1627 403.116 84.4887 402.316 83.9476C401.407 83.4893 398.224 82.3534 398.224 82.3534L396.637 87.5744L395.959 89.8462H389.372L384.622 88.9295L381.438 86.9367H377.367L375.101 86.4784L376.009 84.2166C376.009 84.2166 380.301 78.7963 380.301 78.0789Z" fill="#1B1464"/>
<path d="M372.377 31.5977L376.698 25.0215L383.973 18.6746L390.34 14.1311L394.432 15.4961L400.12 18.4853L406.477 18.7144L409.661 18.2561L414.201 17.5786L417.385 19.8404L421.666 21.1755L427.803 21.863L429.161 22.9889C419.85 22.0822 423.712 27.0741 423.712 27.0741L426.656 30.1928C426.526 30.3721 426.436 30.4718 426.436 30.4718L422.345 29.8042L414.85 30.0234L413.483 38.6521L418.283 45.0289V53.8768L418.512 58.8587L418.063 63.4022L412.375 68.8424L403.254 69.9982L397.126 69.0915L388.035 67.2781L382.356 69.0716V54.1259L382.586 47.769L379.862 45.7762L375.321 47.5896L368.954 49.8614L366.23 46.8722L366 42.787L372.377 31.5977Z" fill="#2E3192"/>
<path d="M403.024 84.4956C403.524 84.9765 403.982 85.4999 404.391 86.0599L405.759 88.5509C405.759 88.5509 406.866 86.8072 407.665 85.3624L410.758 102.849C410.868 102.959 410.968 103.068 411.068 103.188C409.231 103.088 406.846 103.517 406.437 106.247C406.112 106.969 405.731 107.665 405.3 108.329L404.132 101.932C404.132 101.932 398.004 96.0437 398.004 91.9685L396.877 86.857L397.026 86.3987C398.816 85.2324 400.889 84.5745 403.024 84.4956Z" fill="#F9F9F9"/>
<path d="M398.254 82.4231C398.254 82.4231 401.437 83.559 402.346 84.0173C402.586 84.1561 402.813 84.3162 403.024 84.4956C400.894 84.5758 398.825 85.2299 397.036 86.3887L398.254 82.4231Z" fill="#FED09E"/>
<path d="M411.118 103.188C412.116 104.314 415.169 108.17 414.211 112.374L412.395 120.345C412.395 120.345 406.258 125.566 405.13 121.252L405.579 114.676V109.694L405.349 108.369C405.781 107.705 406.162 107.009 406.487 106.286C406.846 103.517 409.231 103.088 411.118 103.188Z" fill="#262324"/>
<path d="M393.334 122.806L394.162 129.422L393.474 134.195C393.474 134.195 385.29 139.366 384.841 132.202L387.336 123.574V123.464C388.723 121.611 389.881 120.176 389.881 120.176C390.779 119.738 392.156 121.242 393.334 122.806Z" fill="#262324"/>
<path d="M392.715 99.1225L392.576 99.6705C392.576 99.6705 392.576 109.634 391.897 115.104L393.254 122.079L393.344 122.727C392.186 121.192 390.779 119.738 389.851 120.047C389.851 120.047 388.694 121.481 387.306 123.335L386.219 120.943C386.219 120.943 379.173 106.655 382.347 99.6207L382.556 98.3354C387.346 94.4495 390.949 97.1098 392.715 99.1225Z" fill="#F9F9F9"/>
<path d="M381.279 86.9367H381.438L384.622 88.9295L389.402 89.8362H395.15L392.745 99.0428C390.979 97.05 387.376 94.3698 382.586 98.3055L383.065 95.3163L381.279 86.9367Z" fill="#FED09E"/>
<path d="M396.667 15.0378H393.035L394.392 15.4961L400.08 18.4853H401.168C401.288 17.8177 401.457 16.8213 401.587 15.6556L400.08 17.2996L396.667 15.0378ZM385.76 12.9952L387.346 16.1936L389.432 14.709L388.225 14.5496L386.867 12.7461L385.73 12.8956L385.76 12.9952ZM390.34 14.1311L389.502 14.7389L391.937 15.0378H393.075L390.34 14.1311Z" fill="#FED09E"/>
<path d="M396.897 4.60578C401.887 4.75523 402.046 11.3413 401.587 15.6557L400.08 17.2997L396.667 15.0279H393.035L390.34 14.1212L389.502 14.729L388.294 14.5696L386.937 12.7661L385.799 12.9156C386.039 0.769706 396.897 4.60578 396.897 4.60578Z" fill="#2D2A2B"/>
<path d="M372.377 31.5977L376.698 25.0215L383.973 18.6746L387.346 16.1936L385.73 12.9653C385.959 0.719781 396.867 4.57578 396.867 4.57578C403.254 4.76509 401.727 15.3267 401.138 18.4554L406.407 18.6447L409.591 18.1864L414.131 17.5088L417.315 19.7706L421.666 21.1755L427.804 21.863L429.161 22.9889L432.155 25.9781L442.134 39.3694L445.777 41.1829L448.771 44.3514L449 50.9374L447.403 51.3958L446.954 53.3885L445.358 52.4918L444.449 50.4492L440.817 47.2708L438.312 41.3622L431.436 35.2444L426.656 30.143C426.526 30.3223 426.436 30.4219 426.436 30.4219L422.345 29.7544L414.85 29.9736L413.483 38.6022L418.283 44.989V53.8369L418.513 58.8188L418.063 63.3623L414.491 66.7799L412.605 73.7546L408.972 77.6206L408.303 79.2048C408.303 79.2048 408.533 82.8316 408.533 83.5092C408.347 84.1461 408.072 84.7534 407.715 85.3126L410.808 102.799C410.808 102.799 415.349 107.333 414.211 112.325L412.395 120.296C412.395 120.296 406.258 125.517 405.13 121.202L405.579 114.626V109.644L404.182 101.932C404.182 101.932 398.054 96.0437 398.054 91.9685L396.927 86.857L396.687 87.6541L395.959 89.9259H395.15L392.606 99.6805C392.606 99.6805 392.606 109.644 391.927 115.114L393.284 122.089L394.202 129.353L393.514 134.125C393.514 134.125 385.33 139.297 384.881 132.133L387.376 123.504L386.249 121.003C386.249 121.003 379.203 106.715 382.377 99.6805L383.065 95.3661L381.359 87.0264H377.367L375.101 86.5681L376.01 84.3063C376.01 84.3063 380.361 78.8561 380.361 78.1785C380.361 77.501 382.187 70.6857 382.187 70.6857L383.564 68.693L382.406 69.0616V54.1159L382.636 47.759L379.912 45.7662L375.371 47.5796L369.004 49.8514L366.28 46.8622L366.05 42.7771L372.377 31.5977Z" stroke="#231F20"/>
<path d="M222.558 33.5468L226.177 31.8088C226.177 31.8088 233.583 33.0274 230.995 36.6733L227.555 38.5812L221.358 43.4357L205.159 49.5188L200.678 51.986L197.059 54.4133H193.966L190.863 53.9038L190 52.1658L192.241 46.7819L200.172 47.1315L207.925 42.4368C207.925 42.4368 219.97 33.7166 222.558 33.5468Z" fill="#FED09E"/>
<path d="M248.91 14.1088L248.394 10.6427C248.057 0.574075 259.766 3.35094 259.766 3.35094C266.706 5.25878 264.416 14.798 264.416 14.798L263.325 20.2918L259.25 18.1043L252.31 18.2741L251.835 17.0255L248.91 14.1088Z" fill="#2D2A2B"/>
<path d="M248.91 14.1088L251.844 17.0555L252.32 18.2741L250.447 18.314L248.91 14.1088Z" fill="#FED09E"/>
<path d="M236.16 38.4113L236.844 35.6345L234.435 37.1927L233.573 39.4502L232.581 41.0184L231.332 38.7709L229.974 37.2427L230.965 36.6833C233.553 33.0374 226.147 31.8188 226.147 31.8188L225.423 32.1684L225.106 31.7788L231.828 26.2251L237.152 19.8123L245.083 18.4239L259.211 18.0743L264.376 20.8512L269.888 24.1475L275.232 27.7933L277.641 31.2694L283.5 41.8475C283.5 43.9351 278.543 46.1826 278.543 46.1826L275.093 42.8963L271.851 42.5467L267.519 43.7653L259.815 58.3688L258.616 61.9747L257.525 67.6983H256.147L242.713 60.5863L230.658 54.7129L227.386 54.8827L231.352 49.5088L236.16 38.4113Z" fill="#2E3192"/>
<path d="M283.421 42.4568L286.118 45.7031L286.98 47.611C286.98 47.611 286.812 52.2957 281.299 50.208L279.574 48.47L279.406 47.4711L278.652 46.1626C279.356 45.833 282.757 44.1648 283.421 42.4568Z" fill="#FED09E"/>
<path d="M224.452 75.1998L223.272 71.7337L224.472 68.4374L227.238 57.6696L229.419 54.7928L230.688 54.7229L242.743 60.6262L256.177 67.7382H257.555V67.6783L258.923 69.676L262.195 75.2297L263.751 78.536C263.751 78.536 264.267 88.4248 246.352 87.376L239.977 79.3851L237.221 80.0843L233.602 82.8611L226.365 82.6813L223.093 81.4727L224.452 75.1998Z" fill="#1B1464"/>
<path d="M237.717 128.48L244.954 117.372L247.195 113.556C247.195 113.556 253.907 99.5023 256.494 97.9441L256.901 96.4158C258.722 96.0043 260.618 96.075 262.404 96.6212C264.19 97.1673 265.805 98.1703 267.092 99.5323L266.488 100.711L266.656 102.109L260.628 110.26L261.144 112.518L249.772 122.906L245.985 128.11L246.739 128.939L242.882 130.427L237.717 128.48Z" fill="#F9F9F9"/>
<path d="M256.901 96.4158L257.188 95.337L252.36 90.4725L248.89 87.4759C261.868 87.4759 263.503 81.0632 263.702 79.1054C265.546 81.7024 270.513 89.4137 269.244 95.387L267.092 99.5822C265.809 98.213 264.196 97.2017 262.41 96.6469C260.624 96.092 258.726 96.0124 256.901 96.4158Z" fill="#FED09E"/>
<path d="M234.098 132.655L235.992 129.179L237.717 128.48L242.882 130.447L246.739 128.969L249.435 131.956L253.054 134.033L254.254 135.941L252.707 136.99H234.961L233.93 135.072L234.098 132.655Z" fill="#262324"/>
<path d="M225.641 93.8387L226.692 93.0796L226.345 87.1862L224.7 82.052L226.345 82.6614L233.583 82.8412L237.201 80.0643L238.47 79.7447C238.55 83.1009 238.401 91.6512 235.129 96.7255L234.782 97.5545C232.056 97.7643 226.772 97.6444 225.641 93.8387Z" fill="#FED09E"/>
<path d="M234.356 122.676L241.236 123.126L237.717 128.53L235.992 129.229L235.337 130.427L232.363 131.656C231.305 132.088 230.21 132.423 229.091 132.655C228.407 132.655 225.651 132.475 225.651 132.475L226.425 126.861C231.481 129.558 233.543 125.543 234.356 122.676Z" fill="#262324"/>
<path d="M226.524 119.11C226.524 119.11 221.696 103.488 223.936 98.8131L224.283 94.8176L225.641 93.8188C226.772 97.6245 232.036 97.7443 234.782 97.5346L234.098 99.1328L233.414 102.429L234.405 104.167L232.056 115.474L233.781 122.586H234.376C233.563 125.503 231.501 129.518 226.444 126.821L226.534 126.192L226.524 119.11Z" fill="#F9F9F9"/>
<path d="M190 52.1259L190.863 53.8639L193.966 54.3733H197.059L200.678 51.986L205.159 49.5588L221.358 43.4756L227.555 38.6211L229.984 37.2726L231.342 38.8009L232.552 40.9984L233.543 39.4302L234.405 37.1728L236.815 35.6145L236.16 38.4114L231.302 49.5188L227.337 54.8927L229.32 54.7929L227.138 57.6696L224.382 68.4374L223.183 71.7337L224.382 75.1998L223.004 81.4527L224.63 82.0521L226.246 87.1863L226.593 93.0796L224.263 94.8176L223.916 98.8131C221.676 103.488 226.504 119.11 226.504 119.11V126.232L225.641 132.475C225.641 132.475 228.397 132.655 229.082 132.655C230.2 132.423 231.295 132.088 232.353 131.656L235.327 130.427L234.148 132.665L233.979 135.082L234.971 137H252.717L254.263 136.001L253.014 134.083L249.396 132.006L245.946 128.19L249.733 122.986L261.104 112.568L260.589 110.31L266.617 102.159L266.448 100.761L269.204 95.387C270.473 89.3938 265.506 81.7025 263.662 79.1054C263.672 78.9224 263.672 78.739 263.662 78.556L262.106 75.2498L258.834 69.696L257.466 67.6983L258.457 62.0347L259.657 58.3888L267.519 43.7653L271.851 42.5467L275.113 42.8963L278.563 46.1826H278.682L279.426 47.4511L279.594 48.45L281.319 50.1881C286.831 52.2757 287 47.591 287 47.591L286.137 45.6831L283.441 42.4368C283.519 42.2538 283.56 42.0567 283.56 41.8575L277.681 31.3493L275.291 27.8333L269.948 24.1874L264.435 20.8911L263.345 20.3018L264.435 14.808C264.435 14.808 266.676 5.26879 259.786 3.36095C259.786 3.36095 248.077 0.584084 248.414 10.6527L248.93 14.1188L250.466 18.324L245.142 18.4639L237.211 19.8523L231.877 26.2651L225.136 31.8288L225.443 32.1784L222.548 33.5668C219.961 33.7366 207.905 42.4168 207.905 42.4168L200.152 47.1115L192.221 46.7619L190 52.1259ZM232.056 115.474L234.465 104.187L233.474 102.449L234.158 99.1528L235.149 96.7255C238.421 91.6512 238.569 83.1009 238.49 79.7447L239.977 79.3651L246.352 87.3561C247.244 87.416 248.097 87.436 248.91 87.436L252.38 90.4326L257.208 95.2971L256.514 97.9042C253.926 99.4624 247.215 113.517 247.215 113.517L244.944 117.372L241.226 123.076L233.751 122.586L232.056 115.474Z" stroke="#231F20"/>
<path d="M96.22 37.6549L99.32 40.1955C99.32 40.1955 103.1 46.4477 102.83 53.3251L103.37 56.1337L107.15 60.4209L109.84 65.383L109.71 66.7128L108.09 65.1051L108.49 68.8564L107.41 69.3923L106.6 67.4075L106.34 69.6801L105.66 69.8091L104.58 66.8319L103.91 68.4595L102.15 68.1816L101.75 64.2119L100.26 62.8722L100.53 66.2166L99.32 66.0975L97.83 62.4752L98.64 58.5949C98.64 58.5949 99.32 51.767 96.22 50.0204L91.36 41.178C91.36 41.178 93.65 36.99 96.22 37.6549Z" fill="#FED09E"/>
<path d="M33.6 60.143L33.19 57.4635L32.79 56.5306L34.27 54.784L36.03 54.387L35.91 53.8511L36.86 53.3152L38.05 54.387L40.48 55.1909L43.86 55.4588L48.31 53.0473L50.58 52.0548L58.91 56.3718C58.5041 57.6368 57.7695 58.7733 56.78 59.6667L54.48 60.2026C52.48 62.6141 40.18 60.4705 40.18 60.4705L36.54 61.7607L35.91 62.6935L35.1 61.4927L32.22 63.6363L31 62.8325L33.6 60.143Z" fill="#FED09E"/>
<path d="M62.91 80.6364L63.59 77.8378L64.8 76.2201L65.61 73.0047L66.56 67.7747L66.34 65.4028L69.91 64.3112L82.05 60.8278L87.05 63.3287L89.73 69.4023C89.73 69.4023 92.73 78.334 87.03 84.2885L86.49 90.0445L85.42 91.9003L83.42 92.5652L79.42 97.3884L78.17 96.8624L80.69 90.8285L72.06 90.0246L69.22 88.9231L66.66 90.114L63.07 90.0147L61.53 89.3101L61.8 83.9511L62.91 80.6364Z" fill="#1B1464"/>
<path d="M52.63 44.7606L51.28 36.4441L55.6 30.569L61.53 23.8702L70.44 19.583L71.52 19.851L78.81 21.4388L83.91 23.0565L92.82 32.7027L97.41 37.7938L96.75 38.1114L96.2 37.6549C93.63 36.99 91.34 41.1283 91.34 41.1283L91.63 41.6742L89.91 43.1429L85.32 38.5977L85.59 49.5738L88.29 61.0858L89.1 64.3112L82.1 60.8278L69.91 64.3112L65.59 65.6509L65.05 61.8996L61.27 53.3351L59.38 56.5505L48.31 50.9136L52.63 44.7606Z" fill="#2E3192"/>
<path d="M77.71 105.993L78 106.27C78 106.27 87 112.433 86.77 118.179L92.7 125.404L95.14 127.548L95.47 127.816L94.26 128.014C94.26 128.014 94.46 135.249 88.39 130.833L85.74 130.912L82.74 127.419C82.74 127.419 71.91 117.068 70.03 114.12C70.4127 112.187 71.3359 110.399 72.694 108.962C74.0521 107.525 75.7904 106.496 77.71 105.993Z" fill="#F9F9F9"/>
<path d="M62.21 90.0147L66.66 90.1537L69.22 88.9231L72.06 89.9849L80.69 90.7888L76.38 101.13V104.613L77.71 105.993C75.7806 106.489 74.0323 107.518 72.6678 108.96C71.3033 110.402 70.3783 112.198 70 114.14C69.5 113.743 63.06 108.553 64.1 105.209L63.15 95.2844L62.21 90.0147Z" fill="#FED09E"/>
<path d="M55.73 90.2926L61.91 83.5243L61.76 83.9908L61.49 89.3498L63.03 90.0544H62.17L63.1 95.205C61.71 96.3761 59.83 99.2541 61.76 105.685L57.45 104.792L53.39 101.169C49.12 96.3165 55.73 90.2926 55.73 90.2926Z" fill="#FED09E"/>
<path d="M87.58 103.68L86.77 101.695L87.49 100.256C89.96 99.8793 95.2 99.4824 95.4 102.767L94.91 112.384L95.32 115.599C95.32 115.599 93.75 121.623 91.62 123.985L86.82 118.15C86.92 115.907 85.62 113.604 83.99 111.63C86.16 110.141 87.58 103.68 87.58 103.68Z" fill="#262324"/>
<path d="M61.8 105.645L63.99 106.092C63.9667 105.773 64.004 105.454 64.1 105.149L63.15 95.2249V95.1455C61.75 96.3364 59.91 99.2144 61.8 105.645ZM77.61 98.2021L76.38 101.13V104.613L78 106.221C79.1069 107.008 80.1654 107.859 81.17 108.771H82.85L84.07 110.657L83.94 111.649C86.16 110.161 87.58 103.71 87.58 103.71L86.77 101.725L87.49 100.286C86.73 100.405 86.23 100.514 86.23 100.514L80.83 99.8495L77.61 98.2021Z" fill="#F9F9F9"/>
<path d="M59.37 16.8936L62.61 20.6548L68.01 19.3051L70.23 16.8936L70.17 17.3005L69.88 19.851L61.53 23.8603L59.86 25.7558L59.24 22.1236L56.41 15.6928L55.37 12.4972L56.67 12.6262L59.37 16.8936Z" fill="#FED09E"/>
<path d="M55.91 5.75868C59.28 -2.67685 68.05 2.67227 68.05 2.67227C73.45 4.15097 70.75 13.5293 70.75 13.5293L70.27 16.8638L68.05 19.2853L62.65 20.6449L59.41 16.8936L56.71 12.6163L55.41 12.4972L55.1 11.5048L55.91 5.75868Z" fill="#2D2A2B"/>
<path d="M94.26 127.985L95.47 127.786C96.56 128.679 99.91 131.597 99.47 133.274L94.91 137.75L93.03 138.742L80.43 139.516C80.43 139.516 77.59 138.99 81.1 137.651L84.74 134.554L85.96 131.071L85.74 130.823L88.39 130.743C94.46 135.219 94.26 127.985 94.26 127.985Z" fill="#262324"/>
<path d="M31.03 62.8325L32.25 63.6364L35.08 61.4928L35.91 62.6936L36.59 61.7607L40.23 60.421C40.23 60.421 52.51 62.5646 54.53 60.153L56.83 59.6171C57.7939 58.7316 58.5105 57.6137 58.91 56.3719L59.34 56.5902L61.23 53.3748L65.01 61.9394L65.55 65.6907L66.28 65.4624L66.5 67.8343L65.58 73.0941L64.77 76.2202L63.56 77.8279L62.91 80.6365L61.91 83.5244L55.69 90.2927C55.69 90.2927 49.08 96.3166 53.39 101.13L57.49 104.802L63.99 106.142C64.18 109.585 69.99 114.17 69.99 114.17C71.88 117.147 82.68 127.439 82.68 127.439L85.91 131.18L84.73 134.574L81.09 137.661C77.58 139 80.42 139.526 80.42 139.526L92.98 138.742L94.91 137.75L99.5 133.324C100.04 131.339 95.19 127.568 95.19 127.568L92.75 125.424L91.62 124.035C93.75 121.673 95.32 115.649 95.32 115.649L94.91 112.384L95.45 102.747C95.18 98.4602 86.28 100.465 86.28 100.465L80.88 99.8L77.66 98.2022L78.22 96.8525L79.4 97.3884L83.4 92.5653L85.4 91.9004L86.48 90.0148L87.02 84.2588C92.68 78.3638 89.72 69.3725 89.72 69.3725L87.04 63.3188L89.04 64.3112L88.25 61.1553L85.55 49.6433L85.28 38.6672L89.91 43.143L91.69 41.6742L96.26 49.9708C99.36 51.7175 98.68 58.5453 98.68 58.5453L97.91 62.4256L99.36 66.0976L100.57 66.2266L100.3 62.8821L101.79 64.2219L102.19 68.1916L103.95 68.4695L104.62 66.8617L105.7 69.839L106.38 69.71L106.64 67.4373L107.45 69.4222L108.53 68.8863L108.13 65.1349L109.75 66.7426L109.88 65.4128L107.19 60.4507L103.37 56.1734L102.83 53.3947C103.1 46.5569 99.32 40.265 99.32 40.265L96.77 38.1809L97.43 37.8634L92.84 32.7723L83.91 23.0565L78.81 21.4389L71.52 19.8312L70.44 19.5632L69.88 19.8312L70.17 17.2906L70.71 13.5393C70.71 13.5393 73.41 4.16096 68.01 2.68226C68.01 2.68226 59.24 -2.66686 55.91 5.75874L55.1 11.5148L56.41 15.6829L59.24 22.1137L59.91 25.7361L55.6 30.5691L51.28 36.4541L52.63 44.7706L48.31 50.9235L50.58 52.0748L48.31 53.0672L43.91 55.4688L40.48 55.181L38.05 54.3871L36.84 53.3053L35.91 53.8413L36.05 54.3772L34.29 54.7741L32.79 56.5208L33.19 57.4536L33.6 60.1332L31.03 62.8325ZM81.17 108.771H82.85L84.07 110.657L83.94 111.649C83.0791 110.633 82.1539 109.672 81.17 108.771Z" stroke="#231F20"/>
</g>
<defs>
<clipPath id="clip0_1_2">
<rect width="1323" height="140" fill="white"/>
</clipPath>
</defs>
</svg>
