<svg xmlns="http://www.w3.org/2000/svg" version="1.1" xmlns:xlink="http://www.w3.org/1999/xlink" width="512" height="512" x="0" y="0" viewBox="0 0 60 60" style="enable-background:new 0 0 512 512" xml:space="preserve" class=""><g><path d="M23 19a4 4 0 1 0 0 8 4 4 0 0 0 0-8zm0 6a2 2 0 1 1 0-4 2 2 0 0 1 0 4z" fill="#8d99cb" opacity="1" data-original="#000000"></path><path d="M59.98 38.9a10.25 10.25 0 0 0-9.538-9.889 10 10 0 0 0-7.248 2.689 1.924 1.924 0 0 0-.131-.17L40.442 29c.28-.81.502-1.641.662-2.484l3.538-.882A1.766 1.766 0 0 0 45.98 24c.01-.34.01-1.68 0-2.052a1.757 1.757 0 0 0-1.337-1.6l-3.543-.877a17.655 17.655 0 0 0-.662-2.484l2.619-2.524c.559-.54.7-1.38.346-2.072a47.346 47.346 0 0 0-1.016-1.77 1.771 1.771 0 0 0-1.965-.732l-3.515 1A18.752 18.752 0 0 0 35.1 9.076l1-3.514a1.774 1.774 0 0 0-.74-1.97 47.6 47.6 0 0 0-1.763-1.012 1.767 1.767 0 0 0-2.07.344L29 5.545c-.81-.28-1.641-.502-2.484-.662l-.883-3.538A1.785 1.785 0 0 0 24 .008c-.34-.01-1.68-.01-2.05 0a1.778 1.778 0 0 0-1.6 1.337l-.881 3.537c-.843.16-1.674.382-2.486.662l-2.524-2.62a1.762 1.762 0 0 0-2.07-.345 47.55 47.55 0 0 0-1.773 1.017 1.774 1.774 0 0 0-.73 1.965l1 3.514a18.538 18.538 0 0 0-1.811 1.811l-3.516-1a1.778 1.778 0 0 0-1.969.74 46.845 46.845 0 0 0-1.013 1.765c-.352.69-.212 1.53.346 2.068l2.62 2.525c-.28.811-.502 1.642-.662 2.485l-3.537.883a1.782 1.782 0 0 0-1.335 1.629C0 22.322 0 23.666.01 24.034a1.778 1.778 0 0 0 1.336 1.6l3.537.882c.16.843.382 1.673.662 2.484l-2.617 2.524A1.764 1.764 0 0 0 2.58 33.6c.169.325.834 1.48 1.018 1.772.425.646 1.22.942 1.964.731l3.515-1c.56.644 1.166 1.25 1.81 1.81l-1 3.518c-.21.747.09 1.544.74 1.967.29.183 1.447.849 1.763 1.011.247.13.521.199.8.2a1.76 1.76 0 0 0 1.27-.539l2.524-2.62c.338.117.676.2 1.015.291V54.61a5.392 5.392 0 0 0 10.126 2.58l3.9-7.148A2 2 0 0 1 33.781 49h10.438a2 2 0 0 1 1.756 1.042l3.9 7.149A5.393 5.393 0 0 0 60 54.61v-15.3c0-.059-.008-.116-.009-.175S60 39.047 60 39s-.017-.066-.02-.1zm-44.318.037-2.514 2.608a62.357 62.357 0 0 1-1.288-.739l.986-3.471a1.745 1.745 0 0 0-.535-1.836 16.561 16.561 0 0 1-1.825-1.826 1.733 1.733 0 0 0-1.809-.536l-3.493.992c-.2-.334-.559-.96-.74-1.288l2.605-2.509c.496-.477.666-1.2.433-1.848-.289-.814-.51-1.65-.664-2.5a1.769 1.769 0 0 0-1.3-1.369L2 23.737v-1.486l3.51-.876a1.779 1.779 0 0 0 1.31-1.4c.152-.84.372-1.667.658-2.472a1.742 1.742 0 0 0-.428-1.845l-2.606-2.51c.183-.331.544-.96.74-1.288l3.469.985a1.745 1.745 0 0 0 1.837-.534 16.594 16.594 0 0 1 1.822-1.823 1.734 1.734 0 0 0 .541-1.812l-.993-3.492c.329-.2.955-.557 1.288-.74l2.509 2.6c.476.496 1.2.666 1.847.434a15.9 15.9 0 0 1 2.5-.664c.668-.134 1.2-.64 1.368-1.3L22.25 2h1.487l.875 3.509a1.784 1.784 0 0 0 1.4 1.312c.84.152 1.665.372 2.469.658a1.747 1.747 0 0 0 1.846-.428l2.514-2.609c.335.184.965.547 1.288.739l-.985 3.471a1.741 1.741 0 0 0 .536 1.836c.653.56 1.261 1.17 1.82 1.825a1.733 1.733 0 0 0 1.812.54l3.488-.993c.2.334.558.96.74 1.288l-2.6 2.508c-.498.476-.67 1.2-.436 1.849.29.814.512 1.65.665 2.5.135.667.64 1.198 1.3 1.366l3.517.877v1.486l-3.51.876a1.786 1.786 0 0 0-1.311 1.4 15.7 15.7 0 0 1-.658 2.47 1.74 1.74 0 0 0 .429 1.846L40.672 32h-5.537a9.944 9.944 0 0 0-4.435-2.631 9.993 9.993 0 1 0-10.279 3.29 10.459 10.459 0 0 0-2.386 6.017c-.174-.055-.348-.107-.521-.168a1.731 1.731 0 0 0-1.852.428zm6.538-7.988a8.022 8.022 0 1 1 6.046-1.933c-.229-.006-.457-.016-.688-.006a9.641 9.641 0 0 0-5.358 1.939zM58 54.61a3.392 3.392 0 0 1-6.37 1.623l-3.9-7.148A4 4 0 0 0 44.219 47H33.781a4 4 0 0 0-3.511 2.085l-3.9 7.147A3.392 3.392 0 0 1 20 54.61v-9.63a10 10 0 0 0 2.443 2.335 1 1 0 0 0 1.114-1.662 7.984 7.984 0 0 1-3.548-6.515 8.237 8.237 0 0 1 7.635-8.13 7.967 7.967 0 0 1 6.31 2.657c.005.005.012.007.017.013a7.992 7.992 0 0 1 1.829 3.544 1 1 0 0 0 1.2.754 1 1 0 0 0 .754-1.2A9.971 9.971 0 0 0 36.639 34h4.722a9.971 9.971 0 0 0-1.114 2.778 1 1 0 1 0 1.951.446 7.992 7.992 0 0 1 1.831-3.544c0-.006.012-.008.017-.013a7.991 7.991 0 0 1 6.309-2.657 8.237 8.237 0 0 1 7.636 8.13 7.984 7.984 0 0 1-3.548 6.515 1 1 0 0 0 1.114 1.662A10 10 0 0 0 58 44.98z" fill="#8d99cb" opacity="1" data-original="#000000"></path><path d="M37 43h-2a1 1 0 0 0 0 2h2a1 1 0 0 0 0-2zM43 43h-2a1 1 0 0 0 0 2h2a1 1 0 0 0 0-2zM32 38h-3v-3a1 1 0 0 0-2 0v3h-3a1 1 0 0 0 0 2h3v3a1 1 0 0 0 2 0v-3h3a1 1 0 0 0 0-2zM50 34a1 1 0 0 0-1 1v1a1 1 0 0 0 2 0v-1a1 1 0 0 0-1-1zM50 41a1 1 0 0 0-1 1v1a1 1 0 0 0 2 0v-1a1 1 0 0 0-1-1zM47 38h-1a1 1 0 0 0 0 2h1a1 1 0 0 0 0-2zM55 39a1 1 0 0 0-1-1h-1a1 1 0 0 0 0 2h1a1 1 0 0 0 1-1zM11.573 26.694a1 1 0 1 0-1.9.612c.118.367.251.727.4 1.08a1 1 0 0 0 1.846-.772c-.13-.301-.245-.608-.346-.92zM16.539 12.886a1 1 0 0 0-1.078-1.686A13.99 13.99 0 0 0 9 22.654a1 1 0 0 0 .976 1.024H10a1 1 0 0 0 1-.975 11.992 11.992 0 0 1 5.539-9.817z" fill="#8d99cb" opacity="1" data-original="#000000"></path></g></svg>