<svg xmlns="http://www.w3.org/2000/svg" version="1.1" xmlns:xlink="http://www.w3.org/1999/xlink" width="512" height="512" x="0" y="0" viewBox="0 0 512 512" style="enable-background:new 0 0 512 512" xml:space="preserve" class=""><g><g data-name="Layer 2"><circle cx="256" cy="256" r="256" fill="#000000" opacity="0.6901960784313725" data-original="#f44336" class=""></circle><path fill="#00eef4" d="M324.61 239.57v-51.65A66.92 66.92 0 0 0 257.69 121h-3.38a66.92 66.92 0 0 0-66.92 66.92v51.65a38.28 38.28 0 0 0-29.79 37.32v75.84A38.27 38.27 0 0 0 195.87 391h120.26a38.27 38.27 0 0 0 38.27-38.27v-75.84a38.28 38.28 0 0 0-29.79-37.32zm-70.3-91.52h3.38a39.92 39.92 0 0 1 39.87 39.87v50.69h-83.12v-50.69a39.92 39.92 0 0 1 39.87-39.87z" opacity="1" data-original="#ffffff" class=""></path></g></g></svg>