<svg xmlns="http://www.w3.org/2000/svg" xmlns:xlink="http://www.w3.org/1999/xlink" width="15" height="15" viewBox="0 0 15 15">
  <defs>
    <clipPath id="clip-path">
      <rect id="Rectangle_1" data-name="Rectangle 1" width="15" height="15" transform="translate(483 489)" fill="#fff" stroke="#707070" stroke-width="1"/>
    </clipPath>
  </defs>
  <g id="Mask_Group_1" data-name="Mask Group 1" transform="translate(-483 -489)" clip-path="url(#clip-path)">
    <g id="engagement" transform="translate(482.764 488.827)">
      <path id="Path_1" data-name="Path 1" d="M7.157,12.24a.213.213,0,0,1-.213-.213.3.3,0,0,0-.053-.1l-.024-.039c-.127-.207-.35-.55-.547-.854s-.38-.585-.436-.682l0-.007a.485.485,0,0,1,.2-.667.518.518,0,0,1,.665.144V8.412A.51.51,0,0,1,7.256,7.9a.553.553,0,0,1,.116.012.509.509,0,0,1,.917-.082.51.51,0,0,1,.658.411.51.51,0,0,1,.6.5v2.228a1.2,1.2,0,0,1-.232.743.5.5,0,0,0-.118.309.213.213,0,1,1-.425,0,.905.905,0,0,1,.187-.542.794.794,0,0,0,.163-.511V8.746a.084.084,0,0,0-.168,0,.213.213,0,1,1-.425,0V8.319a.085.085,0,0,0-.084-.084.084.084,0,0,0-.084.082.213.213,0,1,1-.425,0V8.091a.084.084,0,1,0-.168,0V8.4a.213.213,0,0,1-.424.018c-.01-.1-.064-.1-.085-.1a.085.085,0,0,0-.084.084v2.053a.213.213,0,0,1-.384.126l-.366-.5c-.026-.035-.081-.078-.128-.051-.065.038-.05.075-.038.1.052.09.231.366.421.657s.424.652.553.863l.022.035a.594.594,0,0,1,.118.33.213.213,0,0,1-.213.213Z" fill="#8d99cb" stroke="#707070" stroke-width="0.03"/>
      <path id="Path_2" data-name="Path 2" d="M7.553,9.969a.213.213,0,0,1-.213-.213V8.4a.213.213,0,0,1,.425,0V9.756a.213.213,0,0,1-.213.213Zm.593,0a.213.213,0,0,1-.213-.213V8.317a.213.213,0,0,1,.425,0V9.756a.213.213,0,0,1-.213.213Zm.593.163a.213.213,0,0,1-.213-.213V8.746a.213.213,0,0,1,.425,0V9.919A.213.213,0,0,1,8.74,10.132Z" fill="#8d99cb" stroke="#707070" stroke-width="0.03"/>
      <path id="Path_3" data-name="Path 3" d="M9.221,13.457h-2.3a.431.431,0,0,1-.43-.43v-.691a.431.431,0,0,1,.43-.43h2.3a.431.431,0,0,1,.43.43v.691A.431.431,0,0,1,9.221,13.457Zm-2.3-1.126a.006.006,0,0,0,0,0v.691a.006.006,0,0,0,0,0h2.3a.006.006,0,0,0,0,0v-.691a.006.006,0,0,0,0,0Z" fill="#8d99cb" stroke="#707070" stroke-width="0.03"/>
      <path id="Path_4" data-name="Path 4" d="M5.156,10.524a.486.486,0,0,1-.38-.19l0-.006c-.067-.089-.245-.359-.452-.671s-.426-.644-.565-.842l-.026-.037c-.036-.053-.057-.083-.074-.09a.213.213,0,1,1,.169-.39.594.594,0,0,1,.256.24L4.1,8.57c.142.2.37.548.572.852s.373.564.435.647c.017.02.045.049.105,0s.023-.105,0-.138L4.909,9.4a.213.213,0,0,1,.268-.3l1.215.527a.213.213,0,1,1-.169.39L5.6,9.747a.518.518,0,0,1-.444.777ZM7.615,8.015A.212.212,0,0,1,7.531,8L5.487,7.11a.794.794,0,0,0-.533-.054.905.905,0,0,1-.571-.044.213.213,0,0,1,.169-.39.5.5,0,0,0,.33.015,1.2,1.2,0,0,1,.774.083L7.7,7.608a.213.213,0,0,1-.085.408ZM6.948,9.667a.212.212,0,0,1-.085-.018l-.969-.421a.213.213,0,0,1,.169-.39l.969.421a.213.213,0,0,1-.085.408Zm.011-.642a.212.212,0,0,1-.085-.018l-.744-.323a.213.213,0,1,1,.169-.39l.744.323a.213.213,0,0,1-.085.408Zm.087-.609A.212.212,0,0,1,6.962,8.4l-.744-.323a.213.213,0,0,1,.169-.39l.744.323a.213.213,0,0,1-.085.408Z" fill="#8d99cb" stroke="#707070" stroke-width="0.03"/>
      <path id="Path_5" data-name="Path 5" d="M3.361,9.017a.428.428,0,0,1-.171-.036l-.634-.275a.431.431,0,0,1-.223-.566L3.25,6.029a.431.431,0,0,1,.566-.223l.634.275a.431.431,0,0,1,.223.566L3.756,8.758a.432.432,0,0,1-.4.259ZM3.645,6.2a.006.006,0,0,0,0,0L2.723,8.31a.006.006,0,0,0,0,.006l.634.275a.006.006,0,0,0,.006,0l.917-2.111a.006.006,0,0,0,0-.006L3.646,6.2h0Z" fill="#8d99cb" stroke="#707070" stroke-width="0.03"/>
      <path id="Path_6" data-name="Path 6" d="M10.315,10.524a.519.519,0,0,1-.444-.776l-.453.2a.213.213,0,1,1-.169-.39L10.294,9.1a.213.213,0,0,1,.268.3l-.31.534c-.019.032-.042.1,0,.138s.089.016.105,0c.062-.083.243-.357.435-.647s.429-.649.572-.852l.023-.034a.594.594,0,0,1,.256-.24.213.213,0,1,1,.169.39c-.017.007-.038.037-.074.09l-.026.038c-.139.2-.366.541-.565.843s-.384.581-.452.67l0,.006a.486.486,0,0,1-.38.19ZM7.9,7.995a.213.213,0,0,1-.085-.408l2-.867a1.2,1.2,0,0,1,.774-.083.5.5,0,0,0,.33-.015.213.213,0,0,1,.169.39.9.9,0,0,1-.571.044.794.794,0,0,0-.533.054l-2,.867a.211.211,0,0,1-.085.018Z" fill="#8d99cb" stroke="#707070" stroke-width="0.03"/>
      <path id="Path_7" data-name="Path 7" d="M12.11,9.017a.432.432,0,0,1-.4-.259L10.8,6.647a.431.431,0,0,1,.223-.566l.634-.275a.431.431,0,0,1,.566.223l.917,2.111a.431.431,0,0,1-.223.566l-.634.275a.428.428,0,0,1-.171.036ZM11.826,6.2h0l-.634.275a.006.006,0,0,0,0,.006l.917,2.111a.005.005,0,0,0,.006,0l.634-.275a.006.006,0,0,0,0-.006L11.831,6.2a.006.006,0,0,0,0,0Z" fill="#8d99cb" stroke="#707070" stroke-width="0.03"/>
      <path id="Path_8" data-name="Path 8" d="M8.776,8.309A.213.213,0,0,1,8.69,7.9l.542-.242a.213.213,0,1,1,.173.388l-.542.242a.212.212,0,0,1-.087.019Zm.5.45a.213.213,0,0,1-.086-.407l.451-.2a.213.213,0,1,1,.171.389l-.451.2a.212.212,0,0,1-.086.018Zm.132.571a.213.213,0,0,1-.085-.408l.485-.211a.213.213,0,1,1,.169.39L9.5,9.313a.211.211,0,0,1-.085.018Z" fill="#8d99cb" stroke="#707070" stroke-width="0.03"/>
      <path id="Path_9" data-name="Path 9" d="M7.736,15.173a6.227,6.227,0,0,1-3.6-1.144l.246-.347a5.817,5.817,0,0,0,6.715,0l.246.347a6.228,6.228,0,0,1-3.6,1.146Zm6.038-4.656-.411-.108A5.824,5.824,0,0,0,9.1,3.276l.1-.413A6.27,6.27,0,0,1,12.615,5.04a6.174,6.174,0,0,1,1.362,3.892,6.261,6.261,0,0,1-.2,1.586Zm-12.076,0a6.261,6.261,0,0,1-.2-1.583A6.174,6.174,0,0,1,2.858,5.038,6.269,6.269,0,0,1,6.28,2.861l.1.413a5.824,5.824,0,0,0-4.271,7.133Z" fill="#8d99cb" stroke="#707070" stroke-width="0.03"/>
      <g id="Group_1" data-name="Group 1">
        <path id="Path_10" data-name="Path 10" d="M9.523,4.377H5.953a.213.213,0,0,1-.213-.213,2,2,0,0,1,3.994,0,.213.213,0,0,1-.213.213ZM6.18,3.952H9.3a1.572,1.572,0,0,0-3.116,0Z" fill="#8d99cb" stroke="#707070" stroke-width="0.03"/>
        <path id="Path_11" data-name="Path 11" d="M7.738,2.592a1.21,1.21,0,1,1,1.21-1.21A1.211,1.211,0,0,1,7.738,2.592ZM7.738.6a.785.785,0,1,0,.785.785A.786.786,0,0,0,7.738.6ZM4.267,14.267H.7a.213.213,0,0,1-.213-.213,2,2,0,0,1,3.994,0,.213.213,0,0,1-.213.213ZM.925,13.842H4.04a1.572,1.572,0,0,0-3.116,0Z" fill="#8d99cb" stroke="#707070" stroke-width="0.03"/>
        <path id="Path_12" data-name="Path 12" d="M2.483,12.482a1.21,1.21,0,1,1,1.21-1.21,1.211,1.211,0,0,1-1.21,1.21Zm0-1.994a.785.785,0,1,0,.785.785.786.786,0,0,0-.785-.785Zm12.292,3.783H11.205a.213.213,0,0,1-.213-.213,2,2,0,0,1,3.994,0,.213.213,0,0,1-.213.213Zm-3.342-.425h3.116a1.572,1.572,0,0,0-3.116,0Z" fill="#8d99cb" stroke="#707070" stroke-width="0.03"/>
        <path id="Path_13" data-name="Path 13" d="M12.99,12.486a1.21,1.21,0,1,1,1.21-1.21A1.211,1.211,0,0,1,12.99,12.486Zm0-1.994a.785.785,0,1,0,.785.785A.785.785,0,0,0,12.99,10.492Z" fill="#8d99cb" stroke="#707070" stroke-width="0.03"/>
      </g>
    </g>
  </g>
</svg>
