<svg width="140" height="140" viewBox="0 0 140 140" fill="none" xmlns="http://www.w3.org/2000/svg">
<g clip-path="url(#clip0_12_2)">
<path d="M94.5 49.03C94.4458 47.8299 94.2443 46.641 93.9 45.49C93.81 45.16 93.7 44.83 93.9 44.55C94.1759 44.2144 94.3559 43.8105 94.421 43.381C94.4862 42.9514 94.434 42.5123 94.27 42.11C94.04 41.11 93.71 40.24 93.43 39.3C92.36 35.72 91.2 32.17 89.92 28.65C89.2893 26.8082 87.9706 25.2817 86.24 24.39C83.637 23.0264 80.967 21.7948 78.24 20.7C77.36 20.34 77.34 20.25 78.06 19.65C78.825 19.0387 79.3852 18.2086 79.6657 17.2704C79.9463 16.3323 79.9338 15.3309 79.63 14.4C79.4253 13.8346 79.4253 13.2154 79.63 12.65C79.83 12.03 80.01 11.41 80.19 10.78C80.3193 10.3972 80.3502 9.98794 80.28 9.59C80.0741 8.23382 79.3588 7.00719 78.28 6.16C78.0238 5.99637 77.8274 5.75435 77.72 5.47C77.15 3.64 75.82 2.99 74.01 3.11C73.5285 3.14293 73.0449 3.11606 72.57 3.03H71.82C70.15 3.18 68.52 3.57 66.82 3.83C66.2728 3.92139 65.712 3.88719 65.18 3.73C64.9355 3.62655 64.6686 3.58761 64.4048 3.61691C64.141 3.64621 63.8891 3.74277 63.6733 3.89734C63.4575 4.0519 63.285 4.2593 63.1724 4.49965C63.0598 4.74001 63.0107 5.00526 63.03 5.27C62.9643 6.42524 63.1031 7.58301 63.44 8.69C63.8626 10.0299 63.9281 11.457 63.63 12.83C63.3732 14.9469 63.3263 17.0839 63.49 19.21C63.5165 19.8653 63.6657 20.5098 63.93 21.11C64.26 21.96 64.28 21.98 63.45 22.44C61.18 23.68 59 25.08 56.77 26.37C55.7017 26.9652 54.7772 27.7878 54.0618 28.7797C53.3464 29.7715 52.8576 30.9084 52.63 32.11C52.63 32.25 52.55 32.4 52.52 32.55C51.7777 35.5136 51.2134 38.519 50.83 41.55C50.5354 43.0522 50.3847 44.5792 50.38 46.11C50.4194 46.584 50.3223 47.0594 50.1 47.48C49.2873 48.9828 48.7489 50.6183 48.51 52.31C48.35 53.53 48.12 54.74 47.92 55.95C47.13 60.58 46.17 65.17 45.28 69.78C45.257 70.4777 45.1632 71.1713 45 71.85V72.15C45.125 72.8108 45.125 73.4892 45 74.15V74.45C45.47 74.98 45.25 75.68 45.43 76.29C45.5738 77.332 45.9609 78.3254 46.56 79.19C47.1438 79.7797 47.8577 80.2244 48.6444 80.4883C49.4311 80.7523 50.2687 80.8282 51.09 80.71C52.84 80.58 53.25 79.71 52.74 78.01C52.6999 77.8661 52.6999 77.7139 52.74 77.57C53.2718 75.1646 53.2341 72.6682 52.63 70.28C52.4238 69.664 52.3599 69.0092 52.443 68.3649C52.5261 67.7206 52.7542 67.1035 53.11 66.56C53.6 65.84 53.97 65.04 54.39 64.27C55.93 61.46 57.76 58.79 58.89 55.75C58.9707 55.6736 59.0295 55.5769 59.06 55.47C59.06 55.72 59.18 56.05 59.06 56.36C59.06 57.72 59.06 59.07 58.96 60.43C58.994 61.18 58.9199 61.9311 58.74 62.66C57.15 67.18 56.83 71.91 56.45 76.66C56.408 76.8458 56.4041 77.0381 56.4384 77.2255C56.4728 77.4128 56.5448 77.5912 56.65 77.75C57.27 78.42 57.05 79.18 56.98 79.94C56.98 80.09 56.91 80.24 56.91 80.38C56.91 82.38 56.91 84.29 56.77 86.25C56.62 88.05 56.9 89.85 56.91 91.65C56.9276 92.9035 57.1023 94.1499 57.43 95.36C57.4985 95.7068 57.6576 96.0292 57.8913 96.2944C58.1249 96.5597 58.4247 96.7583 58.76 96.87C59.0445 96.9664 59.2901 97.1523 59.46 97.4C59.8595 97.9809 60.3529 98.4912 60.92 98.91C61.0474 98.9849 61.1491 99.0967 61.2116 99.2306C61.2741 99.3645 61.2944 99.5143 61.27 99.66C61.09 101.25 60.95 102.85 60.71 104.43C60.372 105.999 60.2675 107.61 60.4 109.21C60.8802 112.354 61.6024 115.457 62.56 118.49C63.3116 120.617 63.9065 122.796 64.34 125.01C64.51 126.22 64.49 127.46 64.59 128.68C64.6257 128.867 64.607 129.061 64.5361 129.238C64.4653 129.416 64.3451 129.569 64.19 129.68C63.4052 130.352 62.8755 131.274 62.69 132.29C62.37 133.79 63.02 134.63 64.55 134.63C66.71 134.63 68.87 134.63 71.03 134.63C72.32 134.63 73.14 134.3 73.63 132.57C73.71 132.26 73.77 131.95 73.84 131.63C74.0231 131.862 74.1682 132.122 74.27 132.4C74.97 134.4 75.93 136.18 78.27 136.67C78.38 136.67 78.46 136.74 78.47 136.86H78.77C79.0552 136.77 79.3512 136.72 79.65 136.71C80.0529 136.644 80.4381 136.496 80.782 136.276C81.1259 136.056 81.4213 135.768 81.65 135.43C83.0409 133.34 83.6402 130.822 83.34 128.33C83.15 126.59 82.34 124.95 82.48 123.16C82.4846 123.005 82.4351 122.853 82.34 122.73C81.7654 121.73 81.3472 120.647 81.1 119.52C80.948 119.138 80.9013 118.722 80.9646 118.316C81.0279 117.91 81.199 117.528 81.46 117.21C82.9843 114.98 84.3414 112.64 85.52 110.21C86.4643 108.538 86.8955 106.625 86.76 104.71C86.61 103.56 86.52 102.41 86.33 101.27C86.03 99.46 86.14 99.68 87.44 99.12C87.9307 98.9214 88.3474 98.5749 88.6323 98.1287C88.9172 97.6825 89.0562 97.1587 89.03 96.63C89.03 95.95 88.89 95.28 88.89 94.63C88.89 92.02 88.72 89.42 88.6 86.81C88.48 84.2 88.26 81.31 88.07 78.55C88.0344 78.4177 88.0286 78.2792 88.0528 78.1443C88.077 78.0095 88.1307 77.8817 88.21 77.77C88.4715 77.445 88.6493 77.0608 88.7277 76.6511C88.8062 76.2413 88.7829 75.8186 88.66 75.42C88.22 72.98 87.66 70.54 87.26 68.1C87.17 67.63 87.1 67.25 87.82 67.19C89.0618 67.0944 90.2245 66.5433 91.0846 65.6425C91.9448 64.7417 92.4417 63.5549 92.48 62.31C92.6003 59.9705 92.9861 57.6523 93.63 55.4C94.1327 53.6783 94.4249 51.902 94.5 50.11V49.03ZM59.06 55.37C59.0657 55.3436 59.0657 55.3164 59.06 55.29V55.37ZM74.47 104.86C74.04 107.43 73.69 110 73.47 112.6C73.42 113.29 72.86 113.2 72.47 113.6C72.47 110.34 72.16 107.27 72.08 104.19C72.12 103.093 72.1 101.995 72.02 100.9C71.94 100.29 72.11 100.1 72.84 100.17C74.1 100.3 74.47 100.99 74.77 102.08C74.8938 103.017 74.7909 103.971 74.47 104.86ZM85.28 56.56C85.2431 54.4908 85.36 52.4218 85.63 50.37C85.889 50.9616 86.0087 51.6048 85.98 52.25C86.13 53.25 86.26 54.25 86.45 55.25C86.64 56.25 85.73 56.05 85.28 56.56Z" fill="#2C292A"/>
<path d="M74.08 3C74.089 3.03949 74.089 3.08051 74.08 3.12C73.57 3.12 73.08 3.32 72.54 3H74.08Z" fill="#595959"/>
<path d="M94.45 48.96H94.57V50.17H94.45V48.96Z" fill="#E6E6E6"/>
<path d="M58.87 55.75L59.05 55.1C59.1949 55.5075 59.1949 55.9525 59.05 56.36C58.94 56.17 59.13 55.9 58.87 55.75Z" fill="#787878"/>
<path d="M52.96 45.66C52.61 45.46 52.17 46.12 51.96 45.66C51.82 45.38 52.02 44.93 52.06 44.56C52.56 40.5133 53.26 36.5133 54.16 32.56C54.75 29.92 56.47 28.4 58.63 27.14C61 25.77 63.3 24.29 65.75 23.08C65.8045 23.0518 65.8524 23.0121 65.8903 22.9638C65.9283 22.9155 65.9554 22.8597 65.97 22.8C67.1783 23.2761 68.5005 23.3839 69.77 23.11C71.6696 22.9669 73.5404 22.5631 75.33 21.91C75.58 21.84 75.56 21.44 75.88 21.44L80.49 23.44C82.247 24.1654 83.9629 24.9867 85.63 25.9C86.875 26.5655 87.8323 27.6651 88.32 28.99C90.02 33.52 91.39 38.16 92.8 42.78C92.8708 42.9264 92.8823 43.0946 92.832 43.2493C92.7816 43.404 92.6734 43.5333 92.53 43.61C92.28 43.78 92.05 43.96 91.81 44.14C91.7477 44.2757 91.6512 44.3929 91.53 44.48C90.2221 45.2891 88.8177 45.9308 87.35 46.39C87.1784 46.425 87.0015 46.425 86.83 46.39C86.5059 46.2928 86.1644 46.2689 85.83 46.32C85.22 46 85.35 45.2 84.83 44.73C84.5957 45.2081 84.4889 45.7385 84.52 46.27C84.0987 49.6505 83.8816 53.0534 83.87 56.46C84.0311 59.1098 84.409 61.7419 85 64.33C85.69 68.12 86.39 71.91 87.18 75.68C87.38 76.68 86.67 76.43 86.26 76.68C85.9287 76.9058 85.5406 77.034 85.14 77.05C80.7936 77.8367 76.4068 78.3808 72 78.68C68.0301 79.0739 64.0239 78.8818 60.11 78.11C59.5323 78.0568 58.9863 77.8223 58.55 77.44C58.4271 77.4235 58.3089 77.3817 58.2029 77.3173C58.097 77.253 58.0054 77.1674 57.9341 77.066C57.8627 76.9646 57.8131 76.8495 57.7883 76.7281C57.7635 76.6066 57.764 76.4813 57.79 76.36C58.07 73.7 58.24 71.03 58.69 68.36C58.9605 66.5795 59.4094 64.8307 60.03 63.14C60.2821 62.2465 60.3769 61.316 60.31 60.39C60.38 57.54 60.39 54.68 60.31 51.83C60.3863 50.7807 60.2115 49.7283 59.8 48.76C58.926 47.811 57.87 47.0476 56.6949 46.515C55.5199 45.9824 54.2497 45.6917 52.96 45.66Z" fill="#2E3192"/>
<path d="M58.55 77.45C60.8757 78.1229 63.2794 78.4893 65.7 78.54C68.6136 78.6169 71.5292 78.5134 74.43 78.23C78.29 77.95 82.1 77.35 85.91 76.7C86.0329 76.685 86.1571 76.685 86.28 76.7C86.51 78.48 86.63 80.27 86.74 82.07C86.93 85.07 87.14 88.07 87.31 91.07C87.37 92.17 87.31 93.27 87.31 94.38C87.2884 95.0051 87.3218 95.6308 87.41 96.25C87.4567 96.3938 87.4728 96.5457 87.4571 96.6961C87.4415 96.8464 87.3944 96.9918 87.319 97.1229C87.2436 97.2539 87.1415 97.3676 87.0194 97.4567C86.8972 97.5458 86.7578 97.6082 86.61 97.64C86.03 97.82 85.49 98.07 84.92 98.25C84.56 98.37 84.35 98.54 84.39 98.94C84.2083 98.8393 84.007 98.7792 83.7998 98.7636C83.5927 98.7481 83.3847 98.7776 83.19 98.85C80.5546 99.3532 77.8618 99.4844 75.19 99.24C74.28 99.05 73.38 98.85 72.47 98.69C71.8 98.56 71.24 98.39 71.39 97.51C71.39 97.36 71.31 97.18 71.26 97.01C71.21 96.84 71.26 96.37 71.34 96.14C71.15 96.28 71.4 96.66 71.12 96.85C71.0248 96.8491 70.9313 96.8749 70.85 96.9243C70.7687 96.9738 70.7029 97.0451 70.66 97.13C70.5278 97.3186 70.3842 97.4989 70.23 97.67C68.3143 98.7145 66.1341 99.1735 63.96 98.99C63.4891 98.9262 63.0401 98.7514 62.65 98.48C61.6408 97.8352 60.7705 96.9955 60.09 96.01C60.0543 95.9403 59.9935 95.8867 59.92 95.86C58.33 95.54 58.46 94.19 58.35 93.08C58.1066 89.3551 58.0532 85.6203 58.19 81.89C58.28 80.44 58.45 78.94 58.55 77.45Z" fill="#1B1464"/>
<path d="M71.63 123.76C71.83 125.16 72.01 126.58 72.35 127.96C72.3847 128.182 72.3847 128.408 72.35 128.63C72.35 129.04 71.89 129.08 71.62 129.18C71.35 129.28 71.4 128.93 71.33 128.76C70.94 127.83 70.41 127.56 69.33 127.83C68.8483 127.963 68.3567 128.056 67.86 128.11C67.03 128.18 66.79 128.61 67.06 129.39C67.16 129.68 67.32 129.99 67.06 130.24C66.8 130.49 66.63 130.33 66.42 130.24C66.2597 130.201 66.1176 130.108 66.0175 129.977C65.9174 129.846 65.8653 129.685 65.87 129.52C65.87 128.52 65.67 127.47 65.7 126.44C65.7188 124.935 65.5338 123.435 65.15 121.98C64.92 121.04 64.38 120.16 64.08 119.2C62.9859 115.874 62.1731 112.462 61.65 109C61.505 108.035 61.505 107.055 61.65 106.09C61.91 104.58 62.07 103.09 62.27 101.55C62.27 101.34 62.27 101.09 62.44 100.93C62.6205 100.797 62.8362 100.721 63.06 100.71C65.2508 100.473 67.4633 100.527 69.64 100.87C69.9395 100.897 70.2213 101.024 70.44 101.23C70.56 104.02 70.67 106.81 70.8 109.59C70.92 111.89 70.92 114.18 70.8 116.48C70.7011 118.644 70.8792 120.811 71.33 122.93C71.68 123.2 71.51 123.5 71.63 123.76Z" fill="#FEFEFE"/>
<path d="M52.96 45.66C53.8158 45.4374 54.7217 45.5114 55.53 45.87C57.0833 46.3287 58.4943 47.1753 59.63 48.33C59.6964 48.3879 59.7482 48.4606 59.7812 48.5423C59.8142 48.6239 59.8275 48.7122 59.82 48.8C59.2982 49.7323 58.9397 50.7469 58.76 51.8C57.9484 54.5271 56.8313 57.1537 55.43 59.63C53.8456 62.1939 52.3937 64.8374 51.08 67.55C50.8731 68.2006 50.8731 68.8994 51.08 69.55C51.23 70.84 51.58 72.1 51.77 73.39C51.808 74.3113 51.7409 75.2339 51.57 76.14C51.5268 76.7291 51.4092 77.3104 51.22 77.87C51.1628 78.0103 51.1513 78.1651 51.1872 78.3124C51.2232 78.4596 51.3046 78.5918 51.42 78.69C51.81 79.03 51.66 79.2 51.21 79.31C50.3141 79.526 49.3692 79.382 48.5783 78.9089C47.7874 78.4359 47.2135 77.6715 46.98 76.78C46.4361 74.5944 46.395 72.3138 46.86 70.11C47.5 66.8 48.26 63.52 48.77 60.18C49.09 58.09 49.59 56.03 49.92 53.94C50.0479 52.7186 50.2822 51.5107 50.62 50.33C51.0889 48.9451 51.7668 47.6401 52.63 46.46C52.7414 46.3599 52.8289 46.236 52.886 46.0975C52.9431 45.9591 52.9684 45.8095 52.96 45.66Z" fill="#FDCF9D"/>
<path d="M84.63 101.11C84.89 101.31 84.8 101.62 84.83 101.88C84.97 102.88 85.07 103.96 85.21 105C85.3091 106.436 84.9821 107.869 84.27 109.12C82.8796 111.977 81.2854 114.731 79.5 117.36C79.25 117.75 79.09 117.68 78.88 117.36C78.2225 116.239 77.3408 115.265 76.29 114.5C76.0226 114.272 75.7086 114.105 75.37 114.01C74.76 113.92 74.67 113.66 74.74 113.08C75.0142 109.723 75.5323 106.391 76.29 103.11C76.46 102.47 75.88 101.93 76.02 101.29C76.1902 100.9 76.4549 100.559 76.7901 100.297C77.1253 100.035 77.5205 99.8608 77.94 99.79C79.93 99.4346 81.9804 99.6675 83.84 100.46C84.1497 100.613 84.4201 100.836 84.63 101.11Z" fill="#FEFEFE"/>
<path d="M86.91 46.28C88.3951 45.9172 89.8152 45.3268 91.12 44.53C91.37 44.41 91.61 44.27 91.85 44.14C92.15 45.46 92.49 46.76 92.85 48.05C93.1288 49.3308 93.0841 50.6608 92.72 51.92C92.27 54.15 91.62 56.35 91.18 58.58C91.064 59.6194 91.0039 60.6642 91 61.71C90.993 62.5629 90.7095 63.3906 90.192 64.0686C89.6745 64.7466 88.9509 65.2384 88.13 65.47C87.45 65.72 86.81 65.3 86.13 65.47C85.86 65.53 85.57 64.78 85.59 64.28C85.59 64.16 85.74 64.01 85.7 63.94C85.09 62.76 86.07 62.11 86.54 61.29C86.67 61.06 86.89 60.89 86.93 60.59C86.97 60.29 87.25 59.95 86.85 59.73C86.45 59.51 86.29 59.73 86.08 60.01C85.87 60.29 85.63 60.48 85.39 60.71C85.31 60.79 85.23 60.92 85.08 60.87C84.93 60.82 84.95 60.6 84.97 60.48C85.28 58.99 85.78 57.59 87.33 56.97C88.02 56.7 88.05 56.26 87.94 55.69C87.63 54.02 87.43 52.33 87.19 50.69C86.99 49.32 87.35 47.9 86.76 46.57C86.7492 46.5412 86.7445 46.5104 86.7463 46.4797C86.7482 46.449 86.7564 46.419 86.7705 46.3917C86.7847 46.3644 86.8044 46.3403 86.8284 46.3211C86.8524 46.3018 86.8802 46.2878 86.91 46.28Z" fill="#FDCF9D"/>
<path d="M75.63 21.96C73.9926 22.5811 72.2817 22.9878 70.54 23.17C69.5232 23.3132 68.4967 23.3768 67.47 23.36C66.88 23.36 66.32 23.36 66 22.73C66.46 21.68 65.54 20.96 65.35 20.07C64.9702 17.9639 64.9195 15.8116 65.2 13.69C65.2 13.47 65.2 13.25 65.2 12.86C65.36 13.27 65.33 13.7 65.7 13.73C66.49 13.79 66.7 14.43 66.93 14.97C67.257 15.6379 67.441 16.3668 67.47 17.11C67.4542 17.4769 67.5591 17.8388 67.7686 18.1404C67.9781 18.442 68.2807 18.6667 68.63 18.78C69.8558 19.345 71.1736 19.6838 72.52 19.78C73.2435 19.843 73.971 19.7154 74.63 19.41C75.8 19.05 75.78 19.05 75.81 20.27C75.8256 20.8388 75.7651 21.4072 75.63 21.96Z" fill="#FDCF9D"/>
<path d="M70.6299 101.25C67.9859 100.82 65.2988 100.72 62.6299 100.95C62.6015 100.137 62.6484 99.3239 62.7699 98.52C63.7079 98.7557 64.6729 98.8666 65.6399 98.85C67.2772 98.7045 68.8721 98.2498 70.3399 97.51C70.3671 97.4766 70.4014 97.4496 70.4404 97.4311C70.4793 97.4126 70.5218 97.403 70.5649 97.403C70.6081 97.403 70.6506 97.4126 70.6895 97.4311C70.7285 97.4496 70.7628 97.4766 70.7899 97.51C70.8111 98.7587 70.7577 100.008 70.6299 101.25Z" fill="#FDCF9D"/>
<path d="M84.63 101.11C82.6635 100.042 80.4075 99.6283 78.19 99.93C77.19 99.99 76.73 100.85 75.99 101.3C75.74 100.63 75.49 99.97 75.25 99.3C75.46 99.01 75.76 99.16 76.01 99.16C78.5726 99.3128 81.1441 99.1075 83.65 98.55C84.09 98.43 84.34 98.55 84.41 99C84.5337 99.6972 84.6072 100.402 84.63 101.11Z" fill="#FDCF9D"/>
<path d="M75.63 21.96C75.63 21.31 75.81 20.68 75.8 20.03C75.79 19.38 75.63 19.12 74.98 19.4C74.881 19.4202 74.779 19.4202 74.68 19.4C76.14 19.03 76.54 17.81 76.89 16.57C77.09 15.87 77.27 15.17 77.45 14.47C77.56 14.32 77.45 13.91 77.88 14.15C78.31 14.9232 78.4348 15.8293 78.23 16.69C78.0842 17.1446 77.849 17.5655 77.5382 17.9279C77.2273 18.2902 76.8471 18.5868 76.42 18.8C76.07 18.99 75.9 19.16 75.93 19.57C75.93 20.16 75.93 20.76 75.93 21.36C75.63 21.5 75.9 21.87 75.63 21.96Z" fill="#FDCF9D"/>
<path d="M71.21 96.89C71.27 96.62 71.08 96.29 71.47 96.06C71.47 96.43 71.64 96.76 71.35 97.06L71.21 96.89Z" fill="#2C266C"/>
<path d="M71.63 123.76C71.5231 123.504 71.4785 123.226 71.5 122.95H72.5C72.14 123.11 71.54 123.02 71.63 123.76Z" fill="#1E2016"/>
<path d="M77.84 14.16C77.55 14.06 77.54 14.35 77.41 14.48C77.4114 14.0596 77.5291 13.6477 77.75 13.29C77.89 13.62 77.63 13.93 77.84 14.16Z" fill="#2C2620"/>
<path d="M86.91 46.28L86.72 46.51L85.83 46.35C86.1756 46.2225 86.5508 46.1981 86.91 46.28Z" fill="#8679A2"/>
<path d="M70.76 97.5H70.31C70.3376 97.4039 70.3952 97.3191 70.4743 97.2579C70.5535 97.1968 70.65 97.1625 70.75 97.16C70.75 97.28 70.75 97.39 70.76 97.5Z" fill="#1E1928"/>
<path d="M50.28 77.39C50.0671 77.3278 49.8718 77.2166 49.7097 77.0653C49.5476 76.914 49.4231 76.7269 49.3464 76.5188C49.2696 76.3108 49.2426 76.0877 49.2675 75.8674C49.2924 75.647 49.3686 75.4356 49.49 75.25C49.55 75.15 49.65 75.02 49.74 75C49.83 74.98 49.93 75.13 49.95 75.25C49.9549 75.2999 49.9549 75.3501 49.95 75.4C50.06 76.04 50.17 76.67 50.28 77.39Z" fill="#FDF9F2"/>
</g>
<defs>
<clipPath id="clip0_12_2">
<rect width="140" height="140" fill="white"/>
</clipPath>
</defs>
</svg>
