<svg xmlns="http://www.w3.org/2000/svg" version="1.1" xmlns:xlink="http://www.w3.org/1999/xlink" width="512" height="512" x="0" y="0" viewBox="0 0 48 48" style="enable-background:new 0 0 512 512" xml:space="preserve" fill-rule="evenodd" class=""><g><path fill="#ffffff" d="M10.356 21.62a6.657 6.657 0 1 1 7.405-11.006.999.999 0 0 1 .261 1.24 6.827 6.827 0 0 0-.767 3.155c0 1.507.487 2.9 1.311 4.033a1 1 0 0 1-.072 1.267 6.724 6.724 0 0 1-1.669 1.315c.047.018.096.035.137.047l.01.003a11.544 11.544 0 0 1 3.732 1.93.998.998 0 0 1-.223 1.712c-.118.05-.24.094-.369.132a13.727 13.727 0 0 0-9.175 9.303 1 1 0 0 1-1.044.721c-2.592-.216-4.894-.676-6.314-1.343a.999.999 0 0 1-.116-.063 2.955 2.955 0 0 1-1.335-2.859c.58-4.534 3.812-8.238 8.086-9.54l.01-.003c.04-.012.086-.028.132-.045zm7.48 2.539a9.537 9.537 0 0 0-1.444-.57c-1.064-.313-1.677-.821-1.677-1.933v-.608c0-.407.247-.774.625-.928a4.657 4.657 0 0 0 1.12-.648 8.82 8.82 0 0 1-1.206-4.463c0-1.153.22-2.254.62-3.265a4.658 4.658 0 0 0-6.935 4.059 4.66 4.66 0 0 0 2.91 4.317c.383.156.63.529.625.941l-.008.605c-.004 1.102-.612 1.604-1.67 1.916-3.531 1.076-6.204 4.132-6.683 7.878a.954.954 0 0 0 .385.89c1.12.507 2.827.85 4.769 1.053a15.748 15.748 0 0 1 8.569-9.244zm13.534-2.54a6.694 6.694 0 0 1-1.641-1.288 1 1 0 0 1-.073-1.273 6.83 6.83 0 0 0 1.322-4.05c0-1.143-.279-2.221-.774-3.169a1 1 0 0 1 .263-1.246 6.631 6.631 0 0 1 4.141-1.446 6.658 6.658 0 0 1 3.23 12.477c.048.018.097.035.138.047l.009.003c4.274 1.294 7.506 4.993 8.122 9.52l.001.008a2.986 2.986 0 0 1-1.349 2.893.977.977 0 0 1-.123.068c-1.417.65-3.705 1.101-6.279 1.313a1 1 0 0 1-1.042-.718 13.752 13.752 0 0 0-9.196-9.3 3.558 3.558 0 0 1-.41-.149 1.002 1.002 0 0 1-.212-1.706 11.549 11.549 0 0 1 3.73-1.936c.004 0 .008-.002.01-.003.04-.012.087-.028.133-.045zm-1.003 2.534a15.777 15.777 0 0 1 8.616 9.255c1.928-.199 3.624-.535 4.747-1.032a.989.989 0 0 0 .394-.917 9.604 9.604 0 0 0-6.718-7.87c-1.065-.313-1.677-.821-1.677-1.933v-.608c0-.407.247-.774.624-.928a4.66 4.66 0 0 0 2.91-4.317 4.658 4.658 0 0 0-6.91-4.073 8.836 8.836 0 0 1 .626 3.279 8.814 8.814 0 0 1-1.215 4.48c.334.257.703.471 1.1.631.38.156.629.529.624.941l-.008.605c-.004 1.102-.613 1.604-1.671 1.916-.5.152-.98.343-1.442.571z" opacity="1" data-original="#3b3b3b" class=""></path><path fill="#ffffff" d="M20.066 22.785a8.864 8.864 0 0 1-4.898-7.926c0-4.89 3.97-8.86 8.86-8.86s8.86 3.97 8.86 8.86c0 3.47-1.999 6.478-4.908 7.93.035.317.298.505.62.6l.008.001c6.001 1.817 10.486 7.13 11.09 13.565v.01a2.99 2.99 0 0 1-1.183 2.643.908.908 0 0 1-.104.069c-2.656 1.522-8.515 2.334-14.38 2.331-5.868-.003-11.725-.822-14.373-2.356a.965.965 0 0 1-.099-.065 2.966 2.966 0 0 1-1.173-2.62l.001-.005c.574-6.438 5.058-11.754 11.057-13.58a.048.048 0 0 1 .011-.005c.317-.092.58-.279.611-.592zm-9.346 15.17.003.002c2.49 1.4 7.902 2.048 13.308 2.051s10.825-.642 13.328-2.035a.99.99 0 0 0 .346-.836c-.529-5.613-4.441-10.247-9.676-11.832-1.242-.367-2.053-1.29-2.053-2.586v-.572a1 1 0 0 1 .625-.927 6.866 6.866 0 0 0 4.287-6.361c0-3.786-3.074-6.86-6.86-6.86s-6.86 3.074-6.86 6.86a6.866 6.866 0 0 0 4.288 6.36c.384.157.633.533.625.948 0 0-.012.565-.01.565-.007 1.285-.812 2.199-2.046 2.563-5.231 1.594-9.143 6.227-9.645 11.842a.964.964 0 0 0 .34.818z" opacity="1" data-original="#5095d4" class=""></path></g></svg>