<svg xmlns="http://www.w3.org/2000/svg" version="1.1" xmlns:xlink="http://www.w3.org/1999/xlink" width="512" height="512" x="0" y="0" viewBox="0 0 480.001 480.001" style="enable-background:new 0 0 512 512" xml:space="preserve" class=""><g><path d="M273.375.001c-17.06.082-29.345 8.145-39.094 15.375-11.066 8.34-20.766 16.525-29.641 24.609H23.985C10.827 39.985 0 50.859 0 64.016V208c0 13.158 10.827 23.969 23.984 23.969h272c13.158 0 24.047-10.811 24.047-23.969v-48.016H344c6.387.832 35.304-10.29 47.297-13.812 4.813-1.444 9.352-2.188 8.688-2.188a8.001 8.001 0 0 0 8.031 8.031h63.953a8 8 0 0 0 8.031-8.031V16.032a8 8 0 0 0-8.031-8.047h-63.953A8.002 8.002 0 0 0 400 15.594L280.985.485a57.458 57.458 0 0 0-7.61-.484zm.297 16.093c1.67-.012 3.429.063 5.312.219l121 15.422v96.234c-4.666 0-8.094 1.288-13.281 2.844-16.234 5.191-39.009 12.919-42.703 13.172h-64.016c-4.57 0-7.969-3.399-7.969-7.969s3.398-8.047 7.969-8.047H328a7.996 7.996 0 0 0 8.031-7.969 7.998 7.998 0 0 0-8.031-8.031h-7.969V64.016c0-13.158-10.889-24.031-24.047-24.031h-67c4.716-3.917 9.628-7.87 14.922-11.859 11.006-7.789 18.076-11.948 29.766-12.032zm142.313 7.907H464v112.016h-48.016V24.001zm-392 31.984h16.031a23.96 23.96 0 0 1-24 24.047V64.016c0-4.57 3.398-8.031 7.969-8.031zm32.031 0c77.93.04 137.022 0 207.969 0 0 21.997 18.035 40.047 40.031 40.047v15.938h-24.031c-13.158 0-23.969 10.89-23.969 24.047s10.811 23.969 23.969 23.969h24.031v16c-21.997 0-40.031 18.05-40.031 40.047H56.016c0-21.981-18.025-40.021-40-40.047V96.032c21.975-.026 40-18.066 40-40.047zm223.969 0h16c4.57 0 8.031 3.461 8.031 8.031v16.016c-13.35 0-24.031-10.697-24.031-24.047zm-120 32.031c-26.415 0-48.016 21.586-48.016 48s21.601 48 48.016 48 48.016-21.586 48.016-48-21.601-48-48.016-48zm0 16c17.768 0 32 14.233 32 32s-14.232 32-32 32-32.016-14.233-32.016-32 14.248-32 32.016-32zm280.015 0c-4.418 0-8 3.566-8 7.984a8 8 0 0 0 16 0c0-4.418-3.581-7.984-8-7.984zM16.016 191.985a23.96 23.96 0 0 1 24 24.047H23.985c-4.57 0-7.969-3.461-7.969-8.031zm288 0v16.016c0 4.57-3.461 8.031-8.031 8.031h-16c0-13.35 10.681-24.047 24.031-24.047zm135.891 0a7.998 7.998 0 0 0-6.312 3.203 8 8 0 0 0 1.594 11.156l12.875 9.688H360a8 8 0 0 0-8.031 7.969A8.001 8.001 0 0 0 360 231.97h111.969c7.624-.03 10.888-9.697 4.844-14.344l-32-24.031a7.992 7.992 0 0 0-4.906-1.61zM360 247.922c-7.686.012-10.935 9.801-4.781 14.406l32 24.031a8 8 0 0 0 11.156-1.594 8 8 0 0 0-1.594-11.219l-12.812-9.625h87.938a8 8 0 0 0 0-16H360zm-128.859 72.079c-28.024.066-57.337.018-79.312 0-16.111-.822-48.873 23.092-63.828 24h-7.969a8.002 8.002 0 0 0-8.047-7.969H7.969A8.001 8.001 0 0 0 0 344.001V471.97a8 8 0 0 0 7.969 8.031h64.016a8 8 0 0 0 8.047-8.031H88c38.058 1.889 73.215 7.815 112.031 8.031 13.534 0 29.012-7.421 47.125-17.594 18.113-10.172 38.133-23.56 56.859-36.906 23.913-17.001 47.279-34.987 69.922-53.453 9.811-8.443 16.529-20.659 11.875-35.078-2.447-7.81-8.939-13.106-15.656-15.172s-13.741-1.682-20.312.172l-90.766 25.406c-.335-15.082-12.755-27.412-27.937-27.375zm0 39.984h-63.109a8 8 0 0 0-8.031 7.969 8 8 0 0 0 8.031 8.031h63.109c8.544 0 16.147-3.988 21.297-10.094l101.719-28.5c7.905-2.169 14.911-.672 16.359 4.359 1.929 6.952-.1 12.16-7.031 18.164-.121.123-31.966 26.337-68.797 52.586-18.451 13.15-38.12 26.269-55.391 35.969C222.026 458.168 206.5 464 200.031 464c-38.851-1.092-76.26-5.97-112.031-7.969h-7.969V360H88c17.542.209 50.65-23.472 63.828-24 22.063.021 51.319.066 79.312 0 6.768-.016 12 5.217 12 11.984-.065 7.673-6.285 12.07-11.999 12.001zm-215.125-8.016h48V464h-48zM40 368.001a8 8 0 1 0 0 16 8 8 0 0 0 0-16z" fill="#ffffff" opacity="1" data-original="#000000" class=""></path></g></svg>