<svg xmlns="http://www.w3.org/2000/svg" version="1.1" xmlns:xlink="http://www.w3.org/1999/xlink" width="512" height="512" x="0" y="0" viewBox="0 0 512 512" style="enable-background:new 0 0 512 512" xml:space="preserve"><g><path d="M275.989 435.862V272.849h-39.978v162.238l-53.828-53.828-28.268 28.268L256.388 512l102.474-102.473-28.268-28.268zM68.104 175.902h263.854v39.978H68.104z" fill="#8d99cb" opacity="1" data-original="#000000"></path><path d="M451.891 0H60.109C27.043 0 .142 26.901.142 59.967v255.858c0 33.066 26.901 59.967 59.967 59.967h53.97v-39.978h-53.97c-11.022 0-19.989-8.967-19.989-19.989V145.919h431.76v169.906c0 11.022-8.967 19.989-19.989 19.989H398.92v39.978h52.971c33.066 0 59.967-26.901 59.967-59.967V59.967C511.858 26.901 484.957 0 451.891 0zm19.989 85.952H40.12V59.967c0-11.022 8.967-19.989 19.989-19.989h391.783c11.022 0 19.989 8.967 19.989 19.989v25.985z" fill="#8d99cb" opacity="1" data-original="#000000"></path></g></svg>