<svg xmlns="http://www.w3.org/2000/svg" version="1.1" xmlns:xlink="http://www.w3.org/1999/xlink" width="512" height="512" x="0" y="0" viewBox="0 0 511.989 511.989" style="enable-background:new 0 0 512 512" xml:space="preserve"><g><path d="M451.115 291.17c.068-.378.134-.757.201-1.136.297-1.706.572-3.416.824-5.13.113-.766.227-1.531.331-2.299a193.327 193.327 0 0 0 1.035-9.306c.093-1.054.177-2.109.253-3.166.054-.753.111-1.506.156-2.26.091-1.516.162-3.037.219-4.56.029-.772.049-1.545.069-2.318.03-1.169.047-2.34.056-3.513.004-.495.024-.989.024-1.484 0-1.651-.028-3.298-.069-4.942l-.003-.087a198.468 198.468 0 0 0-.393-8.405c-.046-.69-.09-1.38-.143-2.069-.016-.204-.036-.407-.052-.611-3.744-46.905-23.795-90.484-57.433-124.106-.286-.287-.589-.545-.891-.806-20.3-20.09-45.076-35.963-73.124-45.892-8.555-3.035-17.883 1.447-20.909 9.975-3.017 8.52 1.447 17.891 9.975 20.909 61.515 21.782 104.201 77.771 109.681 141.974.034.412.074.822.106 1.234.036.457.063.916.095 1.374.064.938.124 1.876.172 2.817l.035.7c.123 2.632.189 5.274.189 7.926 0 .486-.01.969-.014 1.454a165.318 165.318 0 0 1-.283 8.432c-.039.652-.088 1.302-.135 1.953a172.992 172.992 0 0 1-.783 8.127c-.089.73-.183 1.458-.281 2.185-.102.755-.214 1.508-.326 2.262a167.71 167.71 0 0 1-.844 5.114c-10.481 57.586-51.103 106.463-107.61 126.482-8.529 3.009-12.993 12.38-9.975 20.909 2.378 6.718 8.697 10.916 15.442 10.916 1.81 0 3.656-.302 5.458-.941 45.845-16.232 82.954-48.325 106.037-88.772.387-.53.752-1.084 1.08-1.671 10.622-19.059 17.969-39.815 21.83-61.269zM271.605 48.391 181.491 1.826c-8.058-4.145-17.927-.994-22.071 7.038-4.162 8.041-1.003 17.918 7.029 22.071l75.568 39.04-40.202 77.849c-4.153 8.032-.994 17.918 7.047 22.071a16.294 16.294 0 0 0 7.499 1.828 16.41 16.41 0 0 0 14.581-8.875l47.702-92.395c4.152-8.031.993-17.908-7.039-22.062z" fill="#ffffff" opacity="1" data-original="#000000"></path><path d="M200.758 411.988c-65.966-23.358-110.286-86.04-110.286-156 0-3.461.107-6.911.32-10.347l.007-.106c.064-1.024.139-2.046.222-3.068.038-.458.081-.915.122-1.373.052-.577.104-1.154.161-1.729.08-.787.166-1.572.256-2.356l.076-.664c7.412-61.848 49.397-115.245 109.113-136.393 8.529-3.009 12.993-12.38 9.975-20.909-3.017-8.537-12.362-13.01-20.909-9.975-57.294 20.286-100.941 65.344-120.62 120.534a16.565 16.565 0 0 0-.679 1.662 197.665 197.665 0 0 0-10.461 52.976l-.01.191c-.07 1.212-.132 2.425-.18 3.64-.019.467-.028.936-.043 1.404-.027.836-.058 1.673-.074 2.51a197.291 197.291 0 0 0-.001 7.968c.83 42.984 15.139 83.543 41.538 117.528.357.461.74.888 1.134 1.299 22.678 28.744 53.333 51.329 89.397 64.098a16.4 16.4 0 0 0 5.467.941c6.745 0 13.064-4.207 15.451-10.925 3.017-8.517-1.447-17.888-9.976-20.906zM345.522 481.034l-75.559-39.013 40.185-77.867c4.153-8.04.994-17.918-7.047-22.071-8.049-4.171-17.918-.976-22.071 7.047l-47.702 92.421c-4.153 8.04-.994 17.918 7.047 22.071l90.114 46.539a16.294 16.294 0 0 0 7.499 1.828c5.937 0 11.661-3.23 14.581-8.884 4.153-8.032.994-17.918-7.047-22.071z" fill="#ffffff" opacity="1" data-original="#000000"></path></g></svg>