<svg xmlns="http://www.w3.org/2000/svg" version="1.1" xmlns:xlink="http://www.w3.org/1999/xlink" width="512" height="512" x="0" y="0" viewBox="0 0 512 512" style="enable-background:new 0 0 512 512" xml:space="preserve" class=""><g><path d="m254.6 171.4-107-107c-9.7-9.8-25.6-9.8-35.4-.1l-.1.1L7.3 169.3c-9.8 9.8-9.8 25.6 0 35.4s25.6 9.8 35.4 0l62.2-62.1v287.5c0 13.8 11.2 25 25.1 25s25.1-11.2 25.1-25V142.6l64.2 64.2c9.8 9.8 25.6 9.8 35.4 0s9.7-25.6-.1-35.4zM504.7 307.2c-9.7-9.8-25.6-9.8-35.4-.1l-.1.1-62.1 62.2V81.9c0-13.8-11.2-25.1-25.1-25.1-13.8 0-25 11.2-25 25.1v287.5l-64.2-64.2c-9.8-9.8-25.6-9.8-35.4 0s-9.8 25.6 0 35.4l107 107c9.7 9.8 25.6 9.8 35.4.1l.1-.1 104.9-104.9c9.6-9.8 9.7-25.6-.1-35.5 0 .1 0 .1 0 0z" fill="#ffffff" opacity="1" data-original="#000000"></path></g></svg>