<svg id="Capa_1" enable-background="new 0 0 512 512" height="512" viewBox="0 0 512 512" width="512" xmlns="http://www.w3.org/2000/svg"><g><g><ellipse cx="396.51" cy="115.49" fill="#cfd7e6" rx="102.82" ry="104.92"/></g><g><path d="m167.23 81.65c-8.284 0-15-6.716-15-15v-32.64c0-2.211-1.799-4.01-4.01-4.01h-50.44c-2.211 0-4.01 1.799-4.01 4.01v32.64c0 8.284-6.716 15-15 15s-15-6.716-15-15v-32.64c0-18.753 15.257-34.01 34.01-34.01h50.44c18.753 0 34.01 15.257 34.01 34.01v32.64c0 8.285-6.716 15-15 15z" fill="#804a40"/></g><g><path d="m0 94.94v87.65c0 26.69 21.71 48.39 48.39 48.39h149.22c26.68 0 48.39-21.7 48.39-48.39v-87.65z" fill="#ffea80"/></g><path d="m256 344.83h-178.78l-13.098 32.095 13.098 32.095h94.18v87.98c0 8.28 6.72 15 15 15h69.6l36.612-71.833z" fill="#2ea8e6"/><path d="m434.78 344.83 25.314 32.095-25.314 32.095h-94.18v87.98c0 8.28-6.72 15-15 15h-69.6v-167.17z" fill="#297acc"/><g><path d="m256 344.64 10.459 44.33-10.459 44.33c-8.09-.22-14.58-6.85-14.58-14.99v-58.68c0-8.14 6.49-14.77 14.58-14.99z" fill="#e6e9f2"/></g><path d="m271.42 359.63v58.68c0 8.28-6.71 15-15 15-.14 0-.28 0-.42-.01v-88.66c.14-.01.28-.01.42-.01 8.29 0 15 6.72 15 15z" fill="#cfd7e6"/><g><path d="m246 66.65v28.29c0 26.37-21.46 47.83-47.83 47.83h-150.34c-26.37 0-47.83-21.46-47.83-47.83v-28.29c0-8.28 6.72-15 15-15h216c8.28 0 15 6.72 15 15z" fill="#ffc34d"/></g><g><path d="m123 171.508c-8.284 0-15-6.716-15-15v-28.737c0-8.284 6.716-15 15-15s15 6.716 15 15v28.737c0 8.284-6.716 15-15 15z" fill="#804a40"/></g><g><path d="m396.508 230.983c-63.682 0-115.491-51.81-115.491-115.491 0-63.682 51.809-115.492 115.491-115.492s115.492 51.81 115.492 115.492-51.81 115.491-115.492 115.491zm0-200.983c-47.14 0-85.491 38.352-85.491 85.492s38.352 85.491 85.491 85.491c47.141 0 85.492-38.352 85.492-85.491 0-47.14-38.352-85.492-85.492-85.492z" fill="#283366"/></g><g><path d="m427 130.492h-30.492c-8.284 0-15-6.716-15-15v-40.492c0-8.284 6.716-15 15-15s15 6.716 15 15v25.492h15.492c8.284 0 15 6.716 15 15s-6.716 15-15 15z" fill="#dd266c"/></g><g><path d="m256 249.9 32.692 60.498-32.692 49.232c-30.26 0-54.86-24.61-54.86-54.86 0-30.26 24.6-54.87 54.86-54.87z" fill="#ffccbd"/></g><path d="m310.86 304.77c0 30.25-24.6 54.86-54.86 54.86v-109.73c30.26 0 54.86 24.61 54.86 54.87z" fill="#ffbda9"/><path d="m479.26 376.2c.2 9.15-3.43 17.46-9.39 23.42-5.8 5.81-13.83 9.4-22.69 9.4h-12.4v-64.19h11.75c17.55 0 32.34 13.82 32.73 31.37z" fill="#ffbda9"/><path d="m32.74 376.2c-.2 9.15 3.43 17.46 9.39 23.42 5.8 5.81 13.83 9.4 22.69 9.4h12.4v-64.19h-11.75c-17.55 0-32.34 13.82-32.73 31.37z" fill="#ffccbd"/></g></svg>