<svg xmlns="http://www.w3.org/2000/svg" xmlns:xlink="http://www.w3.org/1999/xlink" width="14" height="14" viewBox="0 0 14 14">
  <defs>
    <clipPath id="clip-path">
      <rect id="Rectangle_9" data-name="Rectangle 9" width="14" height="14" fill="#fff" stroke="#707070" stroke-width="1"/>
    </clipPath>
  </defs>
  <g id="Mask_Group_7" data-name="Mask Group 7" clip-path="url(#clip-path)">
    <g id="__TEMP__SVG__" transform="translate(1.273 0)">
      <g id="Group_16" data-name="Group 16">
        <path id="Path_15" data-name="Path 15" d="M5.82,7.823a1.273,1.273,0,0,1,1.8-1.8l.016.017.016-.017a1.273,1.273,0,1,1,1.8,1.8l-1.8,1.8-.016-.016-.016.016-1.8-1.8Z" transform="translate(-1.909 -0.636)" fill="#fff"/>
        <path id="Path_16" data-name="Path 16" d="M1.909,2.545A1.909,1.909,0,0,1,3.818.636h7.636a1.909,1.909,0,0,1,1.909,1.909V12.727a1.909,1.909,0,0,1-1.909,1.909H3.818a1.909,1.909,0,0,1-1.909-1.909Zm1.909-.636h7.636a.636.636,0,0,1,.636.636V12.727a.636.636,0,0,1-.636.636H3.818a.636.636,0,0,1-.636-.636V2.545A.636.636,0,0,1,3.818,1.909Z" transform="translate(-1.909 -0.636)" fill="#fff" fill-rule="evenodd"/>
      </g>
    </g>
  </g>
</svg>
