<svg xmlns="http://www.w3.org/2000/svg" xmlns:xlink="http://www.w3.org/1999/xlink" width="14" height="14" viewBox="0 0 14 14">
  <defs>
    <clipPath id="clip-path">
      <rect id="Rectangle_9" data-name="Rectangle 9" width="14" height="14" fill="#fff" stroke="#707070" stroke-width="1"/>
    </clipPath>
  </defs>
  <g id="Mask_Group_9" data-name="Mask Group 9" clip-path="url(#clip-path)">
    <g id="games" transform="translate(0 2.917)">
      <g id="Group_17" data-name="Group 17">
        <path id="Path_19" data-name="Path 19" d="M9.024,6.588a.583.583,0,1,0,0,.825.583.583,0,0,0,0-.825Z" transform="translate(0 -2.917)" fill="#fff"/>
        <path id="Path_20" data-name="Path 20" d="M9.437,5.35a.583.583,0,1,1,0,.825.583.583,0,0,1,0-.825Z" transform="translate(0 -2.917)" fill="#fff"/>
        <path id="Path_21" data-name="Path 21" d="M11.5,6.588a.583.583,0,1,0,0,.825.583.583,0,0,0,0-.825Z" transform="translate(0 -2.917)" fill="#fff"/>
        <path id="Path_22" data-name="Path 22" d="M9.437,7.825a.583.583,0,1,1,0,.825.583.583,0,0,1,0-.825Z" transform="translate(0 -2.917)" fill="#fff"/>
        <path id="Path_23" data-name="Path 23" d="M3.5,7.583H2.333V6.417H3.5V5.25H4.667V6.417H5.833V7.583H4.667V8.75H3.5Z" transform="translate(0 -2.917)" fill="#fff"/>
        <path id="Path_24" data-name="Path 24" d="M4.083,2.917a4.083,4.083,0,1,0,0,8.167H9.917a4.083,4.083,0,1,0,0-8.167ZM9.917,4.083H4.083a2.917,2.917,0,0,0,0,5.833H9.917a2.917,2.917,0,1,0,0-5.833Z" transform="translate(0 -2.917)" fill="#fff" fill-rule="evenodd"/>
      </g>
    </g>
  </g>
</svg>
