<svg xmlns="http://www.w3.org/2000/svg" version="1.1" xmlns:xlink="http://www.w3.org/1999/xlink" width="512" height="512" x="0" y="0" viewBox="0 0 512 512" style="enable-background:new 0 0 512 512" xml:space="preserve"><g><circle cx="256" cy="55" r="55" fill="#ffffff" data-original="#000000" opacity="1"></circle><path d="M157.093 414.961C141.568 431.581 119.484 442 95 442s-46.568-10.419-62.093-27.039C13.061 428.468 0 451.236 0 477v20c0 8.284 6.716 15 15 15h160c8.284 0 15-6.716 15-15v-20c0-25.764-13.061-48.532-32.907-62.039zM479.093 414.961C463.568 431.581 441.484 442 417 442s-46.568-10.419-62.093-27.039C335.061 428.468 322 451.236 322 477v20c0 8.284 6.716 15 15 15h160c8.284 0 15-6.716 15-15v-20c0-25.764-13.061-48.532-32.907-62.039zM362.722 365.85C366.968 391.983 389.686 412 417 412c30.327 0 55-24.673 55-55s-24.673-55-55-55c-22.726 0-42.277 13.856-50.649 33.564l-65.395-20.309c-.721-18.796-13.02-34.668-29.956-40.675V210h65c8.284 0 15-6.716 15-15v-20c0-25.764-13.061-48.532-32.907-62.039C302.568 129.581 280.484 140 256 140s-46.568-10.419-62.093-27.039C174.061 126.468 161 149.236 161 175v20c0 8.284 6.716 15 15 15h65v64.58c-16.936 6.007-29.234 21.878-29.956 40.675l-65.395 20.309C137.277 315.856 117.726 302 95 302c-30.327 0-55 24.673-55 55s24.673 55 55 55c27.314 0 50.032-20.017 54.278-46.15l70.67-21.947C228.161 354.881 241.265 362 256 362s27.839-7.119 36.052-18.098z" fill="#ffffff" data-original="#000000" opacity="1"></path></g></svg>