<svg xmlns="http://www.w3.org/2000/svg" version="1.1" xmlns:xlink="http://www.w3.org/1999/xlink" width="512" height="512" x="0" y="0" viewBox="0 0 64 64" style="enable-background:new 0 0 512 512" xml:space="preserve"><g><path d="M41.96 42.8a8.412 8.412 0 0 1 8.4-8.4h6.4v-3.48c-.05-3.55-3.09-5.69-6.48-5.32v-7.64a1.003 1.003 0 0 0-1-1h-6.6a16 16 0 0 1-.13 2h5.73v6.64H10.4a3.32 3.32 0 0 1 0-6.64h2.41a15.698 15.698 0 0 1-.13-2H10.4a5.33 5.33 0 0 0-5.32 5.32v32.4A5.33 5.33 0 0 0 10.4 60h41.04a5.33 5.33 0 0 0 5.32-5.32V51.2h-6.4a8.412 8.412 0 0 1-8.4-8.4zM20.08 54h-8a1 1 0 0 1 0-2h8a1 1 0 0 1 0 2z" fill="#ffffff" data-original="#000000" opacity="1"></path><path d="M56.92 36.4h-6.56c-8.47.3-8.47 12.5 0 12.8h6.56a2.006 2.006 0 0 0 2-2v-8.8a2.006 2.006 0 0 0-2-2zm-6.56 7.4a1 1 0 0 1 0-2 1 1 0 0 1 0 2zM16.47 23.6h10.21v-1.1h-2a1 1 0 1 1 0-2h3.75a1.25 1.25 0 0 0 0-2.5h-1.5a3.24 3.24 0 0 1-.25-6.47v-.69a1 1 0 0 1 2 0v.66h2a1 1 0 0 1 0 2h-3.75a1.25 1.25 0 0 0 0 2.5h1.5a3.24 3.24 0 0 1 .25 6.47v1.13h10.2a12.51 12.51 0 0 0 1.65-4.65A13.034 13.034 0 0 0 27.68 4c-9.919-.129-16.333 11.149-11.21 19.6z" fill="#ffffff" data-original="#000000" opacity="1"></path></g></svg>