<svg xmlns="http://www.w3.org/2000/svg" version="1.1" xmlns:xlink="http://www.w3.org/1999/xlink" width="512" height="512" x="0" y="0" viewBox="0 0 515.556 515.556" style="enable-background:new 0 0 512 512" xml:space="preserve" class=""><g><path d="M257.778 0C115.641 0 0 115.641 0 257.778s115.641 257.778 257.778 257.778 257.778-115.641 257.778-257.778S399.914 0 257.778 0zM64.444 257.778c0-41.69 13.397-80.235 35.924-111.846l269.255 269.255c-31.611 22.526-70.156 35.924-111.846 35.924-106.609 0-193.333-86.723-193.333-193.333zm350.743 111.846L145.931 100.368c31.611-22.526 70.156-35.924 111.846-35.924 106.61 0 193.333 86.723 193.333 193.333 0 41.691-13.397 80.236-35.923 111.847z" fill="#8d9ac9" data-original="#000000" class="" opacity="1"></path></g></svg>