<svg width="136" height="136" fill="none" xmlns="http://www.w3.org/2000/svg"><g filter="url('#filter0_dd_243_9879')"><path d="M131.674 68c0 35.166-28.508 63.674-63.674 63.674S4.327 103.166 4.327 68 32.834 4.327 68 4.327 131.674 32.834 131.674 68ZM7.994 68c0 33.14 26.866 60.006 60.006 60.006S128.006 101.14 128.006 68 101.14 7.994 68 7.994 7.994 34.86 7.994 68Z" fill="#286693"/><path fill-rule="evenodd" clip-rule="evenodd" d="M43.584 122.824C51.044 126.151 59.306 128 68 128v3.612a.061.061 0 0 1-.061.061 63.67 63.67 0 0 1-25.787-5.482.062.062 0 0 1-.031-.081l1.463-3.286ZM20.635 110.555a.061.061 0 0 0 .087.004l2.684-2.416a59.935 59.935 0 0 1-12.489-21.61l-3.42 1.111a.061.061 0 0 0-.04.077 63.68 63.68 0 0 0 13.178 22.834ZM4.683 61.272a.061.061 0 0 0 .054.067l3.588.378a59.617 59.617 0 0 1 7.713-23.737l-3.119-1.802a.061.061 0 0 0-.084.023 63.674 63.674 0 0 0-8.152 25.07ZM55.56 9.291l-.747-3.521a.061.061 0 0 0-.073-.048 63.674 63.674 0 0 0-24.096 10.714.061.061 0 0 0-.013.085l2.12 2.92a59.712 59.712 0 0 1 22.808-10.15ZM119.989 38.027l3.12-1.8a.06.06 0 0 0 .023-.083 63.684 63.684 0 0 0-17.629-19.601.062.062 0 0 0-.086.013l-2.122 2.918a60.317 60.317 0 0 1 16.694 18.553ZM125.073 86.562l3.42 1.112a.061.061 0 0 0 .077-.039 63.657 63.657 0 0 0 2.762-26.218.06.06 0 0 0-.067-.054l-3.588.376c.213 2.058.323 4.147.323 6.261a59.944 59.944 0 0 1-2.927 18.562ZM92.393 122.834l1.462 3.287a.06.06 0 0 0 .08.031 63.676 63.676 0 0 0 21.333-15.49.062.062 0 0 0-.005-.087l-2.683-2.417a60.165 60.165 0 0 1-20.187 14.676Z" fill="#5AC152"/><path fill-rule="evenodd" clip-rule="evenodd" d="m80.51 9.306.75-3.52a.061.061 0 0 0-.046-.073 63.673 63.673 0 0 0-26.363-.014.061.061 0 0 0-.047.073l.746 3.521A60.248 60.248 0 0 1 68 8c4.29 0 8.475.45 12.51 1.306Z" fill="#FF961B"/></g><defs><filter id="filter0_dd_243_9879" x="-1" y="-1" width="138" height="138" filterUnits="userSpaceOnUse" color-interpolation-filters="sRGB"><feFlood flood-opacity="0" result="BackgroundImageFix"/><feColorMatrix in="SourceAlpha" values="0 0 0 0 0 0 0 0 0 0 0 0 0 0 0 0 0 0 127 0" result="hardAlpha"/><feOffset dx="-1" dy="-1"/><feGaussianBlur stdDeviation="1.5"/><feComposite in2="hardAlpha" operator="out"/><feColorMatrix values="0 0 0 0 0 0 0 0 0 0 0 0 0 0 0 0 0 0 0.35 0"/><feBlend in2="BackgroundImageFix" result="effect1_dropShadow_243_9879"/><feColorMatrix in="SourceAlpha" values="0 0 0 0 0 0 0 0 0 0 0 0 0 0 0 0 0 0 127 0" result="hardAlpha"/><feOffset dx="1" dy="1"/><feGaussianBlur stdDeviation="1.5"/><feComposite in2="hardAlpha" operator="out"/><feColorMatrix values="0 0 0 0 1 0 0 0 0 1 0 0 0 0 1 0 0 0 0.15 0"/><feBlend in2="effect1_dropShadow_243_9879" result="effect2_dropShadow_243_9879"/><feBlend in="SourceGraphic" in2="effect2_dropShadow_243_9879" result="shape"/></filter></defs></svg>