<svg xmlns="http://www.w3.org/2000/svg" width="14.155" height="16.5" viewBox="0 0 14.155 16.5">
  <g id="notifcations" transform="translate(-2.493 -1.25)">
    <path id="Path_220" data-name="Path 220" d="M16.351,12.492l-.18-.216c-.81-.967-1.3-1.551-1.3-4.289a5.5,5.5,0,0,0-1.021-3.453A4.8,4.8,0,0,0,11.785,3.04a.11.11,0,0,1-.03-.024A2.347,2.347,0,0,0,9.571,1.25,2.347,2.347,0,0,0,7.388,3.015a.115.115,0,0,1-.03.024C5.281,3.882,4.272,5.5,4.272,7.987c0,2.739-.489,3.323-1.3,4.289l-.18.216a1.264,1.264,0,0,0-.171,1.367,1.379,1.379,0,0,0,1.264.766H15.261a1.376,1.376,0,0,0,1.259-.763,1.265,1.265,0,0,0-.17-1.369Z" transform="translate(0)" fill="#606882"/>
    <path id="Path_221" data-name="Path 221" d="M10,18.749A3.127,3.127,0,0,0,12.751,17.1a.156.156,0,0,0-.138-.229H7.387a.156.156,0,0,0-.139.229A3.127,3.127,0,0,0,10,18.749Z" transform="translate(-0.428 -0.999)" fill="#606882"/>
  </g>
</svg>
