<svg xmlns="http://www.w3.org/2000/svg" xmlns:xlink="http://www.w3.org/1999/xlink" width="14" height="14" viewBox="0 0 14 14">
  <defs>
    <clipPath id="clip-path">
      <rect id="Rectangle_9" data-name="Rectangle 9" width="14" height="14" fill="#fff" stroke="#707070" stroke-width="1"/>
    </clipPath>
  </defs>
  <g id="Mask_Group_8" data-name="Mask Group 8" clip-path="url(#clip-path)">
    <g id="game-console" transform="translate(0 1.994)">
      <path id="Path_17" data-name="Path 17" d="M3.756,13a2.74,2.74,0,0,1-.72-.1A2.8,2.8,0,0,1,1.1,9.5L2.26,5.081a2.77,2.77,0,0,1,1.3-1.715A2.715,2.715,0,0,1,5.631,3.1,2.76,2.76,0,0,1,7.351,4.5h1.3A2.745,2.745,0,0,1,10.372,3.1a2.715,2.715,0,0,1,2.075.27,2.785,2.785,0,0,1,1.3,1.705L14.907,9.5a2.8,2.8,0,0,1-1.945,3.416,2.715,2.715,0,0,1-2.075-.27,2.77,2.77,0,0,1-1.3-1.705L9.5,10.5h-3l-.115.43a2.77,2.77,0,0,1-1.3,1.705A2.73,2.73,0,0,1,3.756,13Zm1.16-9a1.745,1.745,0,0,0-.86.23,1.8,1.8,0,0,0-.83,1.1L2.06,9.747a1.8,1.8,0,0,0,1.24,2.2,1.715,1.715,0,0,0,1.31-.17,1.77,1.77,0,0,0,.83-1.1L5.751,9.5h4.5l.305,1.175a1.79,1.79,0,0,0,.83,1.1,1.73,1.73,0,0,0,1.315.17,1.79,1.79,0,0,0,1.235-2.2L12.772,5.326a1.775,1.775,0,0,0-.825-1.1,1.73,1.73,0,0,0-1.315-.17,1.775,1.775,0,0,0-1.185,1.11l-.12.33H6.676l-.12-.33a1.78,1.78,0,0,0-1.19-1.11A1.74,1.74,0,0,0,4.916,4Z" transform="translate(-1.002 -3)" fill="#fff"/>
      <path id="Path_18" data-name="Path 18" d="M5,8A1,1,0,1,1,6,7,1,1,0,0,1,5,8ZM5,7Z" transform="translate(-1.002 -3)" fill="#fff"/>
      <circle id="Ellipse_6" data-name="Ellipse 6" cx="0.5" cy="0.5" r="0.5" transform="translate(9.499 2.501)" fill="#fff"/>
      <circle id="Ellipse_7" data-name="Ellipse 7" cx="0.5" cy="0.5" r="0.5" transform="translate(9.499 4.501)" fill="#fff"/>
      <circle id="Ellipse_8" data-name="Ellipse 8" cx="0.5" cy="0.5" r="0.5" transform="translate(8.499 3.501)" fill="#fff"/>
      <circle id="Ellipse_9" data-name="Ellipse 9" cx="0.5" cy="0.5" r="0.5" transform="translate(10.5 3.501)" fill="#fff"/>
    </g>
  </g>
</svg>
