<svg xmlns="http://www.w3.org/2000/svg" xmlns:xlink="http://www.w3.org/1999/xlink" width="14" height="14" viewBox="0 0 14 14">
  <defs>
    <clipPath id="clip-path">
      <rect id="Rectangle_9" data-name="Rectangle 9" width="14" height="14" fill="#fff" stroke="#707070" stroke-width="1"/>
    </clipPath>
  </defs>
  <g id="Mask_Group_6" data-name="Mask Group 6" clip-path="url(#clip-path)">
    <g id="__TEMP__SVG__" transform="translate(0.504 0.5)">
      <path id="Path_13" data-name="Path 13" d="M13.09,10.54a.123.123,0,0,0-.191,0c-.328.387-1.406,1.454-1.406,2.426a1.514,1.514,0,0,0,1.5,1.527h0a1.516,1.516,0,0,0,1.5-1.527C14.493,11.994,13.421,10.927,13.09,10.54Z" transform="translate(-1.502 -1.492)" fill="none" stroke="#8d99cb" stroke-miterlimit="10" stroke-width="0.999"/>
      <path id="Path_14" data-name="Path 14" d="M12.088,8.992,4.86,1.823a1.124,1.124,0,0,0-1.593,0l-.161.161a1.124,1.124,0,0,0,0,1.593L4.759,5.229l1.78-1.78L1.759,8.221A.875.875,0,0,0,1.769,9.47l4.1,3.935a.876.876,0,0,0,1.215,0c1.181-1.143,3.695-3.576,3.957-3.839a1.378,1.378,0,0,1,.9-.222h.009a.2.2,0,0,0,.143-.35Z" transform="translate(-1.502 -1.492)" fill="none" stroke="#8d99cb" stroke-miterlimit="10" stroke-width="0.999"/>
    </g>
  </g>
</svg>
