<svg xmlns="http://www.w3.org/2000/svg" width="21.839" height="19.498" viewBox="0 0 21.839 19.498">
  <g id="wallet" transform="translate(-2.953 -4.502)">
    <path id="Path_216" data-name="Path 216" d="M6.664,7.231h15.6a4.277,4.277,0,0,1,.545.035A3.217,3.217,0,0,0,19.03,4.557L6.2,6.747H6.186a3.217,3.217,0,0,0-2,1.274,4.269,4.269,0,0,1,2.48-.79Z" transform="translate(-0.591)" fill="#fff"/>
    <path id="Path_217" data-name="Path 217" d="M21.672,12H6.073a3.123,3.123,0,0,0-3.12,3.12v9.36a3.123,3.123,0,0,0,3.12,3.12h15.6a3.123,3.123,0,0,0,3.12-3.12V15.12A3.123,3.123,0,0,0,21.672,12Zm-2.316,9.36a1.56,1.56,0,1,1,1.56-1.56A1.56,1.56,0,0,1,19.357,21.36Z" transform="translate(0 -3.599)" fill="#fff"/>
    <path id="Path_218" data-name="Path 218" d="M3,16.588v-4.85A3.193,3.193,0,0,1,5.615,8.526,21.176,21.176,0,0,1,9.045,8.2s1.121.78.195.78a.6.6,0,1,0,0,1.194c.9,0,0,1.146,0,1.146L5.608,15.442Z" transform="translate(-0.023 -1.777)" fill="#fff"/>
  </g>
</svg>
