<svg id="Capa_1" enable-background="new 0 0 512 512" height="512" viewBox="0 0 512 512" width="512" xmlns="http://www.w3.org/2000/svg"><g><g><g><path d="m415.043 223.934h-19.437c-43.588 0-78.924 35.335-78.924 78.924v45.822h177.284v-45.822c.001-43.588-35.334-78.924-78.923-78.924z" fill="#685e68"/><path d="m426.503 224.768c-38.159 5.553-67.465 38.391-67.465 78.09v45.82h-42.355v-45.82c0-43.587 35.34-78.917 78.927-78.917h19.431c3.888 0 7.719.279 11.462.827z" fill="#554e56"/><path d="m466.286 506.354h-121.922c-17.109 0-28.218-18.028-20.527-33.311l48.879-97.124h65.217l48.879 97.124c7.692 15.283-3.417 33.311-20.526 33.311z" fill="#fe9738"/><path d="m388.231 506.354h-43.866c-17.112 0-28.218-18.026-20.528-33.309l48.881-97.126h43.866l-48.881 97.126c-7.69 15.283 3.416 33.309 20.528 33.309z" fill="#fe7d43"/><path d="m512 352.208c0 12.983-10.519 23.492-23.492 23.492h-6.246c-10.048 32.962-40.691 56.945-76.935 56.945-36.254 0-66.887-23.983-76.944-56.945h-6.246c-6.487 0-12.357-2.627-16.611-6.881-4.254-4.244-6.881-10.125-6.881-16.611 0-12.973 10.519-23.492 23.492-23.492h6.246c6.082-19.941 19.7-36.6 37.543-46.629 14.109 14.417 52.749 46.629 116.336 46.629h6.246c6.487 0 12.357 2.627 16.611 6.881 4.254 4.253 6.881 10.124 6.881 16.611z" fill="#ffeee6"/><path d="m423.988 430.461c-5.986 1.434-12.232 2.185-18.661 2.185-36.254 0-66.887-23.983-76.944-56.945h-6.246c-6.487 0-12.357-2.627-16.611-6.881-4.254-4.244-6.881-10.125-6.881-16.611 0-12.973 10.519-23.492 23.492-23.492h6.246c6.082-19.941 19.7-36.6 37.543-46.629 4.36 4.456 11.077 10.615 20.143 16.996-13.801 14.176-22.299 33.53-22.299 54.867 0 37.099 25.668 68.195 60.218 76.51z" fill="#ffdfcf"/><g fill="#554e56"><path d="m388.477 362.869c-4.267 0-7.726-3.459-7.726-7.726v-12.927c0-4.267 3.459-7.726 7.726-7.726s7.726 3.459 7.726 7.726v12.927c.001 4.267-3.459 7.726-7.726 7.726z"/><path d="m422.173 362.869c-4.267 0-7.726-3.459-7.726-7.726v-12.927c0-4.267 3.459-7.726 7.726-7.726s7.726 3.459 7.726 7.726v12.927c0 4.267-3.459 7.726-7.726 7.726z"/></g></g><g><path d="m265.721 223.934h-19.437c-43.588 0-78.924 35.335-78.924 78.924v45.822h177.284v-45.822c.001-43.588-35.334-78.924-78.923-78.924z" fill="#ffd15b"/><path d="m277.181 224.768c-38.159 5.553-67.465 38.391-67.465 78.09v45.82h-42.355v-45.82c0-43.587 35.34-78.917 78.927-78.917h19.431c3.888 0 7.719.279 11.462.827z" fill="#ffc344"/><path d="m316.964 506.354h-121.922c-17.109 0-28.218-18.028-20.527-33.311l48.879-97.124h65.217l48.879 97.124c7.692 15.283-3.417 33.311-20.526 33.311z" fill="#0573ce"/><path d="m238.909 506.354h-43.866c-17.112 0-28.218-18.026-20.528-33.309l48.881-97.126h43.866l-48.881 97.126c-7.69 15.283 3.416 33.309 20.528 33.309z" fill="#0067c5"/><path d="m362.678 352.208c0 12.983-10.519 23.492-23.492 23.492h-6.246c-10.048 32.962-40.691 56.945-76.935 56.945-36.254 0-66.887-23.983-76.944-56.945h-6.246c-6.487 0-12.357-2.627-16.611-6.881-4.254-4.244-6.881-10.125-6.881-16.611 0-12.973 10.519-23.492 23.492-23.492h6.246c6.082-19.941 19.7-36.6 37.543-46.629 14.109 14.417 52.749 46.629 116.336 46.629h6.246c6.487 0 12.357 2.627 16.611 6.881 4.254 4.253 6.881 10.124 6.881 16.611z" fill="#ffeee6"/><path d="m274.666 430.461c-5.986 1.434-12.232 2.185-18.661 2.185-36.254 0-66.887-23.983-76.944-56.945h-6.246c-6.487 0-12.357-2.627-16.611-6.881-4.254-4.244-6.881-10.125-6.881-16.611 0-12.973 10.519-23.492 23.492-23.492h6.246c6.082-19.941 19.7-36.6 37.543-46.629 4.36 4.456 11.077 10.615 20.143 16.996-13.801 14.176-22.299 33.53-22.299 54.867 0 37.099 25.668 68.195 60.218 76.51z" fill="#ffdfcf"/><g fill="#554e56"><path d="m239.155 362.869c-4.267 0-7.726-3.459-7.726-7.726v-12.927c0-4.267 3.459-7.726 7.726-7.726s7.726 3.459 7.726 7.726v12.927c.001 4.267-3.458 7.726-7.726 7.726z"/><path d="m272.851 362.869c-4.267 0-7.726-3.459-7.726-7.726v-12.927c0-4.267 3.459-7.726 7.726-7.726s7.726 3.459 7.726 7.726v12.927c0 4.267-3.459 7.726-7.726 7.726z"/></g></g><g><path d="m116.399 223.934h-19.436c-43.588 0-78.924 35.335-78.924 78.924v45.822h177.284v-45.822c0-43.588-35.335-78.924-78.924-78.924z" fill="#fe9738"/><path d="m127.859 224.768c-38.159 5.553-67.465 38.391-67.465 78.09v45.82h-42.355v-45.82c0-43.587 35.34-78.917 78.927-78.917h19.431c3.888 0 7.718.279 11.462.827z" fill="#fe7d43"/><path d="m167.642 506.354h-121.922c-17.109 0-28.218-18.028-20.527-33.311l48.879-97.124h65.217l48.879 97.124c7.692 15.283-3.417 33.311-20.526 33.311z" fill="#ffd15b"/><path d="m89.587 506.354h-43.867c-17.112 0-28.218-18.026-20.528-33.309l48.881-97.126h43.866l-48.881 97.126c-7.689 15.283 3.417 33.309 20.529 33.309z" fill="#ffc344"/><path d="m213.356 352.208c0 12.983-10.519 23.492-23.492 23.492h-6.246c-10.048 32.962-40.691 56.945-76.935 56.945-36.254 0-66.887-23.983-76.944-56.945h-6.246c-6.487 0-12.357-2.627-16.611-6.881-4.255-4.245-6.882-10.125-6.882-16.611 0-12.973 10.519-23.492 23.492-23.492h6.246c6.082-19.941 19.7-36.6 37.543-46.629 14.109 14.417 52.749 46.629 116.336 46.629h6.246c6.487 0 12.357 2.627 16.611 6.881 4.254 4.253 6.882 10.124 6.882 16.611z" fill="#ffeee6"/><path d="m125.344 430.461c-5.986 1.434-12.232 2.185-18.661 2.185-36.254 0-66.887-23.983-76.944-56.945h-6.246c-6.487 0-12.357-2.627-16.611-6.881-4.255-4.246-6.882-10.126-6.882-16.612 0-12.973 10.519-23.492 23.492-23.492h6.246c6.082-19.941 19.7-36.6 37.543-46.629 4.36 4.456 11.077 10.615 20.143 16.996-13.801 14.176-22.299 33.53-22.299 54.867.001 37.1 25.668 68.196 60.219 76.511z" fill="#ffdfcf"/><g fill="#554e56"><path d="m89.833 362.869c-4.267 0-7.726-3.459-7.726-7.726v-12.927c0-4.267 3.459-7.726 7.726-7.726s7.726 3.459 7.726 7.726v12.927c0 4.267-3.459 7.726-7.726 7.726z"/><path d="m123.529 362.869c-4.267 0-7.726-3.459-7.726-7.726v-12.927c0-4.267 3.459-7.726 7.726-7.726s7.726 3.459 7.726 7.726v12.927c0 4.267-3.459 7.726-7.726 7.726z"/></g></g></g><g><g><g><g><path d="m88.505 174.168c-10.563 0-19.126-8.563-19.126-19.126v-8.113c0-18.878 11.888-35.764 29.581-42.02 13.309-4.706 21.885-17.867 20.854-32.006-1.129-15.482-13.664-27.922-29.157-28.937-16.388-1.081-30.988 10.754-33.245 26.925-.202 1.445-.304 2.927-.304 4.403 0 10.563-8.563 19.126-19.126 19.126s-19.126-8.563-19.126-19.126c0-3.238.226-6.498.671-9.689 5.013-35.913 37.354-62.188 73.629-59.807 34.438 2.255 62.3 29.909 64.809 64.325 2.28 31.28-16.74 60.415-46.253 70.851-2.441.863-4.081 3.257-4.081 5.957v8.113c0 10.561-8.563 19.124-19.126 19.124z" fill="#0573ce"/></g><path d="m88.505 234.315c-10.563 0-19.126-8.563-19.126-19.126v-.158c0-10.563 8.563-19.126 19.126-19.126s19.126 8.563 19.126 19.126v.158c0 10.563-8.563 19.126-19.126 19.126z" fill="#0573ce"/></g><g fill="#0067c5"><g><path d="m36.435 65.607c-.449 3.191-.669 6.448-.669 9.687 0 7.528 4.347 14.043 10.671 17.157-2.551 1.261-5.417 1.968-8.454 1.968-10.556 0-19.125-8.559-19.125-19.125 0-3.238.229-6.496.678-9.687 5.006-35.919 37.352-62.19 73.625-59.811 1.299.086 2.589.21 3.869.373-30.713 3.782-56.191 27.894-60.595 59.438z"/><path d="m115.868 104.908c-17.692 6.257-29.586 23.147-29.586 42.024v8.11c0 7.528 4.356 14.043 10.68 17.157-2.551 1.261-5.417 1.968-8.454 1.968-10.566 0-19.125-8.56-19.125-19.125v-8.11c0-18.877 11.884-35.766 29.586-42.024 13.307-4.71 21.876-17.864 20.845-32.003-.965-13.298-10.346-24.351-22.793-27.837 3.353-.946 6.907-1.337 10.547-1.099 15.495 1.013 28.029 13.451 29.156 28.936 1.03 14.139-7.549 27.294-20.856 32.003z"/></g><path d="m96.963 232.345c-2.551 1.261-5.417 1.968-8.454 1.968-10.566 0-19.125-8.559-19.125-19.125v-.162c0-10.556 8.559-19.125 19.125-19.125 3.038 0 5.904.707 8.454 1.968-6.324 3.124-10.68 9.639-10.68 17.157v.162c-.001 7.528 4.356 14.043 10.68 17.157z"/></g></g><g><g><g><path d="m256.002 174.168c-10.563 0-19.126-8.563-19.126-19.126v-8.113c0-18.878 11.888-35.764 29.581-42.02 13.309-4.706 21.885-17.867 20.854-32.006-1.129-15.482-13.664-27.922-29.157-28.937-16.388-1.083-30.989 10.753-33.245 26.923-.202 1.445-.304 2.927-.304 4.403 0 10.563-8.563 19.126-19.126 19.126s-19.126-8.563-19.126-19.126c0-3.238.226-6.498.671-9.689 5.011-35.912 37.352-62.188 73.628-59.807 34.438 2.255 62.3 29.909 64.809 64.325 2.28 31.28-16.74 60.415-46.253 70.851-2.441.863-4.081 3.257-4.081 5.957v8.113c0 10.563-8.563 19.126-19.125 19.126z" fill="#0573ce"/></g><path d="m256.002 234.315c-10.563 0-19.126-8.563-19.126-19.126v-.158c0-10.563 8.563-19.126 19.126-19.126s19.126 8.563 19.126 19.126v.158c-.001 10.563-8.564 19.126-19.126 19.126z" fill="#0573ce"/></g><g fill="#0067c5"><g><path d="m203.931 65.607c-.449 3.191-.669 6.448-.669 9.687 0 7.528 4.347 14.043 10.671 17.157-2.551 1.261-5.417 1.968-8.454 1.968-10.556 0-19.125-8.559-19.125-19.125 0-3.238.229-6.496.678-9.687 5.006-35.919 37.352-62.19 73.625-59.811 1.299.086 2.589.21 3.869.373-30.713 3.782-56.191 27.894-60.595 59.438z"/><path d="m283.365 104.908c-17.692 6.257-29.586 23.147-29.586 42.024v8.11c0 7.528 4.356 14.043 10.68 17.157-2.551 1.261-5.417 1.968-8.454 1.968-10.566 0-19.125-8.56-19.125-19.125v-8.11c0-18.877 11.884-35.766 29.586-42.024 13.307-4.71 21.876-17.864 20.845-32.003-.965-13.298-10.346-24.351-22.793-27.837 3.353-.946 6.907-1.337 10.547-1.099 15.495 1.013 28.029 13.451 29.156 28.936 1.03 14.139-7.549 27.294-20.856 32.003z"/></g><path d="m264.459 232.345c-2.551 1.261-5.417 1.968-8.454 1.968-10.566 0-19.125-8.559-19.125-19.125v-.162c0-10.556 8.559-19.125 19.125-19.125 3.038 0 5.904.707 8.454 1.968-6.324 3.124-10.68 9.639-10.68 17.157v.162c0 7.528 4.356 14.043 10.68 17.157z"/></g></g><g><g><g><path d="m423.498 174.168c-10.563 0-19.126-8.563-19.126-19.126v-8.113c0-18.878 11.888-35.764 29.581-42.02 13.309-4.706 21.885-17.867 20.854-32.006-1.129-15.482-13.664-27.922-29.157-28.937-16.388-1.083-30.989 10.753-33.245 26.923-.202 1.445-.304 2.927-.304 4.403 0 10.563-8.563 19.126-19.126 19.126s-19.126-8.563-19.126-19.126c0-3.238.226-6.498.671-9.689 5.011-35.912 37.352-62.188 73.628-59.807 34.438 2.255 62.3 29.909 64.809 64.325 2.28 31.28-16.74 60.415-46.253 70.851-2.441.863-4.081 3.257-4.081 5.957v8.113c.001 10.563-8.562 19.126-19.125 19.126z" fill="#0573ce"/></g><path d="m423.498 234.315c-10.563 0-19.126-8.563-19.126-19.126v-.158c0-10.563 8.563-19.126 19.126-19.126s19.126 8.563 19.126 19.126v.158c0 10.563-8.563 19.126-19.126 19.126z" fill="#0573ce"/></g><g fill="#0067c5"><g><path d="m371.428 65.607c-.449 3.191-.669 6.448-.669 9.687 0 7.528 4.347 14.043 10.671 17.157-2.551 1.261-5.417 1.968-8.454 1.968-10.556 0-19.125-8.559-19.125-19.125 0-3.238.229-6.496.678-9.687 5.006-35.919 37.352-62.19 73.625-59.811 1.299.086 2.589.21 3.869.373-30.713 3.782-56.191 27.894-60.595 59.438z"/><path d="m450.861 104.908c-17.692 6.257-29.586 23.147-29.586 42.024v8.11c0 7.528 4.356 14.043 10.68 17.157-2.551 1.261-5.417 1.968-8.454 1.968-10.566 0-19.125-8.56-19.125-19.125v-8.11c0-18.877 11.884-35.766 29.586-42.024 13.307-4.71 21.876-17.864 20.845-32.003-.965-13.298-10.346-24.351-22.793-27.837 3.353-.946 6.907-1.337 10.547-1.099 15.495 1.013 28.029 13.451 29.156 28.936 1.03 14.139-7.549 27.294-20.856 32.003z"/></g><path d="m431.956 232.345c-2.551 1.261-5.417 1.968-8.454 1.968-10.566 0-19.125-8.559-19.125-19.125v-.162c0-10.556 8.559-19.125 19.125-19.125 3.038 0 5.904.707 8.454 1.968-6.324 3.124-10.68 9.639-10.68 17.157v.162c-.001 7.528 4.356 14.043 10.68 17.157z"/></g></g></g></g></svg>