<svg id="Capa_1" enable-background="new 0 0 512 512" height="512" viewBox="0 0 512 512" width="512" xmlns="http://www.w3.org/2000/svg"><g><path d="m335.187 109.402c0-18.217 6.279-34.986 16.764-48.294-17.84-36.199-55.1-61.108-98.185-61.108-41.755 0-78.041 23.395-96.479 57.789 12.14 13.782 19.527 31.846 19.527 51.613 0 19.764-7.385 37.825-19.521 51.607 6.971 13.001 16.486 24.435 27.89 33.623 3.277-23.911 23.826-42.396 48.622-42.396h19.654c11.222 0 21.903 4.857 29.306 13.327l.299.342h.454c18.243 0 33.619 12.495 38.028 29.375 12.729-10.06 23.167-22.891 30.407-37.581-10.486-13.309-16.766-30.078-16.766-48.297z" fill="#eaf9fa"/><path d="m157.287 57.789c12.14 13.782 19.527 31.846 19.527 51.613 0 19.764-7.385 37.825-19.521 51.607 6.971 13.001 16.486 24.435 27.89 33.623 1.699-12.396 8.034-23.332 17.205-30.99-9.146-15.987-14.379-34.501-14.379-54.24 0-52.948 37.615-97.108 87.58-107.223-7.053-1.427-14.35-2.179-21.823-2.179-41.755 0-78.041 23.395-96.479 57.789z" fill="#d4f2f6"/><g><path d="m198.82 122.103h7.205c3.203 0 6.044 1.969 7.266 4.931.013.033.027.065.04.097 1.229 2.96.615 6.362-1.65 8.628l-5.094 5.094c-3.054 3.054-3.054 8.006 0 11.06l5.437 5.437c6.568-3.266 13.961-5.114 21.781-5.114h19.654c5.638 0 11.139 1.228 16.157 3.522.853-1.611 2.252-2.92 4.016-3.648.033-.013.065-.027.098-.04 2.96-1.229 6.361-.616 8.627 1.65l5.094 5.094c3.054 3.054 8.006 3.054 11.06 0l6.902-6.903c3.054-3.054 3.054-8.006 0-11.06l-5.094-5.094c-2.266-2.266-2.879-5.668-1.651-8.627.014-.032.027-.065.041-.097 1.221-2.961 4.062-4.931 7.266-4.931h7.205c4.319 0 7.82-3.501 7.82-7.82v-9.761c0-4.319-3.501-7.82-7.82-7.82h-7.205c-3.203 0-6.044-1.969-7.266-4.931-.014-.033-.027-.065-.041-.098-1.229-2.96-.615-6.361 1.65-8.627l5.094-5.094c3.054-3.054 3.054-8.006 0-11.06l-6.902-6.902c-3.054-3.054-8.006-3.054-11.06 0l-5.094 5.094c-2.266 2.266-5.668 2.879-8.627 1.651-.032-.014-.065-.027-.098-.04-2.961-1.221-4.931-4.062-4.931-7.266v-7.205c0-4.319-3.501-7.82-7.82-7.82h-9.762c-4.319 0-7.82 3.501-7.82 7.82v7.205c0 3.203-1.969 6.044-4.931 7.266-.032.013-.065.027-.098.04-2.96 1.229-6.361.616-8.627-1.65l-5.095-5.094c-3.054-3.054-8.005-3.054-11.06 0l-6.902 6.902c-3.054 3.054-3.054 8.006 0 11.06l5.094 5.095c2.266 2.266 2.879 5.668 1.65 8.627-.014.033-.027.065-.041.098-1.221 2.961-4.062 4.931-7.266 4.931h-7.205c-4.319 0-7.82 3.501-7.82 7.82v9.761c.003 4.318 3.504 7.819 7.823 7.819z" fill="#02c7dd"/><path d="m198.82 122.103h7.205c3.203 0 6.045 1.969 7.266 4.931.013.033.027.065.04.097 1.229 2.96.615 6.362-1.651 8.628l-5.094 5.094c-3.054 3.054-3.054 8.005 0 11.06l5.437 5.437c6.568-3.266 13.961-5.114 21.781-5.114h19.654c2.046 0 4.073.166 6.066.481-15.442-8.284-25.949-24.565-25.949-43.315 0-22.458 15.068-41.383 35.641-47.254-.323-.856-.516-1.768-.516-2.721v-7.205c0-4.319-3.501-7.82-7.82-7.82h-9.762c-4.319 0-7.82 3.501-7.82 7.82v7.205c0 3.203-1.969 6.044-4.931 7.266-.032.013-.065.027-.098.04-2.96 1.229-6.361.616-8.627-1.65l-5.094-5.094c-3.054-3.054-8.006-3.054-11.06 0l-6.902 6.902c-3.054 3.054-3.054 8.006 0 11.06l5.094 5.095c2.266 2.266 2.879 5.668 1.651 8.627-.014.033-.027.065-.041.098-1.221 2.961-4.062 4.931-7.266 4.931h-7.205c-4.319 0-7.82 3.501-7.82 7.82v9.761c.001 4.319 3.502 7.82 7.821 7.82z" fill="#07b2cd"/><g><circle cx="256" cy="109.402" fill="#fff" r="17.527"/><path d="m256 134.934c-14.079 0-25.533-11.454-25.533-25.532s11.454-25.533 25.533-25.533 25.533 11.454 25.533 25.532-11.454 25.533-25.533 25.533zm0-35.054c-5.25 0-9.522 4.271-9.522 9.522s4.272 9.522 9.522 9.522 9.522-4.271 9.522-9.522-4.272-9.522-9.522-9.522z" fill="#6bd9e7"/></g></g><path d="m323.818 334.564v-129.358c0-22.258-18.043-40.301-40.301-40.301-7.317-8.372-18.066-13.669-30.059-13.669h-19.654c-27.664 0-50.091 22.426-50.091 50.091v133.238h140.105z" fill="#855151"/><path d="m204.587 262.076v-28.605c0-7.12 5.361-12.98 12.266-13.784v-18.36c0-25.248 18.682-46.122 42.975-49.579-2.075-.333-4.201-.512-6.37-.512h-19.654c-27.664 0-50.091 22.426-50.091 50.091v133.238h33.139v-41.53c-7.6-8.095-12.265-18.979-12.265-30.959z" fill="#704444"/><path d="m398.715 242.721-4.866 1v89.843h-92.53v1c-3.555 21.086-22.104 36.846-43.617 36.846h-7.872c-21.515 0-40.063-15.76-43.617-36.846v-1h-92.53v-89.843l-4.866-1h-37.578v116.533c0 9.253 7.501 16.754 16.754 16.754h83.118l14.759 44.548c1.401 4.23 1.681 8.751.812 13.121l-14.347 72.167c-.633 3.186 1.804 6.155 5.052 6.155h152.783c3.24 0 5.675-2.955 5.056-6.135l-14.082-72.318c-.835-4.287-.565-8.717.783-12.872l14.494-44.667h83.118c9.253 0 16.754-7.501 16.754-16.754v-116.532z" fill="#05e39c"/><g><path d="m414.811 243.721h-20.962v89.843h10.66c5.69 0 10.302-4.612 10.302-10.302z" fill="#0ed290"/></g><g><g><path d="m201.169 505.845 14.347-72.167c.869-4.37.589-8.892-.812-13.121l-12.419-37.486c-1.397-4.216-5.338-7.062-9.779-7.062h-21.394l14.759 44.548c1.401 4.23 1.681 8.751.812 13.121l-14.347 72.167c-.633 3.186 1.804 6.155 5.052 6.155h28.834c-3.249 0-5.687-2.97-5.053-6.155z" fill="#0ed290"/></g></g><g><g><path d="m92.201 359.254v-115.533h-20.962v115.533c0 9.253 7.501 16.754 16.754 16.754h20.962c-9.253.001-16.754-7.501-16.754-16.754z" fill="#0ed290"/></g></g><path d="m283.387 333.564c-5.689 0-10.302-4.612-10.302-10.302v-19.706c-4.794 1.784-9.976 2.763-15.383 2.763h-7.872c-5.407 0-10.589-.979-15.383-2.763v19.706c0 5.69-4.612 10.302-10.302 10.302h-19.099c3.109 21.956 21.969 38.846 44.784 38.846h7.873c22.814 0 41.675-16.89 44.784-38.846z" fill="#ffa78f"/><g><g><path d="m269.275 369.32c-21.746 0-39.889-15.349-44.234-35.801-.296.026-.594.045-.896.045h-19.099c3.109 21.956 21.969 38.846 44.784 38.846h7.873c5.805 0 11.351-1.098 16.45-3.091h-4.878z" fill="#f89580"/></g></g><g><path d="m310.232 235.196h-8.287v26.88c0 5.808-1.136 11.353-3.18 16.439h11.466c10.904 0 19.743-8.839 19.743-19.743v-3.833c.001-10.903-8.839-19.743-19.742-19.743z" fill="#ffa78f"/><path d="m205.587 262.076v-26.88h-8.287c-10.904 0-19.743 8.839-19.743 19.743v3.833c0 10.904 8.839 19.743 19.743 19.743h11.466c-2.043-5.086-3.179-10.631-3.179-16.439z" fill="#f89580"/></g><g><path d="m270.818 208.161c14.092-7.121 31.296 2.333 32.096 18.101.02.403.031.808.031 1.215v34.599c0 24.987-20.256 45.242-45.242 45.242h-7.873c-24.987 0-45.242-20.256-45.242-45.242v-28.605c0-7.669 6.217-13.886 13.886-13.886h26.429c2.176 0 4.321-.511 6.263-1.492z" fill="#ffcebf"/></g><path d="m226 262.076v-28.605c0-7.669 6.217-13.887 13.887-13.887h-21.413c-7.669 0-13.887 6.217-13.887 13.887v28.605c0 24.987 20.256 45.243 45.242 45.243h7.873c2.299 0 4.557-.176 6.764-.507-21.772-3.271-38.466-22.052-38.466-44.736z" fill="#ffb09e"/><g><path d="m267.752 289.197h-27.972c-4.066 0-7.847-2.193-9.865-5.724l-1.979-3.464c-2.056-3.597-.806-8.178 2.791-10.233 3.596-2.056 8.176-.806 10.232 2.791l.932 1.63h23.751l.932-1.63c2.055-3.596 6.638-4.845 10.232-2.791 3.597 2.055 4.847 6.636 2.791 10.233l-1.979 3.462c-2.019 3.533-5.8 5.726-9.866 5.726z" fill="#ec806b"/></g><g><g><path d="m237.012 259.179c-4.143 0-7.5-3.358-7.5-7.5v-8.376c0-4.142 3.357-7.5 7.5-7.5s7.5 3.358 7.5 7.5v8.376c0 4.142-3.358 7.5-7.5 7.5z" fill="#ec806b"/></g><g><path d="m270.521 259.179c-4.143 0-7.5-3.358-7.5-7.5v-8.376c0-4.142 3.357-7.5 7.5-7.5s7.5 3.358 7.5 7.5v8.376c0 4.142-3.358 7.5-7.5 7.5z" fill="#ec806b"/></g></g><g><g><g><circle cx="98.617" cy="109.402" fill="#ffe177" r="79.196"/></g><g><path d="m59.235 109.402c0-36.844 25.161-67.807 59.237-76.655-6.347-1.644-12.994-2.541-19.855-2.541-43.739 0-79.196 35.457-79.196 79.196s35.457 79.196 79.196 79.196c6.861 0 13.508-.897 19.855-2.541-34.076-8.848-59.237-39.811-59.237-76.655z" fill="#ffd15b"/></g><path d="m108.747 101.902h-2.63v-22.554h2.63c6.218 0 11.276 5.059 11.276 11.277 0 4.142 3.357 7.5 7.5 7.5s7.5-3.358 7.5-7.5c0-14.489-11.787-26.277-26.276-26.277h-2.63v-7.409c0-4.142-3.357-7.5-7.5-7.5s-7.5 3.358-7.5 7.5v7.409h-2.63c-14.489 0-26.276 11.788-26.276 26.277s11.787 26.277 26.276 26.277h2.63v22.554h-2.63c-6.218 0-11.276-5.059-11.276-11.277 0-4.142-3.357-7.5-7.5-7.5s-7.5 3.358-7.5 7.5c0 14.489 11.787 26.277 26.276 26.277h2.63v7.41c0 4.142 3.357 7.5 7.5 7.5s7.5-3.358 7.5-7.5v-7.41h2.63c14.489 0 26.276-11.788 26.276-26.277s-11.787-26.277-26.276-26.277zm-20.26 0c-6.218 0-11.276-5.059-11.276-11.277s5.059-11.277 11.276-11.277h2.63v22.554zm20.26 37.554h-2.63v-22.554h2.63c6.218 0 11.276 5.059 11.276 11.277s-5.058 11.277-11.276 11.277z" fill="#feb137"/></g></g><g><g><circle cx="413.383" cy="109.402" fill="#fe646f" r="79.196"/></g><g><path d="m378.848 109.402c0-35.982 24.004-66.339 56.866-75.982-7.085-2.079-14.573-3.214-22.33-3.214-43.739 0-79.196 35.457-79.196 79.196s35.457 79.196 79.196 79.196c7.757 0 15.246-1.135 22.33-3.214-32.863-9.643-56.866-40.001-56.866-75.982z" fill="#fb2b3a"/></g><g><path d="m421.81 86.533-8.427 8.427-8.427-8.427c-7.78-7.78-20.395-7.78-28.175 0-7.781 7.781-7.78 20.395 0 28.175l34.009 34.009c1.432 1.432 3.755 1.432 5.187 0l34.009-34.009c7.78-7.78 7.78-20.395 0-28.175-7.781-7.78-20.396-7.78-28.176 0z" fill="#fff"/></g><g><g><path d="m397.419 105.608c-6.667-6.667-7.602-16.877-2.843-24.56-6.252-1.178-12.958.647-17.796 5.485-7.78 7.78-7.78 20.395 0 28.175l34.009 34.009c1.433 1.432 3.755 1.432 5.187 0l12.276-12.276z" fill="#eaf9fa"/></g></g></g><g><path d="m469.168 201.944-25.741 16.838h-32.193c-9.602 0-17.386 7.784-17.386 17.386v7.553h52.632c3.171 0 6.261-1.005 8.825-2.871l27.104-19.721c6.136-4.465 6.44-13.508.616-18.374-3.936-3.291-9.562-3.62-13.857-.811z" fill="#ffcebf"/></g><path d="m434.154 218.782h-22.791c-9.673 0-17.515 7.842-17.515 17.515v7.296c0 .071.058.129.128.129h20.834v-7.424c.001-11.298 9.671-17.516 19.344-17.516z" fill="#ffb09e"/><g><path d="m38.364 201.944 25.741 16.838h32.193c9.602 0 17.386 7.784 17.386 17.386v7.553h-52.632c-3.171 0-6.261-1.005-8.825-2.871l-27.104-19.721c-6.136-4.465-6.44-13.508-.616-18.374 3.936-3.291 9.563-3.62 13.857-.811z" fill="#ffcebf"/></g></g></svg>