<svg xmlns="http://www.w3.org/2000/svg" width="10" height="9.949" viewBox="0 0 10 9.949">
  <path id="Path_232" data-name="Path 232" d="M5.986,3.947c.436-.9.654-1.348,1-1.348s.567.449,1,1.348L8.748,5.5l1.749.292c.911.152,1.366.228,1.472.546s-.212.653-.848,1.322L9.835,9.018l.273,1.82c.144.959.216,1.439-.065,1.637s-.709-.03-1.564-.488l-1.488-.8-1.488.8c-.855.458-1.283.686-1.564.488s-.209-.678-.065-1.637l.273-1.82L2.858,7.663c-.636-.67-.954-1-.848-1.322s.562-.394,1.472-.546L5.232,5.5Z" transform="translate(-1.99 -2.598)" fill="#d5ca36"/>
</svg>
